<svg width="116" height="59" viewBox="0 0 116 59" fill="none" xmlns="http://www.w3.org/2000/svg">
<g filter="url(#filter0_d_259_69)">
<path d="M9.58733 27.94V25H5.69533V27.94H2.25133V21.248H2.95133C3.02599 20.8933 3.06333 20.6973 3.06333 20.66C3.15666 20.2307 3.21266 19.5587 3.23133 18.644C3.32466 15.8067 3.37133 10.9813 3.37133 4.168H12.0513V21.248H13.0313V27.94H9.58733ZM6.64733 18.392C6.51666 19.7547 6.45133 20.4547 6.45133 20.492L6.33933 21.248H8.41133V7.836H6.78733C6.78733 12.8573 6.74066 16.376 6.64733 18.392ZM13.7462 25V4.168H19.3742C20.6435 4.168 21.5582 4.448 22.1182 5.008C22.6969 5.568 22.9862 6.52933 22.9862 7.892V10.664C22.9862 11.448 22.7995 12.1013 22.4262 12.624C22.0715 13.128 21.6702 13.4453 21.2222 13.576C22.6035 13.968 23.2942 15.06 23.2942 16.852V20.324C23.2942 21.948 23.0142 23.1333 22.4542 23.88C21.8942 24.6267 21.0355 25 19.8782 25H13.7462ZM18.3662 15.676H17.4702V21.696H18.5062C18.8609 21.696 19.1035 21.612 19.2342 21.444C19.3835 21.2573 19.4582 20.884 19.4582 20.324V16.936C19.4582 16.488 19.3742 16.1707 19.2062 15.984C19.0569 15.7787 18.7769 15.676 18.3662 15.676ZM18.3662 7.36H17.4702V12.316H18.3102C18.6462 12.316 18.8982 12.232 19.0662 12.064C19.2342 11.8773 19.3182 11.5507 19.3182 11.084V8.48C19.3182 7.73333 19.0009 7.36 18.3662 7.36ZM33.8522 9.208V20.24C33.8522 21.7893 33.4602 23.0213 32.6762 23.936C31.8922 24.8507 30.8095 25.308 29.4282 25.308H28.5882C27.1135 25.308 25.9935 24.8787 25.2282 24.02C24.4628 23.1427 24.0802 21.8827 24.0802 20.24V9.236C24.0802 5.68933 25.5735 3.916 28.5602 3.916H29.4002C32.3682 3.916 33.8522 5.68 33.8522 9.208ZM29.9602 20.352V8.928C29.9602 8.01333 29.6335 7.556 28.9802 7.556C28.3082 7.556 27.9722 8.01333 27.9722 8.928V20.352C27.9722 21.1733 28.3175 21.584 29.0082 21.584C29.6428 21.584 29.9602 21.1733 29.9602 20.352ZM40.3162 16.656H38.5522V25H34.8282V4.168H40.1202C41.6136 4.168 42.6216 4.504 43.1442 5.176C43.6856 5.848 43.9562 6.884 43.9562 8.284V12.456C43.9562 15.256 42.7429 16.656 40.3162 16.656ZM38.5522 7.388V13.268H39.2522C39.6442 13.268 39.8962 13.1747 40.0082 12.988C40.1389 12.7827 40.2042 12.484 40.2042 12.092V8.62C40.2042 8.19067 40.1389 7.88267 40.0082 7.696C39.8962 7.49067 39.6442 7.388 39.2522 7.388H38.5522ZM44.836 4.168H52.62V7.836H48.56V12.372H51.752V16.124H48.56V21.248H52.816V25H44.836V4.168ZM60.1394 27.94V25H53.4754V4.168H57.1994V21.332H58.8794V4.168H62.6034V21.248H63.5834V27.94H60.1394ZM67.1759 25V4.168H71.7679L73.1959 14.696L74.6239 4.168H78.9079V25H75.5479V12.68L73.6999 25H72.2999L70.4239 12.68V25H67.1759ZM85.9648 25V13.94L83.5568 25H79.9168V4.168H83.5568V15.312L85.9648 4.168H89.6048V25H85.9648ZM96.2069 16.656H94.4429V25H90.7189V4.168H96.0109C97.5042 4.168 98.5122 4.504 99.0349 5.176C99.5762 5.848 99.8469 6.884 99.8469 8.284V12.456C99.8469 15.256 98.6335 16.656 96.2069 16.656ZM94.4429 7.388V13.268H95.1429C95.5349 13.268 95.7869 13.1747 95.8989 12.988C96.0295 12.7827 96.0949 12.484 96.0949 12.092V8.62C96.0949 8.19067 96.0295 7.88267 95.8989 7.696C95.7869 7.49067 95.5349 7.388 95.1429 7.388H94.4429ZM105.452 25L105.06 21.5H102.82L102.484 25H99.1803L101.812 4.168H106.236L109.064 25H105.452ZM103.912 10.776L103.184 17.916H104.696L103.912 10.776ZM15.1581 53V41.94L12.7501 53H9.11013V32.168H12.7501V43.312L15.1581 32.168H18.7981V53H15.1581ZM28.4673 48.408V43.816H32.1633V48.52C32.1633 49.92 31.818 51.0773 31.1273 51.992C30.4553 52.888 29.3633 53.336 27.8513 53.336H27.0953C25.4526 53.336 24.3046 52.888 23.6513 51.992C23.0166 51.096 22.6993 49.9013 22.6993 48.408V36.648C22.6993 35.248 23.0446 34.1093 23.7353 33.232C24.4446 32.3547 25.5646 31.916 27.0953 31.916H27.8513C28.71 31.916 29.4286 32.0373 30.0073 32.28C30.6046 32.5227 31.0526 32.8773 31.3513 33.344C31.65 33.792 31.8553 34.268 31.9673 34.772C32.098 35.276 32.1633 35.8547 32.1633 36.508V40.008H28.4673V36.648C28.4673 35.8453 28.15 35.444 27.5153 35.444C26.8993 35.444 26.5913 35.8453 26.5913 36.648V48.408C26.5913 49.248 26.9086 49.668 27.5433 49.668C28.1593 49.668 28.4673 49.248 28.4673 48.408ZM42.7799 37.208V48.24C42.7799 49.7893 42.3879 51.0213 41.6039 51.936C40.8199 52.8507 39.7372 53.308 38.3559 53.308H37.5159C36.0412 53.308 34.9212 52.8787 34.1559 52.02C33.3906 51.1427 33.0079 49.8827 33.0079 48.24V37.236C33.0079 33.6893 34.5012 31.916 37.4879 31.916H38.3279C41.2959 31.916 42.7799 33.68 42.7799 37.208ZM38.8879 48.352V36.928C38.8879 36.0133 38.5612 35.556 37.9079 35.556C37.2359 35.556 36.8999 36.0133 36.8999 36.928V48.352C36.8999 49.1733 37.2452 49.584 37.9359 49.584C38.5706 49.584 38.8879 49.1733 38.8879 48.352ZM43.7 53V32.168H51.4V35.836H47.424V53H43.7ZM57.2655 53V35.836H55.8375C55.8375 42.7613 55.7535 47.26 55.5855 49.332C55.5109 50.62 55.1935 51.5533 54.6335 52.132C54.0922 52.7107 53.1589 53 51.8335 53H50.9095V49.22H51.1335C51.5069 49.22 51.7589 49.1173 51.8895 48.912C52.0202 48.688 52.0949 48.324 52.1135 47.82C52.2442 43.6387 52.3095 38.4213 52.3095 32.168H60.9895V53H57.2655ZM67.7316 53L67.3396 49.5H65.0996L64.7636 53H61.4596L64.0916 32.168H68.5156L71.3436 53H67.7316ZM66.1916 38.776L65.4636 45.916H66.9756L66.1916 38.776ZM77.2759 48.408V43.816H80.9719V48.52C80.9719 49.92 80.6266 51.0773 79.9359 51.992C79.2639 52.888 78.1719 53.336 76.6599 53.336H75.9039C74.2612 53.336 73.1132 52.888 72.4599 51.992C71.8252 51.096 71.5079 49.9013 71.5079 48.408V36.648C71.5079 35.248 71.8532 34.1093 72.5439 33.232C73.2532 32.3547 74.3732 31.916 75.9039 31.916H76.6599C77.5186 31.916 78.2372 32.0373 78.8159 32.28C79.4132 32.5227 79.8612 32.8773 80.1599 33.344C80.4586 33.792 80.6639 34.268 80.7759 34.772C80.9066 35.276 80.9719 35.8547 80.9719 36.508V40.008H77.2759V36.648C77.2759 35.8453 76.9586 35.444 76.3239 35.444C75.7079 35.444 75.3999 35.8453 75.3999 36.648V48.408C75.3999 49.248 75.7172 49.668 76.3519 49.668C76.9679 49.668 77.2759 49.248 77.2759 48.408ZM87.8925 53V41.94L85.4845 53H81.8445V32.168H85.4845V43.312L87.8925 32.168H91.5325V53H87.8925ZM98.1626 45.216H97.8546L95.8386 53H91.9186L94.2426 44.236C93.2533 43.7507 92.7586 42.6773 92.7586 41.016V36.256C92.7586 34.8747 93.0293 33.848 93.5706 33.176C94.1119 32.504 95.1293 32.168 96.6226 32.168H101.887V53H98.1626V45.216ZM98.1626 41.828V35.388H97.4626C97.0706 35.388 96.8093 35.4907 96.6786 35.696C96.5666 35.8827 96.5106 36.1813 96.5106 36.592V40.652C96.5106 41.044 96.5666 41.3427 96.6786 41.548C96.8093 41.7347 97.0706 41.828 97.4626 41.828H98.1626Z" fill="white"/>
</g>
<defs>
<filter id="filter0_d_259_69" x="0.251953" y="0.916016" width="114.812" height="57.4199" filterUnits="userSpaceOnUse" color-interpolation-filters="sRGB">
<feFlood flood-opacity="0" result="BackgroundImageFix"/>
<feColorMatrix in="SourceAlpha" type="matrix" values="0 0 0 0 0 0 0 0 0 0 0 0 0 0 0 0 0 0 127 0" result="hardAlpha"/>
<feOffset dx="2" dy="1"/>
<feGaussianBlur stdDeviation="2"/>
<feComposite in2="hardAlpha" operator="out"/>
<feColorMatrix type="matrix" values="0 0 0 0 0 0 0 0 0 0 0 0 0 0 0 0 0 0 0.25 0"/>
<feBlend mode="normal" in2="BackgroundImageFix" result="effect1_dropShadow_259_69"/>
<feBlend mode="normal" in="SourceGraphic" in2="effect1_dropShadow_259_69" result="shape"/>
</filter>
</defs>
</svg>
