<svg width="238" height="115" viewBox="0 0 238 115" fill="none" xmlns="http://www.w3.org/2000/svg">
<g filter="url(#filter0_d_164_157)">
<path d="M18.6157 55.3V49H10.2757V55.3H2.8957V40.96H4.3957C4.5557 40.2 4.6357 39.78 4.6357 39.7C4.8357 38.78 4.9557 37.34 4.9957 35.38C5.1957 29.3 5.2957 18.96 5.2957 4.36H23.8957V40.96H25.9957V55.3H18.6157ZM12.3157 34.84C12.0357 37.76 11.8957 39.26 11.8957 39.34L11.6557 40.96H16.0957V12.22H12.6157C12.6157 22.98 12.5157 30.52 12.3157 34.84ZM27.5276 49V4.36H39.5876C42.3076 4.36 44.2676 4.96 45.4676 6.16C46.7076 7.36 47.3276 9.42 47.3276 12.34V18.28C47.3276 19.96 46.9276 21.36 46.1276 22.48C45.3676 23.56 44.5076 24.24 43.5476 24.52C46.5076 25.36 47.9876 27.7 47.9876 31.54V38.98C47.9876 42.46 47.3876 45 46.1876 46.6C44.9876 48.2 43.1476 49 40.6676 49H27.5276ZM37.4276 29.02H35.5076V41.92H37.7276C38.4876 41.92 39.0076 41.74 39.2876 41.38C39.6076 40.98 39.7676 40.18 39.7676 38.98V31.72C39.7676 30.76 39.5876 30.08 39.2276 29.68C38.9076 29.24 38.3076 29.02 37.4276 29.02ZM37.4276 11.2H35.5076V21.82H37.3076C38.0276 21.82 38.5676 21.64 38.9276 21.28C39.2876 20.88 39.4676 20.18 39.4676 19.18V13.6C39.4676 12 38.7876 11.2 37.4276 11.2ZM70.6118 15.16V38.8C70.6118 42.12 69.7718 44.76 68.0918 46.72C66.4118 48.68 64.0918 49.66 61.1318 49.66H59.3318C56.1718 49.66 53.7718 48.74 52.1318 46.9C50.4918 45.02 49.6718 42.32 49.6718 38.8V15.22C49.6718 7.62 52.8718 3.82 59.2718 3.82H61.0718C67.4318 3.82 70.6118 7.6 70.6118 15.16ZM62.2718 39.04V14.56C62.2718 12.6 61.5718 11.62 60.1718 11.62C58.7318 11.62 58.0118 12.6 58.0118 14.56V39.04C58.0118 40.8 58.7518 41.68 60.2318 41.68C61.5918 41.68 62.2718 40.8 62.2718 39.04ZM84.4634 31.12H80.6834V49H72.7034V4.36H84.0434C87.2434 4.36 89.4034 5.08 90.5234 6.52C91.6834 7.96 92.2634 10.18 92.2634 13.18V22.12C92.2634 28.12 89.6634 31.12 84.4634 31.12ZM80.6834 11.26V23.86H82.1834C83.0234 23.86 83.5634 23.66 83.8034 23.26C84.0834 22.82 84.2234 22.18 84.2234 21.34V13.9C84.2234 12.98 84.0834 12.32 83.8034 11.92C83.5634 11.48 83.0234 11.26 82.1834 11.26H80.6834ZM94.1487 4.36H110.829V12.22H102.129V21.94H108.969V29.98H102.129V40.96H111.249V49H94.1487V4.36ZM126.941 55.3V49H112.661V4.36H120.641V41.14H124.241V4.36H132.221V40.96H134.321V55.3H126.941ZM142.02 49V4.36H151.86L154.92 26.92L157.98 4.36H167.16V49H159.96V22.6L156 49H153L148.98 22.6V49H142.02ZM182.282 49V25.3L177.122 49H169.322V4.36H177.122V28.24L182.282 4.36H190.082V49H182.282ZM204.229 31.12H200.449V49H192.469V4.36H203.809C207.009 4.36 209.169 5.08 210.289 6.52C211.449 7.96 212.029 10.18 212.029 13.18V22.12C212.029 28.12 209.429 31.12 204.229 31.12ZM200.449 11.26V23.86H201.949C202.789 23.86 203.329 23.66 203.569 23.26C203.849 22.82 203.989 22.18 203.989 21.34V13.9C203.989 12.98 203.849 12.32 203.569 11.92C203.329 11.48 202.789 11.26 201.949 11.26H200.449ZM224.041 49L223.201 41.5H218.401L217.681 49H210.601L216.241 4.36H225.721L231.781 49H224.041ZM220.741 18.52L219.181 33.82H222.421L220.741 18.52ZM30.5531 109V85.3L25.3931 109H17.5931V64.36H25.3931V88.24L30.5531 64.36H38.3531V109H30.5531ZM59.0728 99.16V89.32H66.9928V99.4C66.9928 102.4 66.2528 104.88 64.7728 106.84C63.3328 108.76 60.9928 109.72 57.7528 109.72H56.1328C52.6128 109.72 50.1528 108.76 48.7528 106.84C47.3928 104.92 46.7128 102.36 46.7128 99.16V73.96C46.7128 70.96 47.4528 68.52 48.9328 66.64C50.4528 64.76 52.8528 63.82 56.1328 63.82H57.7528C59.5928 63.82 61.1328 64.08 62.3728 64.6C63.6528 65.12 64.6128 65.88 65.2528 66.88C65.8928 67.84 66.3328 68.86 66.5728 69.94C66.8528 71.02 66.9928 72.26 66.9928 73.66V81.16H59.0728V73.96C59.0728 72.24 58.3928 71.38 57.0328 71.38C55.7128 71.38 55.0528 72.24 55.0528 73.96V99.16C55.0528 100.96 55.7328 101.86 57.0928 101.86C58.4128 101.86 59.0728 100.96 59.0728 99.16ZM89.7427 75.16V98.8C89.7427 102.12 88.9027 104.76 87.2227 106.72C85.5427 108.68 83.2227 109.66 80.2627 109.66H78.4627C75.3027 109.66 72.9027 108.74 71.2627 106.9C69.6227 105.02 68.8027 102.32 68.8027 98.8V75.22C68.8027 67.62 72.0027 63.82 78.4027 63.82H80.2027C86.5627 63.82 89.7427 67.6 89.7427 75.16ZM81.4027 99.04V74.56C81.4027 72.6 80.7027 71.62 79.3027 71.62C77.8627 71.62 77.1427 72.6 77.1427 74.56V99.04C77.1427 100.8 77.8827 101.68 79.3627 101.68C80.7227 101.68 81.4027 100.8 81.4027 99.04ZM91.7142 109V64.36H108.214V72.22H99.6942V109H91.7142ZM120.783 109V72.22H117.723C117.723 87.06 117.543 96.7 117.183 101.14C117.023 103.9 116.343 105.9 115.143 107.14C113.983 108.38 111.983 109 109.143 109H107.163V100.9H107.643C108.443 100.9 108.983 100.68 109.263 100.24C109.543 99.76 109.703 98.98 109.743 97.9C110.023 88.94 110.163 77.76 110.163 64.36H128.763V109H120.783ZM143.211 109L142.371 101.5H137.571L136.851 109H129.771L135.411 64.36H144.891L150.951 109H143.211ZM139.911 78.52L138.351 93.82H141.591L139.911 78.52ZM163.663 99.16V89.32H171.583V99.4C171.583 102.4 170.843 104.88 169.363 106.84C167.923 108.76 165.583 109.72 162.343 109.72H160.723C157.203 109.72 154.743 108.76 153.343 106.84C151.983 104.92 151.303 102.36 151.303 99.16V73.96C151.303 70.96 152.043 68.52 153.523 66.64C155.043 64.76 157.443 63.82 160.723 63.82H162.343C164.183 63.82 165.723 64.08 166.963 64.6C168.243 65.12 169.203 65.88 169.843 66.88C170.483 67.84 170.923 68.86 171.163 69.94C171.443 71.02 171.583 72.26 171.583 73.66V81.16H163.663V73.96C163.663 72.24 162.983 71.38 161.623 71.38C160.303 71.38 159.643 72.24 159.643 73.96V99.16C159.643 100.96 160.323 101.86 161.683 101.86C163.003 101.86 163.663 100.96 163.663 99.16ZM186.413 109V85.3L181.253 109H173.453V64.36H181.253V88.24L186.413 64.36H194.213V109H186.413ZM208.42 92.32H207.76L203.44 109H195.04L200.02 90.22C197.9 89.18 196.84 86.88 196.84 83.32V73.12C196.84 70.16 197.42 67.96 198.58 66.52C199.74 65.08 201.92 64.36 205.12 64.36H216.4V109H208.42V92.32ZM208.42 85.06V71.26H206.92C206.08 71.26 205.52 71.48 205.24 71.92C205 72.32 204.88 72.96 204.88 73.84V82.54C204.88 83.38 205 84.02 205.24 84.46C205.52 84.86 206.08 85.06 206.92 85.06H208.42Z" fill="white"/>
</g>
<defs>
<filter id="filter0_d_164_157" x="0.896484" y="0.819824" width="236.885" height="113.9" filterUnits="userSpaceOnUse" color-interpolation-filters="sRGB">
<feFlood flood-opacity="0" result="BackgroundImageFix"/>
<feColorMatrix in="SourceAlpha" type="matrix" values="0 0 0 0 0 0 0 0 0 0 0 0 0 0 0 0 0 0 127 0" result="hardAlpha"/>
<feOffset dx="2" dy="1"/>
<feGaussianBlur stdDeviation="2"/>
<feComposite in2="hardAlpha" operator="out"/>
<feColorMatrix type="matrix" values="0 0 0 0 0 0 0 0 0 0 0 0 0 0 0 0 0 0 0.25 0"/>
<feBlend mode="normal" in2="BackgroundImageFix" result="effect1_dropShadow_164_157"/>
<feBlend mode="normal" in="SourceGraphic" in2="effect1_dropShadow_164_157" result="shape"/>
</filter>
</defs>
</svg>
