<svg width="466" height="87" viewBox="0 0 466 87" fill="none" xmlns="http://www.w3.org/2000/svg">
<path d="M252.263 87.0034H242.856L240.1 82.2721L237.334 87.0034H227.927L213.628 64.3057H225.34L233.261 78.7469L235.264 75.4381L229.169 64.3057H238.275L240.1 68.2639L241.915 64.3057H251.049L244.916 75.4381L246.92 78.7469L254.85 64.3057H266.59L252.263 87.0034Z" fill="white"/>
<path d="M267.59 86.9931V64.3057H297.853V70.6089H278.227V71.9544H297.853V78.2473H278.227V80.7002H297.853V87.0034H267.59V86.9931Z" fill="white"/>
<path d="M298.853 86.9931V64.3057H329.117V70.6089H309.48V71.9544H329.117V78.2473H309.48V80.7002H329.117V87.0034H298.853V86.9931Z" fill="white"/>
<path d="M352.173 75.6545L363.801 87.0034H350.128L340.01 75.7892V75.4889L350.176 64.3057H363.947L352.192 75.6545H352.173ZM329.9 87.0034V64.3057H339.951V87.0034H329.9Z" fill="white"/>
<path d="M364.946 86.9931V64.3057H395.21V70.6089H375.573V71.9544H395.21V78.2473H375.573V80.7002H395.21V87.0034H364.946V86.9931Z" fill="white"/>
<path d="M428.955 87.0034L406.641 77.7643V86.6135H396.21V64.3057H397.513L419.827 73.2547V64.6956H430.257V87.0034H428.955Z" fill="white"/>
<path d="M454.664 75.5407C454.664 74.909 454.543 74.3292 454.292 73.7907C454.042 73.2523 453.63 72.7863 453.049 72.4135C452.467 72.0407 451.694 71.7301 450.722 71.523C449.749 71.3159 448.536 71.202 447.102 71.202H441.626V80.0968H447.102C448.546 80.0968 449.749 79.9829 450.722 79.7758C451.694 79.5687 452.467 79.258 453.049 78.8645C453.63 78.4711 454.042 77.9947 454.292 77.4356C454.543 76.8764 454.664 76.2448 454.664 75.551V75.5407ZM465.303 75.4371C465.303 77.5909 464.862 79.4134 463.96 80.8837C463.067 82.3541 461.864 83.5449 460.36 84.4562C458.845 85.3674 457.11 86.0094 455.145 86.4132C453.179 86.8067 451.123 87.0034 448.957 87.0034H431.257V64.3057H448.957C451.073 64.3057 453.109 64.4713 455.095 64.813C457.07 65.1444 458.815 65.745 460.319 66.5941C461.834 67.4536 463.038 68.5926 463.94 70.0319C464.843 71.4712 465.294 73.2833 465.294 75.4578L465.303 75.4371Z" fill="white"/>
<path d="M209.086 64.3722V19.2371H185.62C185.62 19.2371 186.409 35.5147 185.177 38.6856C183.079 45.5636 166.18 44.585 166.18 36.5685C166.18 27.2442 183.39 28.8438 183.39 28.8438L181.668 19.2183C181.668 19.2183 141.885 15.5205 139.975 36.7756C139.551 51.5948 165.954 57.7766 185.478 50.4846V68.0888L209.077 64.3722H209.086ZM293.244 44.6415C293.018 44.3969 288.718 45.4695 285.604 44.7074C282.169 43.87 281.944 41.2919 281.944 37.8764V19.5664H256.171V36.8414C256.171 38.8738 256.34 43.8418 249.114 43.8418C245.858 43.8418 242.151 43.5689 242.151 38.8832V19.5664H216.52L216.538 41.5742C216.538 54.1258 237.588 57.9553 259.22 49.7695C259.22 49.7695 269.344 57.7671 294.656 51.8865C294.656 51.8865 293.554 44.9426 293.253 44.6321L293.244 44.6415ZM338.871 23.2265C339.031 20.5261 345.758 19.8299 346.172 22.9537C346.172 22.9537 338.692 26.1433 338.871 23.2265ZM396.051 42.7973C395.402 42.5809 390.669 43.6441 385.372 41.8094C376.894 38.8738 375.595 27.5077 385.654 21.0154L376.235 13.0459C359.628 19.4441 356.202 19.9052 354.65 20.2627C353.878 18.0045 350.274 14.2127 342.624 14.6643C338.465 14.909 332.284 17.2424 330.496 21.4953C329.291 24.3556 330.016 27.5735 332.811 29.7752C336.838 32.9461 344.525 32.1557 344.525 32.1557C342.107 42.2986 321.03 49.2331 321.03 38.3657V19.717H296.001V41.3672C296.001 52.1876 309.277 54.9821 322.309 54.1258C340.545 52.9215 350.81 42.4586 354.546 31.1583L363.447 29.1072C363.447 29.1072 351.271 44.9803 366.467 52.197C375.133 56.3182 391.083 53.1379 397.482 49.7224C397.482 49.7224 396.418 42.9291 396.051 42.8067V42.7973ZM321.736 7.38174C321.736 11.644 317.059 14.6549 308.873 14.6549C300.686 14.6549 296.001 11.7005 296.001 7.38174C296.001 2.5549 303.077 -0.00439453 308.863 -0.00439453C314.65 -0.00439453 321.726 2.48904 321.726 7.38174H321.736ZM431.083 40.4263C431.083 35.4771 448.16 33.8211 448.16 33.8211L447.916 28.872C445.422 28.8061 435.712 29.1637 435.712 26.5574C435.712 23.1607 450.579 22.3327 455.791 22.1539L454.718 14.2315C445.732 14.2597 405.376 14.3632 403.729 25.2871C402.835 31.1866 414.455 32.5791 414.455 32.5791V32.852C414.455 32.852 399.24 35.6653 399.24 43.0326C399.24 58.0588 451.726 53.853 465.304 50.1082C465.304 50.1082 463.987 43.4372 463.394 43.1267C462.849 42.8444 451.839 44.4722 443.089 44.2369C435.975 44.0488 431.083 42.9103 431.083 40.4263Z" fill="white"/>
<path d="M84.7332 43.5686C84.7332 43.5686 91.3326 39.4525 98.1143 33.5953C98.1143 33.5953 103.955 36.9544 106.635 40.957C106.635 40.957 97.3168 39.2159 84.7332 43.5686ZM105.866 47.2116C103.061 50.618 92.0819 50.5802 92.8503 48.3566C93.6764 45.9626 104.569 46.5587 105.866 47.2116ZM133.703 44.354C136.115 41.9411 135.97 39.0077 133.924 35.8189C130.908 31.1066 122.571 28.3437 120.582 24.606C119.708 22.9596 119.737 21.0103 121.043 18.6068L120.592 16.6292L92.4756 19.6856C90.8138 23.3854 92.5045 26.2619 92.6294 26.6026C72.3132 48.0348 39.3749 48.2241 38.5008 40.6731C37.6747 33.5858 60.2001 32.0245 60.2001 32.0245L59.7582 24.9656C59.7582 24.9656 44.5909 26.1389 44.3604 21.5402C44.1203 16.7996 58.3177 15.2666 66.5498 15.172L64.4457 3.7888C37.7993 3.50493 12.9016 9.28641 10.6154 19.1935C9.92381 22.1647 11.9409 27.3974 22.9299 29.5832V29.9617C22.9299 29.9617 -0.152928 33.548 0.000764106 43.4172C0.135245 52.1983 20.0483 56.0968 34.1111 56.1914C62.6018 56.3901 77.6251 47.0886 77.6251 47.0886C73.6387 57.819 104.838 59.1153 126.499 51.4129C127.527 51.0438 135.855 54.5355 140.908 56.7402C140.908 56.7402 144.145 49.1136 143.713 48.0727C143.319 47.1265 133.713 44.3635 133.713 44.3635L133.703 44.354Z" fill="white"/>
</svg>
