<svg width="214" height="160" viewBox="0 0 214 160" fill="none" xmlns="http://www.w3.org/2000/svg">
<path d="M213.644 110.953C213.365 111.488 213.458 112.081 213.4 112.65C213.319 113.498 213.202 114.335 213.063 115.172C212.412 118.775 211.377 122.262 209.541 125.446C208.181 127.864 206.356 129.979 204.183 131.676C201.812 133.501 199.128 134.64 196.361 135.651C193.526 136.697 190.619 137.499 187.714 138.254C185.575 138.801 183.413 139.3 181.228 139.719C179.113 140.126 177.033 140.602 174.929 141.044C172.546 141.532 170.152 141.95 167.769 142.497C165.398 143.043 163.109 143.519 160.773 143.996C158.902 144.379 157.042 144.775 155.171 145.146C152.405 145.693 149.639 146.239 146.873 146.762C145.025 147.111 143.2 147.564 141.364 147.866C138.411 148.354 135.506 149.052 132.554 149.505C131.008 149.749 129.474 150.109 127.94 150.377L122.384 151.341L114.388 152.724C112.226 153.096 110.064 153.457 107.902 153.828C105.903 154.166 103.915 154.514 101.916 154.828C100.731 155.014 99.5349 155.13 98.3378 155.316C97.7334 155.409 97.1051 155.525 96.4775 155.618C94.8503 155.839 93.2355 156.072 91.6083 156.304C90.0393 156.525 88.458 156.757 86.889 156.966C85.0991 157.199 83.2975 157.373 81.5192 157.664C80.2756 157.861 79.0318 157.966 77.7998 158.164C76.8235 158.315 75.8481 158.431 74.8602 158.501C73.9187 158.57 73.0004 158.733 72.059 158.849C71.1757 158.954 70.2807 159.012 69.3974 159.093C68.363 159.186 67.34 159.361 66.3056 159.407C65.2015 159.465 64.1092 159.605 63.005 159.675C62.2147 159.721 61.4246 159.895 60.6227 159.849C60.5645 159.849 60.506 159.849 60.4479 159.872C60.3898 159.895 60.3545 159.942 60.3196 160H42.9325C42.5605 159.733 42.0964 159.791 41.6896 159.721C39.063 159.233 36.5871 158.164 34.4369 156.583C32.3217 155.06 30.741 153.061 29.4509 150.807C28.2654 148.656 27.429 146.344 26.9641 143.926C26.627 142.415 26.4286 140.858 26.3705 139.312C26.3588 138.568 26.2544 137.813 26.266 137.057C26.266 136.871 26.3365 136.674 26.4295 136.511C26.5225 136.348 26.6617 136.209 26.8245 136.116C26.9872 136.023 27.1731 135.965 27.359 135.953C27.545 135.953 27.7423 135.988 27.905 136.058C28.0561 136.127 28.1959 136.244 28.2773 136.383C28.3586 136.534 28.4047 136.697 28.393 136.871C28.4279 138.65 28.6144 140.404 28.9515 142.148C29.3582 144.6 30.0901 146.971 31.1477 149.214C31.938 150.911 33.0076 152.445 34.3325 153.759C35.0066 154.41 35.7739 154.979 36.5991 155.421C37.6684 156.025 38.7721 156.571 39.9111 157.036C41.1314 157.489 42.3986 157.815 43.677 157.989C46.2223 158.373 48.814 158.489 51.3826 158.338C53.277 158.257 55.1836 158.257 57.078 158.001C58.2635 157.838 59.4945 157.908 60.7032 157.78C62.0166 157.652 63.342 157.524 64.6553 157.408C65.8292 157.304 67.0034 157.152 68.1773 157.059C69.8625 156.92 71.5362 156.757 73.2099 156.56C74.6162 156.397 76.0337 156.211 77.44 156.025C78.4628 155.886 79.4852 155.735 80.508 155.583C82.1583 155.351 83.7974 155.13 85.4361 154.863C86.9819 154.607 88.5396 154.421 90.0738 154.154C91.8869 153.828 93.7345 153.584 95.5593 153.329C97.1051 153.108 98.6511 152.852 100.197 152.643C101.371 152.492 102.521 152.236 103.684 152.039C106.334 151.562 108.995 151.097 111.645 150.621C114.109 150.179 116.561 149.702 119.037 149.272C121.001 148.924 122.965 148.622 124.953 148.285C126.068 148.087 127.173 147.855 128.277 147.657C129.765 147.378 131.252 147.076 132.74 146.808C133.949 146.588 135.157 146.344 136.366 146.111C138.33 145.751 140.294 145.344 142.247 144.972C144.664 144.519 147.082 144.089 149.499 143.601C151.08 143.298 152.66 142.996 154.253 142.694C156.635 142.229 159.018 141.764 161.401 141.276C162.552 141.044 163.702 140.742 164.852 140.509C166.456 140.184 168.06 139.905 169.688 139.568C171.106 139.266 172.524 139.033 173.942 138.754C175.429 138.464 176.917 138.15 178.404 137.871C180.868 137.441 183.321 136.941 185.75 136.337C188.563 135.639 191.34 134.872 194.071 133.908C194.861 133.629 195.687 133.396 196.454 133.071C198.791 132.06 201.207 131.176 203.16 129.445C205.066 127.794 206.612 125.772 207.705 123.494C208.448 122.053 209.053 120.542 209.541 118.996C210.192 116.706 210.668 114.382 210.97 112.022C211.179 110.314 211.284 108.594 211.389 106.885C211.528 104.526 211.401 102.178 211.331 99.8305C211.203 97.0179 210.925 94.2169 210.494 91.4275C210.064 88.3824 209.541 85.3489 208.856 82.3387C208.054 78.6428 207.054 74.9817 205.868 71.3903C205.636 70.7278 205.392 70.0654 205.147 69.4029C205.02 69.0891 204.985 68.7405 205.043 68.4034C205.09 68.1593 205.206 67.9385 205.38 67.7758C205.554 67.613 205.786 67.5084 206.031 67.4736C206.251 67.4619 206.472 67.5201 206.647 67.6479C206.833 67.7758 206.961 67.9617 207.019 68.1709C207.403 69.2402 207.774 70.3211 208.111 71.402C209.076 74.5284 209.925 77.6897 210.703 80.8743C211.366 83.5591 211.888 86.2787 212.376 88.9984C212.62 90.3582 212.841 91.7181 213.004 93.1011C213.167 94.5191 213.353 95.937 213.505 97.3549C213.563 97.8896 213.539 98.4242 213.574 98.9588C213.585 99.2145 213.493 99.5051 213.713 99.7259L213.678 110.965L213.644 110.953Z" fill="white"/>
<path d="M98.558 132.397H2.20733C1.0567 132.397 1.20852 132.513 1.20852 131.386V127.004C1.20852 126.601 1.40943 126.4 1.81235 126.4H194.978C195.745 126.4 196.129 126.783 196.129 127.55V131.851C196.129 132.374 196.129 132.374 195.594 132.385H98.5693L98.558 132.397Z" fill="white"/>
<path d="M28.1958 90.4397C28.0098 90.5908 27.8933 90.8117 27.8701 91.0441C27.2076 93.7754 26.3833 96.5067 25.6511 99.2379C25.5581 99.5982 25.5695 99.6563 25.953 99.6796C26.6504 99.7145 27.3362 99.5052 28.0335 99.575C28.2311 99.5866 28.3349 99.4239 28.3581 99.2379C28.3814 99.0985 28.3936 98.9474 28.3819 98.8079L28.3581 91.1603C28.3814 90.9162 28.3237 90.6605 28.1958 90.4397ZM7.18231 108.931C7.0196 109.28 6.96131 109.652 6.99617 110.035C7.06591 113.987 7.11335 117.938 7.10173 121.913C7.10173 122.564 6.78729 122.89 6.15967 122.89H0.953405C0.0817204 122.89 0 122.82 0 121.937V76.7833C0.0232449 76.3417 0.128119 76.2138 0.569773 76.2138C2.52235 76.2022 4.48631 76.2022 6.43889 76.2138C6.97352 76.2138 6.98482 76.2487 6.98482 76.8182V85.7791C7.25214 85.5931 7.46134 85.3259 7.56595 85.0237C8.50737 82.9549 9.65808 80.9791 10.5646 78.8986C10.9017 78.1199 11.4017 77.4226 11.7155 76.6322C11.7736 76.4928 11.8785 76.3766 11.9947 76.3068C12.1226 76.2255 12.2613 76.1906 12.4124 76.2022H15.3067C15.7948 76.2022 15.8533 76.3417 15.6324 76.8066C15.0513 77.9805 14.4461 79.1427 13.8766 80.3282C12.7724 82.641 11.4827 84.861 10.425 87.2087C9.78579 88.6383 9.07678 90.0562 8.34456 91.4509C8.23996 91.6368 8.17004 91.8461 8.15842 92.0669C8.1468 92.2877 8.18262 92.4969 8.26398 92.6945C9.31 95.5071 10.2047 98.3779 11.2275 101.214C12.8081 105.595 14.2952 110.012 15.8526 114.394C16.2362 115.486 16.5973 116.59 16.9808 117.683C17.0157 117.799 17.0612 117.915 17.1193 118.02C17.2471 118.252 17.4219 118.252 17.5381 118.02C17.5962 117.915 17.6431 117.799 17.6664 117.683C18.015 115.998 18.5722 114.359 19.0023 112.697C19.8042 109.733 20.6179 106.758 21.4198 103.794C21.4431 103.701 21.4783 103.608 21.5015 103.515C21.5713 103.166 21.5018 103.062 21.1531 103.073C20.8044 103.073 20.3857 103.12 20.0022 103.131C19.4443 103.131 19.3044 103.027 19.2928 102.457C19.2696 101.679 19.2696 100.9 19.2928 100.121C19.2928 99.6099 19.3631 99.5401 19.8978 99.5285C20.5951 99.5169 21.2917 99.5285 22.0123 99.5285C22.6515 99.5285 22.6748 99.482 22.884 98.8776C23.314 97.6573 23.4651 96.3788 23.7091 95.1236C23.8951 94.1589 24.2675 93.264 24.5116 92.3342C25.4762 88.6499 26.4758 84.9772 27.4637 81.3045C27.8473 79.8749 28.2305 78.4454 28.6373 77.0507C28.893 76.179 28.9168 76.179 29.7769 76.179H34.6347C35.3088 76.179 35.3083 76.179 35.3316 76.8763V77.8991L35.3554 110.221V122.401C35.3554 122.739 35.1928 122.89 34.8674 122.878H28.9279C28.4746 122.878 28.3936 122.785 28.3819 122.309V118.508C28.3819 117.613 28.417 116.706 28.3241 115.812C28.2311 114.917 28.4282 114.068 28.3933 113.185C28.3119 110.709 28.3933 108.234 28.3933 105.758C28.3468 105.038 28.3349 104.305 28.3581 103.573C28.4046 103.131 28.2652 103.015 27.8235 103.015H25.1392C25.0811 103.015 25.0112 103.015 24.9531 103.015C24.895 103.027 24.8376 103.062 24.7794 103.097C24.733 103.131 24.6861 103.19 24.6512 103.248C24.6163 103.306 24.6049 103.364 24.5933 103.434C24.0935 105.351 23.5469 107.269 23.0122 109.187C22.5125 111.011 21.9897 112.836 21.5015 114.661C21.0018 116.532 20.5133 118.415 20.0136 120.286C19.9206 120.635 19.8279 120.995 19.7116 121.332C19.3513 122.39 19.4092 123.482 19.4324 124.575C19.4324 125.284 19.3974 125.342 18.7117 125.342C16.9916 125.342 15.2832 125.365 13.5747 125.342C12.7378 125.342 12.6678 125.237 12.6678 124.412V123.32C12.6678 123.11 12.6105 122.925 12.3432 122.925C12.041 122.925 11.9365 122.727 11.8551 122.483C11.2508 120.693 10.646 118.903 10.03 117.113C9.03051 114.405 8.1818 111.674 7.13578 108.896L7.18231 108.931Z" fill="white"/>
<path d="M27.3706 33.6522V40.3816C27.3706 41.6949 27.3591 43.0083 27.2662 44.3216C27.1964 45.786 26.7427 47.204 25.9291 48.4244C25.778 48.6684 25.5805 48.8892 25.348 49.0636C24.8134 49.4239 24.453 49.2728 24.3832 48.6452C24.2786 47.8549 24.2099 47.0529 24.1982 46.251C24.1982 44.1241 24.1981 41.9739 24.3027 39.8353C24.4189 37.6271 24.3603 35.4072 24.3719 33.1989C24.3719 31.1301 24.3368 29.0613 24.3832 26.9925C24.4181 25.3189 24.5002 23.6453 24.5932 21.9716C24.6513 20.7861 24.6858 19.589 24.8021 18.4035C25.0229 16.0907 25.1969 13.7546 25.9291 11.5231C26.6962 9.12883 27.9283 6.92054 29.5555 5.02608C31.0315 3.3292 32.9035 2.14372 34.949 1.19068C36.2042 0.656046 37.5291 0.272516 38.8773 0.040067C39.0865 0.00519959 39.3068 -0.00645692 39.5276 0.00516554C40.9339 0.00516554 42.329 -0.00645692 43.7237 0.00516554C45.839 0.0400329 47.9426 0.260868 50.023 0.667654C52.4754 1.14417 54.9505 1.59743 57.4028 2.09719C58.7162 2.36451 60.0294 2.66671 61.3311 2.98051C63.3418 3.45703 65.3532 3.96845 67.3523 4.46822C69.4095 4.97961 71.4661 5.4561 73.5233 5.96749C76.3708 6.67646 79.2653 7.23436 82.1244 7.87359C85.2973 8.57094 88.4704 9.33804 91.6085 10.14C93.0497 10.5003 94.5132 10.8373 95.9544 11.186C97.1167 11.4765 98.2789 11.7904 99.4412 12.0809C101.824 12.662 104.23 13.1851 106.612 13.7662C109.367 14.4519 112.145 15.0214 114.9 15.7536C117.341 16.4044 119.816 16.9739 122.268 17.5783C124.233 18.0665 126.196 18.5663 128.149 19.066C129.927 19.5077 131.694 19.961 133.472 20.391C135.25 20.821 137.075 21.2162 138.877 21.6578C140.516 22.053 142.143 22.5062 143.781 22.8782C145.699 23.3198 147.604 23.8544 149.522 24.3193C151.161 24.7261 152.788 25.1446 154.404 25.5978C155.822 25.9814 157.263 26.2719 158.693 26.609C159.739 26.8531 160.808 27.1088 161.854 27.3645C163.284 27.6899 164.725 28.0037 166.143 28.3524C167.991 28.794 169.827 29.3054 171.687 29.7122C173.5 30.1189 175.244 30.7233 177.08 31.0371C177.731 31.1534 178.37 31.4091 179.021 31.5718C181.287 32.1413 183.553 32.7108 185.82 33.2686C187.807 33.7568 189.783 34.2798 191.77 34.7098C194.002 35.1979 196.233 35.6977 198.453 36.2323C199.988 36.5578 201.475 37.0459 202.905 37.6968C203.428 37.9525 203.892 38.3128 204.276 38.7545C204.415 38.8939 204.52 39.0683 204.578 39.2659C204.636 39.4518 204.66 39.661 204.637 39.8586C204.614 40.0562 204.543 40.2538 204.438 40.4165C204.334 40.5792 204.195 40.7303 204.032 40.8465C202.695 41.8693 201.149 42.5085 199.638 43.1826C197.221 44.2751 194.723 45.1817 192.247 46.1347C190.399 46.8437 188.54 47.5062 186.68 48.1803C184.82 48.8544 183.019 49.5517 181.148 50.1328C179.277 50.714 177.416 51.3067 175.557 51.8995C173.442 52.5736 171.326 53.2825 169.211 53.9682C167.84 54.4099 166.434 54.7819 165.074 55.2584C163.865 55.6884 162.644 56.0254 161.412 56.3974C159.111 57.0947 156.798 57.8037 154.462 58.3732C152.288 58.9078 150.104 59.4308 147.931 59.9538C145.304 60.5814 142.677 61.1974 140.051 61.825C137.714 62.3945 135.355 62.8827 132.984 63.3011C131.206 63.6033 129.427 63.9636 127.626 64.103C126.684 64.1728 125.754 64.2541 124.813 64.2425C124.499 64.2425 124.198 64.1844 123.907 64.0798C123.733 64.0217 123.57 63.952 123.57 63.7544C123.57 63.5568 123.721 63.5219 123.872 63.4522C124.488 63.1849 125.138 62.964 125.789 62.7897C128.346 62.1156 130.903 61.4531 133.472 60.779C135.494 60.2444 137.54 59.7795 139.574 59.2565L145.722 57.6758C147.163 57.3039 148.593 56.8274 150.034 56.4904C151.812 56.0603 153.544 55.4443 155.299 54.9329C157.217 54.375 159.123 53.7707 161.017 53.1314C163.667 52.2133 166.328 51.3765 168.978 50.5164C170.582 49.9934 172.186 49.4936 173.814 49.017C176.533 48.2035 179.23 47.2853 181.927 46.3672C185.169 45.2747 188.411 44.1705 191.596 42.9269C193.234 42.2877 194.885 41.6833 196.535 41.0673C197.267 40.8 197.977 40.4746 198.651 40.1026C198.79 40.0213 198.953 39.9399 198.953 39.7424C198.953 39.5448 198.756 39.4053 198.582 39.3472C197.954 39.1613 197.326 38.9869 196.71 38.8126C193.572 37.9293 190.365 37.383 187.203 36.6508C184.879 36.1162 182.565 35.5234 180.252 34.9655C177.94 34.4077 175.616 33.8381 173.303 33.2686C171.083 32.7224 168.862 32.1645 166.643 31.6299C164.318 31.072 161.994 30.5606 159.669 30.0144C157.6 29.5378 155.531 29.0729 153.474 28.5499C151.359 28.0037 149.22 27.5156 147.128 26.9228C145.815 26.5509 144.455 26.3185 143.13 25.9814C141.282 25.5281 139.446 25.04 137.598 24.5983C135.204 24.0288 132.81 23.5058 130.404 22.9479C128.858 22.5876 127.312 22.1924 125.766 21.8089C123.802 21.3208 121.838 20.8675 119.874 20.3445C118.2 19.9028 116.515 19.496 114.83 19.0892C112.586 18.5662 110.332 18.0432 108.077 17.5202C106.869 17.2413 105.683 16.9507 104.498 16.6602C102.103 16.079 99.7209 15.5212 97.3266 14.9168C93.7702 14.0335 90.2254 13.0921 86.6689 12.232C84.6118 11.7322 82.5304 11.3254 80.4616 10.8257C77.0097 10.0237 73.5583 9.24502 70.1296 8.36172C67.5843 7.71086 65.0389 7.06002 62.482 6.42078C60.7735 6.00238 59.0534 5.64205 57.3449 5.22364C54.5556 4.54954 51.7199 4.09628 48.9073 3.57327C48.3611 3.46867 47.8033 3.43383 47.257 3.38734C45.7926 3.25949 44.3278 3.09677 42.8634 3.08515C41.3409 3.03866 39.8295 3.15487 38.3302 3.4338C36.9587 3.67788 35.6453 4.17765 34.4598 4.89825C32.6932 6.00238 31.2181 7.52492 30.1604 9.3264C28.9633 11.3603 28.2187 13.6267 27.9631 15.9744C27.626 18.5546 27.5912 21.1464 27.475 23.7498C27.3239 26.9693 27.4406 30.1771 27.3592 33.6522H27.3706Z" fill="white"/>
<path d="M106.474 113.173L106.659 113.208C106.798 113.045 106.962 112.906 107.078 112.72C107.798 111.72 108.426 110.651 108.961 109.535C110.274 106.874 111.018 103.968 111.157 101.004C111.331 98.2615 110.994 95.507 110.181 92.8803C109.472 90.6372 108.437 88.5103 107.1 86.5693C107.031 86.4298 106.939 86.302 106.822 86.1974C106.706 86.0928 106.566 86.0114 106.415 85.9649C106.438 95.0769 106.381 104.131 106.474 113.161V113.173ZM99.4653 89.4865C99.5118 88.487 99.4188 87.441 99.5118 86.3949C99.5234 86.2439 99.523 86.0695 99.3836 85.9997C99.2441 85.93 99.1278 86.0812 99.0465 86.1974C97.8029 87.8361 96.8036 89.6493 96.083 91.5786C94.328 96.2043 94.1654 101.272 95.5949 106.002C96.3039 108.303 97.3265 110.477 98.6515 112.476C98.8142 112.72 98.9998 112.941 99.1974 113.15C99.3253 113.278 99.4999 113.243 99.5232 113.057C99.5464 112.813 99.5575 112.569 99.5459 112.336C99.511 106.455 99.6164 100.563 99.4653 94.6934C99.4653 94.2053 99.5583 93.7171 99.5118 93.2406C99.4188 91.997 99.4647 90.7534 99.4414 89.4749L99.4653 89.4865ZM102.999 76.2253H105.683C106.415 76.2253 106.427 76.2253 106.427 77.004C106.427 77.8292 106.45 78.6544 106.404 79.4796C106.404 79.6888 106.439 79.9096 106.532 80.1072C106.625 80.3047 106.764 80.4675 106.95 80.5837C108.681 82.0249 110.146 83.7566 111.285 85.7092C112.354 87.5223 113.191 89.4633 113.796 91.4856C114.365 93.4382 114.725 95.4604 114.841 97.4944C114.899 98.5404 114.958 99.5748 114.934 100.621C114.865 102.736 114.516 104.828 113.923 106.85C113.249 109.21 112.261 111.465 110.971 113.545C109.925 115.265 108.659 116.846 107.206 118.241C106.962 118.438 106.775 118.694 106.659 118.973C106.543 119.252 106.484 119.577 106.519 119.879C106.589 120.67 106.555 121.483 106.543 122.285C106.543 122.808 106.462 122.889 105.951 122.889H100.082C99.7097 122.889 99.5581 122.75 99.5697 122.378C99.5697 121.46 99.5581 120.577 99.5697 119.682C99.5813 119.496 99.5464 119.298 99.4766 119.124C99.4069 118.949 99.2906 118.787 99.1395 118.671C96.9778 116.625 95.1881 114.207 93.8515 111.534C92.945 109.733 92.2357 107.838 91.7359 105.886C90.9572 102.957 90.9109 99.9816 91.0504 96.9946C91.1433 96.0532 91.2949 95.1118 91.5157 94.1936C92.0038 91.567 92.9338 89.0448 94.2704 86.732C95.2931 84.9421 96.3852 83.1871 97.8729 81.746C98.3145 81.3276 98.6984 80.8626 99.1168 80.4326C99.2214 80.328 99.3019 80.2118 99.3484 80.0723C99.3949 79.9329 99.4304 79.7934 99.4187 79.6539C99.4071 78.7822 99.4187 77.8989 99.4187 77.0272C99.4187 76.2718 99.453 76.202 100.22 76.202H102.999V76.2253Z" fill="white"/>
<path d="M81.8102 108.838C81.6242 109.21 81.5779 109.628 81.6592 110.035C81.7638 110.779 81.7638 111.535 81.6592 112.278C81.6127 112.743 81.6127 113.208 81.6592 113.661C81.8568 115.742 81.7061 117.834 81.7409 119.926C81.7526 120.681 81.7526 121.448 81.7409 122.192C81.7409 122.843 81.6705 122.901 81.0429 122.901L75.3248 122.924C74.7669 122.924 74.6747 122.843 74.663 122.239C74.6514 120.972 74.6392 119.705 74.6392 118.45V102.399C74.6392 95.2514 74.6389 88.1036 74.604 80.9558V77.7596C74.604 77.4458 74.5813 77.132 74.5348 76.8182C74.4651 76.423 74.6629 76.2138 75.058 76.2138C77.092 76.2022 79.1145 76.1906 81.1485 76.1906C81.5901 76.1906 81.6127 76.2371 81.6127 76.7949V85.2561C81.6127 85.384 81.5553 85.5815 81.7296 85.628C81.962 85.6977 81.9853 85.4653 82.0667 85.3259C83.0546 83.3268 84.042 81.3277 85.0415 79.3286C85.4832 78.4337 85.9134 77.5388 86.3434 76.6438C86.3899 76.5044 86.4825 76.3882 86.5988 76.2952C86.715 76.2138 86.8551 76.1674 87.0062 76.1674C88.0174 76.1674 89.0392 76.1673 90.0503 76.1906C90.4571 76.1906 90.562 76.3649 90.3761 76.7485C90.0739 77.3528 89.7373 77.9456 89.4351 78.5499C88.0986 81.2347 86.7731 83.9312 85.4365 86.6276C84.7275 88.0571 84.0417 89.5099 83.263 90.9046C83.0422 91.2417 82.9151 91.6368 82.8918 92.0436C82.8686 92.4504 82.949 92.8572 83.1234 93.2175C83.7045 94.6238 84.1817 96.0766 84.6931 97.5178C85.2975 99.2263 85.9013 100.946 86.5057 102.655C87.1914 104.573 87.8894 106.479 88.5635 108.396C89.6676 111.5 90.7599 114.603 91.8641 117.718C92.05 118.252 92.0615 118.252 92.6427 118.241C92.9797 118.241 93.3169 118.217 93.654 118.241C94.1421 118.276 94.3392 118.461 94.3043 118.915C94.1648 120.856 94.3043 122.797 94.2578 124.738C94.2578 125.121 94.1073 125.272 93.747 125.261C93.1427 125.261 92.5377 125.226 91.9333 125.226C90.7478 125.226 89.5625 125.237 88.3887 125.226C87.8153 125.226 87.5283 124.943 87.5283 124.377V123.68C87.5283 123.32 87.5746 122.948 87.0516 122.843C86.7727 122.785 86.7156 122.471 86.6226 122.216C86.1461 120.867 85.669 119.519 85.1925 118.171C84.623 116.579 84.0535 114.975 83.4957 113.371C83.0191 112.023 82.5429 110.674 82.078 109.326C82.0315 109.14 82.0075 108.943 81.8215 108.815L81.8102 108.838Z" fill="white"/>
<path d="M63.7485 90.1373C63.272 91.3926 63.0632 92.6595 62.7145 93.8914C62.2264 95.6116 61.7618 97.3433 61.2969 99.075C61.1807 99.5283 61.2154 99.5631 61.6919 99.5748C62.2149 99.5864 62.7497 99.5748 63.2843 99.5748C63.8887 99.5748 63.9119 99.5399 63.9119 98.9704V90.672C63.9119 90.5093 63.9702 90.3349 63.761 90.1373H63.7485ZM70.9081 108.048V121.96C70.9081 122.866 70.8846 122.924 70.0013 122.924C68.1649 122.924 66.3291 122.901 64.5044 122.878C64.0395 122.878 63.9692 122.808 63.946 122.32C63.9228 121.843 63.9463 121.344 63.9346 120.856C63.9346 118.275 64.0041 115.695 63.8995 113.127C63.7716 109.989 63.8654 106.862 63.8189 103.724V103.282C63.8189 103.038 63.702 102.945 63.4579 102.945H60.7271C60.5993 102.945 60.4594 102.98 60.3548 103.062C60.2502 103.143 60.1806 103.271 60.1573 103.399C60.0063 103.98 59.8434 104.572 59.6806 105.154C58.8554 108.21 58.0193 111.279 57.1825 114.347C56.52 116.753 55.8451 119.147 55.1826 121.565C55.1013 121.843 55.0441 122.134 54.9976 122.413C54.9976 122.494 54.9737 122.564 54.9272 122.634C54.8924 122.703 54.8344 122.762 54.7763 122.808C54.7182 122.855 54.6488 122.889 54.5674 122.913C54.4977 122.936 54.4161 122.936 54.3348 122.913C53.6839 122.889 53.0334 122.913 52.3826 122.889C51.9525 122.878 51.871 122.762 51.9524 122.343C52.0337 121.983 52.1384 121.634 52.243 121.297C53.0449 118.601 53.684 115.869 54.4744 113.161C55.3809 110.012 56.2058 106.85 57.0542 103.689C57.2053 103.131 57.147 103.062 56.5775 103.038C56.1708 103.027 55.7528 103.038 55.3461 103.038C55.0323 103.038 54.8342 102.934 54.8342 102.585C54.8342 101.713 54.8347 100.842 54.8115 99.9583C54.8115 99.5748 55.0555 99.5399 55.3461 99.5283H57.5196C58.2402 99.5283 58.2167 99.5051 58.4026 98.8426C59.0186 96.4716 59.5069 94.0773 60.2391 91.7296C61.0643 89.0913 61.6684 86.395 62.3774 83.7218C62.9585 81.5484 63.5394 79.3634 64.1321 77.19C64.1786 77.0273 64.2488 76.8877 64.3069 76.7134C64.3418 76.5507 64.4342 76.3996 64.5737 76.295C64.7131 76.1904 64.8876 76.1556 65.0504 76.1788C66.7821 76.2021 68.5257 76.1904 70.2691 76.202C70.7805 76.202 70.7923 76.2253 70.7923 76.7483V79.8864C70.7923 83.7218 70.7221 87.5688 70.815 91.4042C70.9313 96.7273 70.7925 102.039 70.932 108.036L70.9081 108.048Z" fill="white"/>
<path d="M142.259 56.6533C141.724 56.6068 141.19 56.4906 140.679 56.3047C138.389 55.6538 136.122 54.8751 133.914 53.9685C131.113 52.8411 128.37 51.5859 125.685 50.2029C123.826 49.2266 122.025 48.1457 120.281 46.9719C118.387 45.7166 116.562 44.3684 114.714 43.0435C114.261 42.718 113.784 42.439 113.319 42.1252C112.482 41.579 111.565 41.7069 110.646 41.8231C110.1 41.8928 109.554 41.9858 109.007 42.0671C107.52 42.288 106.194 41.8463 104.916 41.1374C103.73 40.4865 102.568 39.7892 101.371 39.1732C100.511 38.7315 99.5819 38.4293 98.6289 38.2898C97.7107 38.162 96.9435 38.6386 96.2113 39.1267C94.468 40.3006 92.8515 41.6371 91.2128 42.9621C89.574 44.2871 87.9236 45.6585 86.2732 47.0067C84.402 48.5292 82.531 50.075 80.6481 51.5743C77.8936 53.7709 75.1394 55.9908 72.257 58.0248C70.8042 59.0592 69.3282 60.0704 67.6546 60.7677C66.8759 61.0583 66.0622 61.1745 65.237 61.1164C62.3779 61.035 59.6004 60.4423 56.7994 59.9425C53.3824 59.3265 50.0003 58.5245 46.6763 57.5483C44.2588 56.8277 41.8299 56.0955 39.5519 54.9332C39.1334 54.6775 38.6803 54.5148 38.1921 54.4451C38.0062 54.4218 37.8083 54.4451 37.6223 54.5032C37.4364 54.5613 37.2729 54.6543 37.1218 54.7821C33.7978 57.6645 30.0558 59.9309 26.2553 62.0811C23.3961 63.6966 20.4558 65.1609 17.434 66.451C15.3536 67.346 13.2377 68.148 11.0643 68.8221C10.0532 69.1359 9.06547 69.5194 8.05431 69.8565C6.43879 70.4144 4.77646 70.8211 3.07958 71.0768C2.3125 71.1814 1.87162 70.6584 2.12731 69.9029C2.34814 69.1475 2.76632 68.4734 3.34744 67.9504C3.91694 67.4274 4.62564 67.0671 5.39272 66.916C6.5201 66.6603 7.67064 66.5324 8.78639 66.2651C9.90215 66.0094 10.972 65.684 12.0529 65.3586C13.8893 64.7891 15.725 64.1963 17.5498 63.5803C20.6065 62.5343 23.5817 61.2675 26.4641 59.803C29.7997 58.1526 32.9609 56.1652 35.913 53.8872C36.8312 53.1782 37.7851 52.5273 38.7846 51.9346C39.11 51.7254 39.4813 51.6092 39.8765 51.6092C40.26 51.6092 40.6443 51.7254 40.9581 51.9462C41.9577 52.539 42.9798 53.062 44.0374 53.5385C45.7924 54.294 47.5827 54.9448 49.3958 55.4911C50.7556 55.9211 52.1151 56.3512 53.475 56.7115C55.137 57.1415 56.7639 57.6296 58.4259 58.0364C60.2971 58.5013 62.169 58.9313 64.0634 59.28C64.5632 59.373 65.0389 59.5241 65.5503 59.5822C66.7358 59.7333 67.7355 59.3149 68.642 58.6175C70.0135 57.5599 71.3855 56.4906 72.7337 55.3865C75.9532 52.7598 79.1147 50.0634 82.2179 47.2856C84.9608 44.8333 87.7149 42.4158 90.5159 40.0332C92.0965 38.685 93.6423 37.3019 95.4089 36.1862C97.2685 35.0239 99.1634 34.8147 101.104 36.1048C102.557 37.0579 103.929 38.1388 105.463 38.9523C106.056 39.2661 106.672 39.5451 107.299 39.7776C108.287 40.1495 109.193 39.9403 110.099 39.5451C110.704 39.2894 111.309 39.0337 111.913 38.7896C112.343 38.592 112.819 38.5223 113.284 38.5688C113.749 38.6153 114.202 38.7896 114.586 39.057C115.678 39.7776 116.701 40.6028 117.736 41.3815C121.269 44.0779 124.965 46.5418 128.812 48.7617C131.694 50.4121 134.658 51.9346 137.68 53.3177L141.887 55.2587C142.19 55.3633 142.445 55.5608 142.619 55.8165C142.724 56.0025 142.922 56.1652 142.806 56.4093C142.747 56.5255 142.665 56.6068 142.549 56.6533C142.433 56.6998 142.306 56.6998 142.189 56.6533H142.259Z" fill="white"/>
<path d="M45.6533 94.6702C45.9322 94.9724 46.2458 95.2397 46.5829 95.4722C48.4541 96.9831 49.9304 98.924 50.8834 101.144C51.9178 103.515 52.359 106.095 52.1614 108.675C52.0452 109.907 51.8013 111.116 51.4293 112.301C50.4879 115.358 48.6626 117.776 46.2219 119.74C44.7459 120.96 43.0146 121.832 41.1666 122.297C40.4693 122.46 39.7599 122.634 39.051 122.797C38.8418 122.843 38.6212 122.866 38.412 122.878C38.3538 122.89 38.2956 122.89 38.2258 122.878C38.1677 122.866 38.11 122.831 38.0635 122.785C38.017 122.738 37.9821 122.692 37.9704 122.634C37.9472 122.576 37.9475 122.506 37.9591 122.448C38.0056 121.599 37.9007 120.751 37.9239 119.914C37.982 118.996 37.9701 118.066 37.8887 117.148C37.8306 116.613 37.9817 116.055 37.8887 115.486C37.8422 115.161 38.156 115.079 38.4233 115.01C39.3066 114.777 40.1558 114.428 40.9578 113.963C42.8057 112.859 43.8741 111.186 44.339 109.094C44.6295 107.931 44.6184 106.723 44.3163 105.56C43.8862 104.038 43.1894 102.62 41.9225 101.574C41.1671 100.9 40.2832 100.377 39.3302 100.028C39.214 99.9933 39.1094 99.9236 39.0396 99.8306C38.9699 99.7376 38.9238 99.6214 38.9238 99.4936C38.9006 99.3541 38.8884 99.203 38.9 99.0635C38.9697 97.4596 38.8654 95.8557 38.8887 94.2518C38.8887 93.5545 38.9236 93.5429 39.5629 93.3918C42.3174 92.7409 44.2463 91.1602 45.0018 88.336C45.2459 87.3945 45.3038 86.4183 45.1528 85.4652C45.0133 84.5006 44.6764 83.5824 44.1767 82.7572C43.6769 81.932 43.0148 81.2114 42.2244 80.6535C41.4341 80.0956 40.5508 79.6889 39.6094 79.4913C38.9818 79.3983 38.3654 79.375 37.7378 79.4099C37.1334 79.3867 37.1101 79.3866 37.1101 78.8055C37.1101 78.2244 37.1101 77.6317 37.1101 77.0506C37.1101 76.7019 37.2503 76.5159 37.6106 76.4927C39.2494 76.3764 40.8643 76.2254 42.4798 76.7135C44.4091 77.3179 46.1182 78.4918 47.3967 80.084C48.6635 81.6647 49.4421 83.6056 49.6281 85.6279C49.7559 87.255 49.5115 88.8939 48.9187 90.4048C48.2446 92.1017 47.1288 93.5777 45.676 94.6818L45.6533 94.6702Z" fill="white"/>
</svg>
