<svg width="600" height="699" viewBox="0 0 600 699" fill="none" xmlns="http://www.w3.org/2000/svg">
<path d="M299.974 600.9C385.224 600.9 465.011 565.559 522.689 501.874C568.873 450.841 596.186 384.861 599.619 316.024C603.874 230.155 572.363 148.743 512.143 88.4217C455.477 31.736 380.141 0.522873 299.968 0.522873C219.795 0.522873 144.464 31.7297 87.7912 88.4217C50.2495 125.989 23.9488 171.553 10.3558 221.961C3.43293 260.603 0 299.82 0 339.1V682.521C6.92923 688.034 14.0039 693.37 21.2303 698.504L49.1746 670.54C112.233 607.45 210.779 600.9 299.955 600.9H299.974Z" fill="#ECD456"/>
<path d="M277.722 232.273H402.156V309.206C402.156 321.957 406.439 332.698 415.012 341.437C423.579 350.168 434.503 354.531 447.779 354.531C463.543 354.531 476.399 349.611 486.354 339.771C496.31 329.937 501.285 317.102 501.285 301.304V286.751C491.878 288.139 481.096 286.336 468.931 281.345C453.445 274.973 445.144 264.99 444.046 251.403C442.657 236.993 447.082 225.901 457.315 218.135C466.166 211.206 477.911 207.738 492.569 207.738C504.185 207.738 515.446 209.961 526.377 214.389C537.302 218.829 545.106 224.786 549.809 232.273H600V285.915H553.543C553.814 331.104 541.372 362.712 516.208 380.733C494.088 396.809 457.309 405.269 405.877 406.098C408.087 405.82 401.11 405.684 384.933 405.684C368.756 405.684 351.816 404.154 334.121 401.114C311.167 396.952 296.095 391.409 288.911 384.48C264.026 398.897 234.159 406.105 199.318 406.105C175.265 406.105 152.447 401.515 130.882 392.317C102.941 380.623 88.9797 364.177 88.9797 343.012V232.28H211.754L212.168 327.091C212.168 336.244 215.346 343.31 221.709 348.302C228.067 353.293 235.671 355.789 244.522 355.789C252.539 355.789 259.794 353.708 266.3 349.553C272.792 345.391 276.597 339.576 277.708 332.089V232.286L277.722 232.273Z" fill="#DC3517"/>
</svg>
