<svg width="555" height="78" viewBox="0 0 555 78" fill="none" xmlns="http://www.w3.org/2000/svg">
<path d="M226.015 77.1135H217.527L215.041 73.2648L212.545 77.1135H204.057L191.155 58.6497H201.722L208.869 70.3971L210.677 67.7055L205.177 58.6497H213.394L215.041 61.8696L216.679 58.6497H224.92L219.387 67.7055L221.194 70.3971L228.35 58.6497H238.943L226.015 77.1135Z" fill="white"/>
<path d="M238.943 77.1051V58.6497H263.924V63.7772H247.724V64.8717H263.924V69.9907H247.724V71.9861H263.924V77.1135H238.943V77.1051Z" fill="white"/>
<path d="M266.096 77.1051V58.6497H292.162V63.7772H275.249V64.8717H292.162V69.9907H275.249V71.9861H292.162V77.1135H266.096V77.1051Z" fill="white"/>
<path d="M314.229 67.8816L324.616 77.1135H312.403L303.365 67.9911V67.7469L312.446 58.6497H324.746L314.247 67.8816H314.229ZM294.335 77.1135V58.6497H303.312V77.1135H294.335Z" fill="white"/>
<path d="M325.832 77.1051V58.6497H350.812V63.7772H334.603V64.8717H350.812V69.9907H334.603V71.9861H350.812V77.1135H325.832V77.1051Z" fill="white"/>
<path d="M381.146 77.1135L361.215 69.1557V76.7777H351.898V57.5636H353.062L372.993 65.2716V57.8994H382.309V77.1135H381.146Z" fill="white"/>
<path d="M402.809 67.789C402.809 67.2752 402.709 66.8035 402.501 66.3654C402.293 65.9274 401.952 65.5484 401.47 65.2451C400.987 64.9419 400.347 64.6892 399.54 64.5208C398.733 64.3523 397.727 64.2596 396.537 64.2596H391.996V71.4952H396.537C397.735 71.4952 398.733 71.4025 399.54 71.2341C400.347 71.0656 400.987 70.8129 401.47 70.4928C401.952 70.1727 402.293 69.7853 402.501 69.3304C402.709 68.8755 402.809 68.3617 402.809 67.7974V67.789ZM411.634 67.7047C411.634 69.4568 411.268 70.9393 410.52 72.1354C409.779 73.3315 408.781 74.3002 407.534 75.0414C406.278 75.7827 404.838 76.3049 403.208 76.6334C401.578 76.9535 399.873 77.1135 398.076 77.1135H383.395V58.6497H398.076C399.831 58.6497 401.52 58.7845 403.167 59.0624C404.805 59.332 406.253 59.8206 407.5 60.5113C408.756 61.2104 409.755 62.137 410.503 63.3078C411.252 64.4786 411.626 65.9527 411.626 67.7216L411.634 67.7047Z" fill="white"/>
<path d="M555 48.3857V60.7765H546.54V73.8552H532.584V60.7765H502.729V49.7532L533.597 11.8929H546.54V48.3857H555ZM532.584 30.2651L518.038 48.3857H532.584V30.2651ZM477.066 10.8611C489.927 10.8611 499.225 17.2703 499.225 28.2937C499.225 41.2801 488.233 51.8001 470.125 62.3117H499.474V73.8468H452.359V62.3117C468.856 50.1726 485.177 39.3171 485.177 29.1494C485.177 23.7636 481.283 21.2888 476.634 21.2888C471.727 21.2888 466.398 24.2837 466.821 34.1913H453.031C452.608 19.4935 462.844 10.8611 477.049 10.8611H477.066ZM434.442 11.8845H448.482L446.622 33.5956H436.301L434.442 11.8845Z" fill="white"/>
<path d="M184.107 56.4754V16.8799H163.268C163.268 16.8799 163.97 31.1597 162.875 33.9414C161.012 39.9752 146.005 39.1168 146.005 32.0842C146.005 23.9042 161.288 25.3075 161.288 25.3075L159.759 16.8634C159.759 16.8634 124.431 13.6195 122.734 32.2658C122.358 45.2662 145.805 50.6892 163.143 44.2922V59.7358L184.099 56.4754H184.107ZM258.841 39.1663C258.641 38.9517 254.822 39.8927 252.056 39.2241C249.007 38.4895 248.806 36.2278 248.806 33.2315V17.1688H225.919V32.3236C225.919 34.1065 226.07 38.4647 219.653 38.4647C216.761 38.4647 213.47 38.2253 213.47 34.1147V17.1688H190.709L190.725 36.4754C190.725 47.4865 209.417 50.846 228.627 43.6649C228.627 43.6649 237.618 50.681 260.095 45.5221C260.095 45.5221 259.117 39.4304 258.85 39.158L258.841 39.1663ZM299.359 20.3797C299.501 18.0107 305.475 17.3999 305.842 20.1403C305.842 20.1403 299.2 22.9385 299.359 20.3797ZM350.136 37.5485C349.56 37.3586 345.357 38.2913 340.653 36.6818C333.124 34.1065 331.971 24.1354 340.903 18.44L332.539 11.4486C317.791 17.0615 314.749 17.466 313.371 17.7796C312.686 15.7986 309.485 12.4722 302.692 12.8684C298.999 13.083 293.509 15.13 291.922 18.8609C290.852 21.3702 291.495 24.1931 293.977 26.1246C297.553 28.9063 304.38 28.2129 304.38 28.2129C302.233 37.111 283.516 43.1944 283.516 33.6607V17.3009H261.289V36.2938C261.289 45.7862 273.079 48.2377 284.652 47.4866C300.845 46.43 309.961 37.2513 313.279 27.338L321.183 25.5386C321.183 25.5386 310.371 39.4635 323.865 45.7945C331.561 49.4098 345.725 46.6199 351.407 43.6236C351.407 43.6236 350.462 37.664 350.136 37.5567V37.5485ZM284.143 6.4796C284.143 10.2188 279.989 12.8601 272.72 12.8601C265.45 12.8601 261.289 10.2683 261.289 6.4796C261.289 2.24518 267.573 0 272.712 0C277.85 0 284.134 2.1874 284.134 6.4796H284.143ZM381.245 35.4684C381.245 31.1267 396.41 29.6739 396.41 29.6739L396.193 25.3322C393.979 25.2744 385.356 25.5881 385.356 23.3017C385.356 20.3219 398.558 19.5955 403.187 19.4387L402.234 12.4886C394.254 12.5134 358.417 12.6042 356.955 22.1874C356.161 27.3628 366.48 28.5844 366.48 28.5844V28.8237C366.48 28.8237 352.968 31.2918 352.968 37.7548C352.968 50.9368 399.577 47.2472 411.634 43.962C411.634 43.962 410.465 38.1098 409.938 37.8374C409.454 37.5898 399.678 39.0177 391.907 38.8114C385.59 38.6463 381.245 37.6475 381.245 35.4684Z" fill="white"/>
<path d="M74.2624 37.5299C74.2624 37.5299 80.0462 33.9846 85.9899 28.9397C85.9899 28.9397 91.1086 31.8329 93.4574 35.2804C93.4574 35.2804 85.291 33.7808 74.2624 37.5299ZM92.7836 40.6676C90.3254 43.6016 80.7029 43.5691 81.3764 41.6538C82.1004 39.5918 91.6471 40.1053 92.7836 40.6676ZM117.181 38.2063C119.294 36.1281 119.168 33.6015 117.375 30.8549C114.731 26.7962 107.424 24.4164 105.681 21.1971C104.915 19.779 104.941 18.1001 106.086 16.0299L105.69 14.3266L81.048 16.9591C79.5915 20.1457 81.0733 22.6234 81.1828 22.9168C63.3771 41.3767 34.5092 41.5397 33.7431 35.0359C33.0191 28.9315 52.7609 27.5867 52.7609 27.5867L52.3737 21.5068C52.3737 21.5068 39.0806 22.5174 38.8786 18.5565C38.6681 14.4733 51.1111 13.1529 58.326 13.0714L56.4819 3.26692C33.1283 3.02242 11.3073 8.00209 9.30363 16.5352C8.69748 19.0944 10.4653 23.6014 20.0963 25.4841V25.81C20.0963 25.81 -0.13403 28.8989 0.000669682 37.3995C0.118532 44.9628 17.5708 48.3206 29.8959 48.4021C54.8659 48.5732 68.0326 40.5617 68.0326 40.5617C64.5388 49.8039 91.8828 50.9204 110.867 44.2863C111.768 43.9684 119.067 46.9758 123.495 48.8748C123.495 48.8748 126.332 42.3058 125.953 41.4093C125.608 40.5943 117.19 38.2145 117.19 38.2145L117.181 38.2063Z" fill="white"/>
</svg>
