<svg width="211" height="32" viewBox="0 0 211 32" fill="none" xmlns="http://www.w3.org/2000/svg">
<path d="M211 13.3732C210.998 16.9187 209.604 20.3185 207.123 22.8255C204.642 25.3325 201.278 26.7417 197.77 26.7433H14.3753C14.0136 26.7782 13.6503 26.7941 13.2869 26.7909C9.35666 26.7909 5.00925 27.0857 2.22702 29.9036L0.972359 31.1715C0.898688 31.246 0.804818 31.2967 0.702611 31.3173C0.59901 31.3398 0.491083 31.3301 0.39308 31.2893C0.295077 31.2486 0.211607 31.1788 0.153695 31.0891C0.0978409 30.9998 0.0674403 30.8967 0.0658592 30.7911V14.7077C0.0250825 14.2703 1.48863e-06 13.8234 1.48863e-06 13.3732C-0.000823033 11.6168 0.340875 9.87744 1.00563 8.25455C1.67039 6.63166 2.64514 5.15707 3.87416 3.91508C5.10317 2.67309 6.56236 1.68806 8.16831 1.01628C9.77425 0.344511 11.4955 -0.000831719 13.2336 1.50417e-06H197.77C199.507 0.000417715 201.227 0.346661 202.832 1.01895C204.437 1.69125 205.896 2.67643 207.124 3.91825C208.352 5.16007 209.326 6.63421 209.991 8.25651C210.655 9.8788 210.997 11.6175 210.997 13.3732H211Z" fill="#DD3618"/>
</svg>
