<svg width="211" height="32" viewBox="0 0 211 32" fill="none" xmlns="http://www.w3.org/2000/svg">
<path d="M211 13.3732C210.998 16.9187 209.604 20.3185 207.123 22.8255C204.642 25.3325 201.278 26.7417 197.77 26.7433H14.3753C14.0136 26.7782 13.6503 26.7941 13.2869 26.7909C9.35666 26.7909 5.00925 27.0857 2.22702 29.9036L0.972359 31.1715C0.898688 31.246 0.804818 31.2967 0.702611 31.3173C0.59901 31.3398 0.491083 31.3301 0.39308 31.2893C0.295077 31.2486 0.211607 31.1788 0.153695 31.0891C0.0978409 30.9998 0.0674403 30.8967 0.0658592 30.7911V14.7077C0.0250825 14.2703 1.48863e-06 13.8234 1.48863e-06 13.3732C-0.000823033 11.6168 0.340875 9.87744 1.00563 8.25455C1.67039 6.63166 2.64514 5.15707 3.87416 3.91508C5.10317 2.67309 6.56236 1.68806 8.16831 1.01628C9.77425 0.344511 11.4955 -0.000831719 13.2336 1.50417e-06H197.77C199.507 0.000417715 201.227 0.346661 202.832 1.01895C204.437 1.69125 205.896 2.67643 207.124 3.91825C208.352 5.16007 209.326 6.63421 209.991 8.25651C210.655 9.8788 210.997 11.6175 210.997 13.3732H211Z" fill="#DD3618"/>
<path d="M25.44 8.576H27.616V14.096C27.616 14.3627 27.6107 14.6613 27.6 14.992C27.5893 15.3227 27.5787 15.648 27.568 15.968C27.5573 16.2773 27.5467 16.5493 27.536 16.784C27.5253 17.008 27.5147 17.1627 27.504 17.248H27.552L32.832 8.576H35.728V20H33.568V14.512C33.568 14.224 33.5733 13.9093 33.584 13.568C33.5947 13.216 33.6053 12.88 33.616 12.56C33.6373 12.24 33.6533 11.9627 33.664 11.728C33.6853 11.4827 33.7013 11.3227 33.712 11.248H33.648L28.352 20H25.44V8.576ZM47.9719 20H45.5559V15.072H41.0279V20H38.6119V8.576H41.0279V13.056H45.5559V8.576H47.9719V20ZM55.2463 20H52.8303V10.592H49.7263V8.576H58.3503V10.592H55.2463V20ZM66.6879 20H60.1119V8.576H66.6879V10.56H62.5279V13.072H66.3999V15.056H62.5279V18H66.6879V20ZM72.713 8.576C74.185 8.576 75.257 8.896 75.929 9.536C76.6117 10.1653 76.953 11.0347 76.953 12.144C76.953 12.6453 76.8783 13.1253 76.729 13.584C76.5797 14.032 76.329 14.4373 75.977 14.8C75.6357 15.152 75.1823 15.4293 74.617 15.632C74.0517 15.8347 73.353 15.936 72.521 15.936H71.481V20H69.065V8.576H72.713ZM72.585 10.56H71.481V13.952H72.281C72.7397 13.952 73.1343 13.8933 73.465 13.776C73.7957 13.6587 74.0517 13.472 74.233 13.216C74.4143 12.96 74.505 12.6293 74.505 12.224C74.505 11.6587 74.3503 11.2427 74.041 10.976C73.7317 10.6987 73.2463 10.56 72.585 10.56ZM85.307 20L84.475 17.28H80.315L79.483 20H76.875L80.907 8.528H83.867L87.915 20H85.307ZM83.067 12.592C83.0137 12.4107 82.9443 12.1813 82.859 11.904C82.7737 11.6267 82.6883 11.344 82.603 11.056C82.5177 10.768 82.4483 10.5173 82.395 10.304C82.3417 10.5173 82.267 10.784 82.171 11.104C82.0857 11.4133 82.0003 11.712 81.915 12C81.8403 12.2773 81.7817 12.4747 81.739 12.592L80.923 15.248H83.899L83.067 12.592ZM98.6739 20H95.9219L91.7779 14.208V20H89.3619V8.576H91.7779V14.112L95.8739 8.576H98.4499L94.2899 14.064L98.6739 20ZM104.512 20H102.096V10.592H98.9919V8.576H107.616V10.592H104.512V20ZM109.378 8.576H111.554V14.096C111.554 14.3627 111.548 14.6613 111.538 14.992C111.527 15.3227 111.516 15.648 111.506 15.968C111.495 16.2773 111.484 16.5493 111.474 16.784C111.463 17.008 111.452 17.1627 111.442 17.248H111.49L116.77 8.576H119.666V20H117.506V14.512C117.506 14.224 117.511 13.9093 117.522 13.568C117.532 13.216 117.543 12.88 117.554 12.56C117.575 12.24 117.591 11.9627 117.602 11.728C117.623 11.4827 117.639 11.3227 117.65 11.248H117.586L112.29 20H109.378V8.576ZM126.101 8.576C127.115 8.576 127.963 8.672 128.645 8.864C129.339 9.04533 129.856 9.34933 130.197 9.776C130.549 10.192 130.725 10.7573 130.725 11.472C130.725 11.8987 130.656 12.288 130.517 12.64C130.379 12.992 130.176 13.28 129.909 13.504C129.653 13.728 129.339 13.872 128.965 13.936V14.016C129.349 14.0907 129.696 14.224 130.005 14.416C130.315 14.608 130.56 14.8853 130.741 15.248C130.923 15.6107 131.013 16.0907 131.013 16.688C131.013 17.3813 130.843 17.9787 130.501 18.48C130.171 18.9707 129.691 19.3493 129.061 19.616C128.432 19.872 127.685 20 126.821 20H122.549V8.576H126.101ZM126.373 13.104C127.077 13.104 127.563 12.992 127.829 12.768C128.107 12.544 128.245 12.2187 128.245 11.792C128.245 11.3547 128.085 11.04 127.765 10.848C127.445 10.656 126.939 10.56 126.245 10.56H124.965V13.104H126.373ZM124.965 15.024V18H126.549C127.275 18 127.781 17.8613 128.069 17.584C128.357 17.296 128.501 16.9173 128.501 16.448C128.501 16.16 128.437 15.9093 128.309 15.696C128.192 15.4827 127.984 15.3173 127.685 15.2C127.387 15.0827 126.981 15.024 126.469 15.024H124.965ZM142.659 20H140.243V15.072H135.715V20H133.299V8.576H135.715V13.056H140.243V8.576H142.659V20ZM155.902 14.272C155.902 15.1573 155.79 15.9627 155.566 16.688C155.352 17.4027 155.022 18.0213 154.574 18.544C154.136 19.0667 153.571 19.4667 152.878 19.744C152.195 20.0213 151.39 20.16 150.462 20.16C149.534 20.16 148.723 20.0213 148.03 19.744C147.347 19.456 146.782 19.056 146.334 18.544C145.896 18.0213 145.566 17.3973 145.342 16.672C145.128 15.9467 145.022 15.1413 145.022 14.256C145.022 13.072 145.214 12.0427 145.598 11.168C145.992 10.2933 146.59 9.616 147.39 9.136C148.2 8.64533 149.23 8.4 150.478 8.4C151.715 8.4 152.734 8.64533 153.534 9.136C154.334 9.616 154.926 10.2987 155.31 11.184C155.704 12.0587 155.902 13.088 155.902 14.272ZM147.566 14.272C147.566 15.072 147.667 15.76 147.87 16.336C148.072 16.912 148.387 17.3547 148.814 17.664C149.24 17.9733 149.79 18.128 150.462 18.128C151.155 18.128 151.71 17.9733 152.126 17.664C152.552 17.3547 152.862 16.912 153.054 16.336C153.256 15.76 153.358 15.072 153.358 14.272C153.358 13.0667 153.134 12.1227 152.686 11.44C152.238 10.7573 151.502 10.416 150.478 10.416C149.795 10.416 149.24 10.5707 148.814 10.88C148.387 11.1893 148.072 11.632 147.87 12.208C147.667 12.784 147.566 13.472 147.566 14.272ZM163.116 10.432C162.657 10.432 162.247 10.5227 161.884 10.704C161.532 10.8853 161.233 11.1467 160.988 11.488C160.743 11.8187 160.556 12.224 160.428 12.704C160.311 13.184 160.252 13.7227 160.252 14.32C160.252 15.1307 160.348 15.824 160.54 16.4C160.743 16.9653 161.057 17.3973 161.484 17.696C161.911 17.9947 162.455 18.144 163.116 18.144C163.585 18.144 164.049 18.0907 164.508 17.984C164.977 17.8773 165.484 17.728 166.028 17.536V19.568C165.527 19.7707 165.031 19.92 164.54 20.016C164.049 20.112 163.5 20.16 162.892 20.16C161.719 20.16 160.748 19.92 159.98 19.44C159.223 18.9493 158.663 18.2667 158.3 17.392C157.937 16.5067 157.756 15.4773 157.756 14.304C157.756 13.44 157.873 12.6507 158.108 11.936C158.343 11.2107 158.684 10.5867 159.132 10.064C159.591 9.54133 160.151 9.136 160.812 8.848C161.484 8.56 162.252 8.416 163.116 8.416C163.681 8.416 164.247 8.49067 164.812 8.64C165.388 8.77867 165.937 8.97067 166.46 9.216L165.676 11.184C165.249 10.9813 164.817 10.8053 164.38 10.656C163.953 10.5067 163.532 10.432 163.116 10.432ZM172.856 20H170.44V10.592H167.336V8.576H175.96V10.592H172.856V20ZM177.721 20V8.576H180.137V12.96H181.097C182.175 12.96 183.055 13.1093 183.737 13.408C184.431 13.7067 184.943 14.1173 185.273 14.64C185.604 15.1627 185.769 15.76 185.769 16.432C185.769 17.1787 185.604 17.8187 185.273 18.352C184.943 18.8853 184.431 19.296 183.737 19.584C183.044 19.8613 182.148 20 181.049 20H177.721ZM180.953 18.016C181.689 18.016 182.265 17.8987 182.681 17.664C183.108 17.4293 183.321 17.0187 183.321 16.432C183.321 16.0267 183.215 15.7173 183.001 15.504C182.799 15.2907 182.505 15.1467 182.121 15.072C181.748 14.9867 181.295 14.944 180.761 14.944H180.137V18.016H180.953Z" fill="white"/>
</svg>
