<svg width="214" height="161" viewBox="0 0 214 161" fill="none" xmlns="http://www.w3.org/2000/svg">
<path d="M213.961 111.11C213.679 111.643 213.77 112.243 213.719 112.806C213.637 113.656 213.525 114.497 213.377 115.335C212.73 118.944 211.695 122.432 209.853 125.618C208.49 128.036 206.665 130.159 204.483 131.863C202.109 133.691 199.416 134.827 196.646 135.841C193.808 136.883 190.898 137.693 187.982 138.446C185.834 138.997 183.671 139.496 181.49 139.917C179.373 140.325 177.289 140.806 175.183 141.239C172.797 141.729 170.395 142.153 168.017 142.695C165.639 143.237 163.346 143.715 161.005 144.197C159.136 144.58 157.272 144.976 155.4 145.348C152.632 145.896 149.861 146.448 147.084 146.963C145.236 147.307 143.406 147.761 141.563 148.065C138.611 148.556 135.701 149.25 132.743 149.71C131.194 149.951 129.663 150.319 128.117 150.587L122.554 151.559L114.55 152.939C112.386 153.311 110.221 153.679 108.055 154.045C106.056 154.38 104.059 154.727 102.057 155.041C100.865 155.23 99.6641 155.345 98.4723 155.534C97.8673 155.626 97.2351 155.748 96.6119 155.839C94.9875 156.055 93.3631 156.299 91.7386 156.527C90.1626 156.75 88.5866 156.981 87.0076 157.188C85.2168 157.426 83.4108 157.597 81.6261 157.886C80.3858 158.087 79.1365 158.191 77.8963 158.386C76.9202 158.538 75.9381 158.652 74.9499 158.727C74.0122 158.797 73.0835 158.961 72.1488 159.071C71.2624 159.174 70.3701 159.235 69.4837 159.312C68.4492 159.403 67.4237 159.58 66.3861 159.631C65.282 159.686 64.1809 159.826 63.0768 159.896C62.2812 159.945 61.4947 160.122 60.6931 160.07C60.6335 160.059 60.5719 160.068 60.5175 160.095C60.4631 160.122 60.4186 160.165 60.3906 160.219H42.9727C42.5976 159.957 42.1378 160.009 41.7233 159.936C39.0986 159.454 36.6165 158.379 34.4633 156.792C32.3458 155.269 30.7577 153.265 29.4691 151.005C28.2832 148.857 27.4439 146.533 26.9825 144.12C26.6419 142.601 26.4444 141.053 26.3926 139.496C26.3775 138.747 26.2777 137.995 26.2868 137.242C26.2972 137.05 26.3544 136.864 26.4532 136.699C26.5521 136.535 26.6896 136.397 26.8537 136.299C27.0177 136.2 27.2033 136.144 27.3941 136.135C27.5848 136.126 27.7749 136.164 27.9475 136.246C28.1036 136.313 28.235 136.427 28.3229 136.573C28.4109 136.719 28.451 136.889 28.4375 137.06C28.4739 138.835 28.6612 140.604 28.9972 142.348C29.4002 144.798 30.1404 147.179 31.1963 149.424C31.984 151.119 33.0646 152.66 34.3877 153.975C35.0663 154.631 35.8306 155.19 36.6595 155.638C37.7291 156.247 38.8354 156.788 39.9719 157.258C41.1925 157.713 42.4582 158.034 43.7471 158.215C46.301 158.593 48.8864 158.71 51.4638 158.565C53.3605 158.486 55.2662 158.486 57.1629 158.233C58.3517 158.072 59.5829 158.136 60.7929 158.017C62.1118 157.886 63.4307 157.767 64.7466 157.645C65.9233 157.539 67.094 157.392 68.2707 157.298C69.9526 157.161 71.6345 156.993 73.3134 156.802C74.7261 156.643 76.1357 156.451 77.5484 156.265C78.5769 156.128 79.5993 155.976 80.6248 155.827C82.2734 155.589 83.9221 155.373 85.5616 155.105C87.1104 154.849 88.6653 154.663 90.208 154.389C92.023 154.063 93.8743 153.822 95.7074 153.567C97.2562 153.35 98.802 153.085 100.354 152.884C101.525 152.729 102.68 152.473 103.842 152.275C106.498 151.8 109.157 151.334 111.813 150.855C114.278 150.411 116.74 149.942 119.209 149.509C121.178 149.162 123.141 148.857 125.129 148.516C126.245 148.324 127.352 148.09 128.456 147.882C129.947 147.602 131.436 147.301 132.93 147.036C134.14 146.819 135.35 146.57 136.56 146.341C138.523 145.976 140.493 145.577 142.447 145.202C144.867 144.745 147.287 144.322 149.707 143.831C151.289 143.526 152.877 143.222 154.465 142.917C156.851 142.458 159.236 141.984 161.622 141.495C162.778 141.257 163.924 140.965 165.083 140.727C166.689 140.398 168.301 140.118 169.923 139.78C171.338 139.475 172.766 139.244 174.185 138.963C175.673 138.674 177.159 138.354 178.653 138.083C181.121 137.651 183.581 137.151 186.013 136.542C188.823 135.838 191.615 135.07 194.35 134.105C195.145 133.825 195.971 133.596 196.73 133.27C199.072 132.262 201.492 131.375 203.449 129.636C205.356 127.984 206.907 125.955 208.004 123.675C208.745 122.228 209.359 120.72 209.841 119.167C210.487 116.877 210.965 114.542 211.268 112.182C211.477 110.47 211.586 108.752 211.686 107.034C211.822 104.673 211.701 102.318 211.625 99.9638C211.497 97.1471 211.218 94.3396 210.787 91.5534C210.358 88.5073 209.829 85.4612 209.145 82.4486C208.338 78.7428 207.339 75.0824 206.15 71.4825C205.923 70.8154 205.669 70.1605 205.427 69.4964C205.299 69.1788 205.265 68.831 205.327 68.4942C205.371 68.2526 205.491 68.0315 205.669 67.8637C205.847 67.6959 206.074 67.5901 206.316 67.5621C206.536 67.5467 206.754 67.6071 206.935 67.7333C207.116 67.8596 207.249 68.0442 207.312 68.2566C207.699 69.3289 208.068 70.4072 208.404 71.4977C209.372 74.6322 210.219 77.8002 210.996 80.9864C211.656 83.6761 212.188 86.3933 212.672 89.1196C212.917 90.4812 213.132 91.8459 213.295 93.2227C213.462 94.6453 213.649 96.0648 213.797 97.4873C213.852 98.0173 213.834 98.5565 213.867 99.0896C213.882 99.3485 213.785 99.6318 214 99.8541L213.961 111.11Z" fill="white"/>
<path d="M124.381 96.7441C124.657 95.7663 124.935 94.7885 125.201 93.8107C125.721 91.9129 126.254 90.0183 126.75 88.1144C127.397 85.6227 128.141 83.1614 128.746 80.6605C129.049 79.4817 129.385 78.3181 129.72 77.1514C129.95 76.3442 129.959 76.3442 130.831 76.3411H135.477C136.282 76.3411 136.288 76.3411 136.288 77.1423L136.315 96.872C136.315 101.985 136.32 107.1 136.33 112.215C136.33 112.416 136.245 112.648 136.439 112.825C136.636 112.779 136.654 112.617 136.687 112.487C137.389 109.889 138.088 107.289 138.783 104.685C139.331 102.644 139.89 100.61 140.42 98.5626C141.055 96.1257 141.796 93.7041 142.41 91.2519C143.245 87.9316 144.307 84.6723 145.133 81.349C145.496 79.8625 145.937 78.4003 146.343 76.9321C146.494 76.3929 146.542 76.3381 147.078 76.3381C148.796 76.3381 150.511 76.3655 152.22 76.3594C152.595 76.3594 152.762 76.4904 152.741 76.8651C152.741 76.9595 152.741 77.057 152.741 77.1697C152.741 79.4035 152.755 81.6434 152.783 83.8894C152.81 85.9578 152.71 88.0261 152.744 90.0944C152.907 100.835 152.789 111.576 152.85 122.316C152.85 122.389 152.85 122.463 152.85 122.536C152.831 123.06 152.756 123.145 152.263 123.145L148.494 123.087C147.84 123.087 147.187 123.087 146.533 123.087C145.971 123.087 145.898 123.038 145.892 122.478C145.871 120.991 145.865 119.505 145.865 118.018C145.865 111.467 145.86 104.916 145.85 98.3646C145.85 96.2963 145.792 94.231 145.762 92.1658C145.745 91.8488 145.764 91.5309 145.819 91.2184C145.888 90.9144 145.867 90.5967 145.759 90.3046C145.504 90.789 145.327 91.3114 145.236 91.852C144.876 93.2867 144.44 94.7002 144.071 96.1318C143.418 98.6693 142.698 101.188 142.032 103.726C141.572 105.483 141.1 107.238 140.58 108.98C140.002 110.912 139.582 112.886 139.068 114.838C138.553 116.791 138.066 118.691 137.477 120.595C137.292 121.205 137.174 121.814 137.02 122.423C136.865 123.032 136.82 123.066 136.182 123.069L130.09 123.099C129.424 123.099 129.37 123.044 129.351 122.335C129.33 121.555 129.436 120.772 129.397 120.001C129.345 118.956 129.345 117.912 129.345 116.864C129.345 112.435 129.345 108.004 129.345 103.57V103.01C128.991 103.15 129.01 103.455 128.946 103.68C128.486 105.34 128.039 107.003 127.597 108.664C126.801 111.591 125.991 114.515 125.198 117.446C124.75 119.109 124.33 120.778 123.897 122.444C123.74 123.054 123.695 123.087 123.126 123.087H118.183C118.039 123.091 117.894 123.084 117.751 123.066C117.484 123.026 117.3 122.898 117.309 122.591C117.309 122.396 117.309 122.201 117.309 122.006V99.1962C117.309 91.9617 117.291 84.7302 117.309 77.4956C117.309 76.1644 117.109 76.3168 118.452 76.3107C120.122 76.3107 121.78 76.3107 123.459 76.332C124.248 76.332 124.254 76.3503 124.254 77.1666C124.254 83.5249 124.264 89.8822 124.285 96.2384V96.7502L124.381 96.7441Z" fill="white"/>
<path d="M98.709 132.588H2.21155C1.056 132.588 1.21028 132.701 1.20423 131.577C1.20423 130.114 1.20423 128.653 1.20423 127.193C1.20423 126.584 1.20423 126.584 1.80923 126.584C2.34163 126.584 2.87403 126.584 3.40643 126.584H195.258C196.41 126.584 196.407 126.584 196.407 127.741C196.407 129.179 196.407 130.617 196.407 132.052C196.407 132.573 196.407 132.576 195.878 132.591C195.66 132.591 195.442 132.591 195.225 132.591L98.709 132.588Z" fill="white"/>
<path d="M7.19647 109.093C7.03754 109.437 6.9718 109.818 7.00589 110.196C7.07244 114.156 7.11782 118.116 7.11479 122.094C7.11479 123.072 7.11479 123.072 6.17705 123.075H0.955896C0.0816714 123.075 0 123.008 0 122.121V77.4864C0 77.2945 0 77.0965 0 76.9046C0.0242 76.4599 0.127047 76.338 0.568696 76.335C2.5289 76.3228 4.48809 76.3228 6.44627 76.335C6.97564 76.335 6.98775 76.3685 6.99077 76.9442C6.99077 79.6736 6.99077 82.4019 6.99077 85.1292V85.9242C7.25972 85.7396 7.46234 85.4725 7.56854 85.1627C8.50629 83.0852 9.66184 81.1144 10.5754 79.0247C10.9142 78.2449 11.4133 77.5474 11.7279 76.7554C11.7858 76.6184 11.885 76.5032 12.0115 76.4261C12.138 76.349 12.2854 76.314 12.4327 76.3259C13.3977 76.3259 14.3657 76.3259 15.3337 76.3259C15.8268 76.3259 15.8873 76.4629 15.6574 76.9351C15.0796 78.1139 14.4655 79.2715 13.8999 80.4564C12.7927 82.7745 11.498 85.0012 10.4423 87.3498C9.79797 88.7876 9.08709 90.1979 8.36412 91.5992C8.25764 91.7878 8.19571 91.9985 8.18312 92.2151C8.17053 92.4317 8.20762 92.6483 8.29152 92.8481C9.33817 95.6688 10.2396 98.5443 11.256 101.377C12.8351 105.764 14.3264 110.184 15.8843 114.579C16.2715 115.673 16.6314 116.778 17.0186 117.872C17.0551 117.988 17.1006 118.101 17.1548 118.21C17.2879 118.445 17.4573 118.445 17.5783 118.21C17.6378 118.106 17.6817 117.993 17.7083 117.875C18.0532 116.181 18.6158 114.546 19.0514 112.879C19.8581 109.906 20.6648 106.933 21.4714 103.96C21.4987 103.866 21.5319 103.775 21.5531 103.68C21.6227 103.333 21.5531 103.229 21.1992 103.241C20.8453 103.254 20.4308 103.293 20.0467 103.302C19.4931 103.302 19.3539 103.196 19.3388 102.632C19.3207 101.852 19.3207 101.073 19.3388 100.293C19.3388 99.778 19.4114 99.7141 19.9438 99.7019C20.6456 99.6866 21.3474 99.7019 22.0613 99.7019C22.6966 99.7019 22.7238 99.6531 22.9355 99.053C23.3651 97.8346 23.5224 96.5522 23.7674 95.2911C23.955 94.3285 24.327 93.4329 24.5751 92.4947C25.5401 88.8059 26.5413 85.1261 27.5305 81.4464C27.9177 80.0178 28.2989 78.5891 28.7103 77.1818C28.9613 76.3076 28.9855 76.3076 29.8567 76.3106C31.4701 76.3106 33.0905 76.3106 34.7179 76.3106C35.3925 76.3106 35.3955 76.3106 35.4137 77.0082C35.4137 77.3494 35.4137 77.6905 35.4137 78.0317L35.4409 110.4C35.4409 114.321 35.4409 118.243 35.4409 122.164C35.4409 122.31 35.4409 122.469 35.4409 122.6C35.4409 122.935 35.2805 123.084 34.9508 123.081C32.9664 123.081 30.982 123.081 29.0007 123.081C28.5439 123.081 28.4652 122.99 28.4592 122.505C28.4592 121.238 28.4592 119.971 28.4592 118.704C28.4592 117.805 28.4894 116.903 28.3987 116.005C28.3079 115.106 28.4985 114.256 28.4652 113.379C28.3775 110.902 28.4652 108.423 28.4652 105.946C28.4188 105.219 28.4087 104.49 28.435 103.762C28.4804 103.321 28.3352 103.202 27.8935 103.199C26.986 103.199 26.1027 103.199 25.2073 103.199C25.1441 103.188 25.0793 103.19 25.017 103.205C24.9547 103.221 24.8963 103.249 24.8456 103.289C24.7949 103.328 24.7529 103.378 24.7225 103.435C24.6921 103.492 24.6738 103.555 24.6689 103.619C24.1637 105.544 23.6222 107.46 23.0898 109.379C22.5846 111.207 22.0704 113.035 21.5773 114.862C21.0721 116.736 20.5851 118.618 20.089 120.495C19.9952 120.845 19.9015 121.198 19.7865 121.54C19.4205 122.603 19.484 123.699 19.5082 124.793C19.5082 125.5 19.4719 125.557 18.7852 125.56C17.067 125.56 15.3519 125.579 13.6427 125.56C12.8078 125.56 12.7352 125.457 12.7352 124.628C12.7352 124.263 12.7352 123.897 12.7352 123.532C12.7352 123.322 12.6717 123.136 12.4146 123.139C12.1121 123.139 12.0062 122.941 11.9215 122.694C11.3165 120.9 10.7115 119.106 10.0914 117.318C9.09314 114.6 8.24614 111.868 7.19647 109.093ZM28.2384 90.5726C28.0561 90.7266 27.9384 90.9442 27.9086 91.1818C27.2431 93.9234 26.4234 96.6496 25.6792 99.3851C25.5824 99.7476 25.6006 99.7993 25.9817 99.8237C26.6775 99.8633 27.3641 99.6501 28.069 99.714C28.2626 99.7293 28.3715 99.5648 28.3926 99.382C28.4144 99.2379 28.4225 99.0921 28.4168 98.9464L28.3987 91.2915C28.4233 91.0407 28.3671 90.7887 28.2384 90.5726Z" fill="white"/>
<path d="M27.4092 33.7014C27.4092 35.7636 27.4092 38.103 27.4092 40.4394C27.4092 41.7553 27.3941 43.0713 27.3094 44.3811C27.2434 45.8465 26.7822 47.266 25.9753 48.4873C25.8223 48.7356 25.623 48.9517 25.3885 49.1239C24.8561 49.4803 24.4961 49.3372 24.4265 48.7066C24.3202 47.9116 24.2576 47.1113 24.239 46.3093C24.239 44.177 24.239 42.0264 24.3388 39.885C24.4568 37.6735 24.4023 35.4529 24.4114 33.2384C24.4114 31.167 24.3781 29.0956 24.4265 27.0273C24.4659 25.3519 24.5445 23.6766 24.6383 22.0042C24.7018 20.8162 24.7351 19.6222 24.85 18.4372C25.0709 16.1161 25.2403 13.7797 25.9814 11.5499C26.7457 9.15597 27.9801 6.94121 29.6114 5.03728C31.0906 3.34059 32.9661 2.14651 35.011 1.19611C36.2746 0.663149 37.5937 0.27487 38.9435 0.0385862C39.1588 0.00704796 39.3766 -0.0031565 39.5939 0.00812301C40.9975 0.00812301 42.4011 -0.0101538 43.8016 0.00812301C45.919 0.0426651 48.0293 0.262819 50.1088 0.666088C52.5711 1.14433 55.0395 1.60125 57.4988 2.09472C58.8177 2.35974 60.1306 2.67044 61.4313 2.98419C63.446 3.46244 65.4546 3.97114 67.4632 4.4768C69.5172 4.99464 71.5863 5.46679 73.6432 5.97549C76.4988 6.68219 79.3907 7.24573 82.2584 7.88237C85.4377 8.58603 88.6109 9.3506 91.7569 10.1456C93.2059 10.5112 94.664 10.8402 96.1129 11.1996C97.2776 11.489 98.4391 11.8088 99.6068 12.0982C101.997 12.68 104.398 13.2009 106.785 13.7888C109.544 14.4712 112.33 15.0408 115.08 15.7749C117.527 16.4268 119.998 16.9933 122.458 17.6026C124.424 18.09 126.39 18.5956 128.35 19.0891C130.126 19.5338 131.902 19.9846 133.68 20.4141C135.459 20.8437 137.292 21.2457 139.092 21.6783C140.732 22.0743 142.359 22.5251 144.005 22.8967C145.932 23.3415 147.834 23.8715 149.752 24.3406C151.388 24.7468 153.019 25.1722 154.647 25.6169C156.062 26.0068 157.508 26.2901 158.939 26.6252C159.992 26.875 161.057 27.1309 162.1 27.3776C163.534 27.7096 164.971 28.0203 166.399 28.3676C168.253 28.8123 170.089 29.321 171.95 29.7323C173.765 30.1343 175.516 30.7405 177.346 31.0634C177.997 31.1792 178.638 31.4381 179.288 31.6026C181.557 32.1753 183.828 32.7408 186.101 33.2993C188.085 33.7897 190.063 34.3075 192.06 34.7462C194.298 35.2336 196.531 35.7362 198.757 36.2693C200.293 36.5904 201.788 37.0818 203.216 37.7344C203.739 37.991 204.206 38.3504 204.589 38.7915C204.725 38.9368 204.828 39.1104 204.891 39.3C204.953 39.4896 204.974 39.6907 204.951 39.8892C204.929 40.0877 204.863 40.2788 204.759 40.4491C204.655 40.6194 204.516 40.7647 204.35 40.875C203.01 41.9016 201.468 42.5351 199.949 43.2144C197.529 44.3049 195.024 45.2157 192.541 46.1661C190.693 46.8728 188.832 47.543 186.972 48.2162C185.111 48.8894 183.302 49.5869 181.433 50.1657C179.564 50.7445 177.697 51.3354 175.834 51.9325C173.716 52.6087 171.599 53.3215 169.481 54.0008C168.105 54.4455 166.704 54.8171 165.34 55.2984C164.13 55.7249 162.902 56.0721 161.677 56.4407C159.369 57.1383 157.061 57.845 154.719 58.4238C152.541 58.9629 150.357 59.4869 148.176 60.0108C145.547 60.6413 142.916 61.2536 140.29 61.8903C137.947 62.4609 135.588 62.9544 133.215 63.3707C131.433 63.6753 129.654 64.0378 127.848 64.1779C126.907 64.251 125.97 64.3272 125.026 64.3211C124.717 64.3161 124.411 64.2627 124.118 64.1627C123.949 64.1078 123.783 64.0317 123.786 63.8306C123.789 63.6296 123.94 63.593 124.088 63.526C124.71 63.2577 125.351 63.0368 126.006 62.865C128.563 62.1949 131.127 61.5237 133.699 60.8515C135.728 60.3185 137.773 59.8493 139.803 59.3285L145.962 57.7414C147.411 57.3698 148.833 56.8977 150.285 56.5504C152.069 56.1239 153.797 55.5086 155.554 54.9938C157.474 54.4333 159.383 53.8322 161.28 53.1905C163.93 52.2767 166.598 51.439 169.26 50.5739C170.864 50.054 172.477 49.5534 174.1 49.0721C176.823 48.2619 179.521 47.3328 182.219 46.4159C185.465 45.3163 188.711 44.2136 191.899 42.9646C193.539 42.3219 195.197 41.7218 196.845 41.1004C197.577 40.8371 198.285 40.5131 198.963 40.1317C199.108 40.0465 199.265 39.9673 199.265 39.7662C199.265 39.5652 199.072 39.4311 198.89 39.3763C198.267 39.1875 197.638 39.0199 197.012 38.8432C193.872 37.9599 190.659 37.4116 187.489 36.6774C185.16 36.1413 182.843 35.5534 180.532 34.9899C178.22 34.4263 175.888 33.8598 173.574 33.2901C171.348 32.7449 169.127 32.1844 166.898 31.6544C164.575 31.1 162.242 30.5791 159.913 30.0399C157.844 29.5586 155.772 29.0987 153.715 28.5747C151.597 28.0325 149.459 27.5421 147.362 26.9451C146.044 26.5704 144.688 26.3358 143.354 26.0038C141.503 25.553 139.664 25.0595 137.81 24.6209C135.414 24.0543 133.009 23.5303 130.61 22.9729C129.061 22.6104 127.515 22.2175 125.97 21.8367C124.003 21.3524 122.037 20.8954 120.071 20.3715C118.395 19.9237 116.71 19.5155 115.019 19.1165C112.769 18.5895 110.512 18.0717 108.258 17.5416C107.048 17.2614 105.866 16.9659 104.671 16.6765C102.278 16.0978 99.8821 15.5312 97.4923 14.9342C93.9319 14.0447 90.3806 13.1065 86.8141 12.2414C84.7541 11.7357 82.6698 11.3275 80.6007 10.8371C77.1462 10.0329 73.6856 9.25008 70.2492 8.36975C67.6961 7.71788 65.146 7.05991 62.5899 6.42937C60.8808 6.009 59.1565 5.64346 57.4474 5.23224C54.6523 4.56209 51.8149 4.10822 48.9956 3.57514C48.4511 3.47157 47.8945 3.43502 47.3409 3.38628C45.8738 3.25834 44.4097 3.09995 42.9365 3.08167C41.4157 3.0336 39.8943 3.15208 38.399 3.43502C37.0297 3.68431 35.7161 4.17958 34.521 4.89716C32.7508 6.00756 31.2722 7.53093 30.2103 9.33842C29.0164 11.3733 28.2677 13.6415 28.0142 15.9912C27.6784 18.5773 27.6451 21.1696 27.5272 23.7801C27.3789 26.9999 27.4969 30.2135 27.4092 33.7014Z" fill="white"/>
<path d="M187.12 86.0217C187.459 85.1079 187.752 84.2915 188.054 83.4782C188.862 81.2911 189.588 79.0735 190.435 76.9016C190.477 76.7261 190.58 76.5715 190.725 76.4663C190.871 76.3611 191.049 76.3123 191.228 76.329C192.994 76.329 194.758 76.329 196.524 76.329C196.827 76.329 196.969 76.4447 196.969 76.7463C196.969 77.0478 196.969 77.4286 196.969 77.7698C196.969 87.4656 196.936 97.1584 197.03 106.851C197.081 111.819 197.063 116.788 197.105 121.753C197.105 121.972 197.105 122.191 197.105 122.411C197.105 122.965 197.03 123.02 196.479 123.069C196.382 123.069 196.285 123.069 196.177 123.069H190.732C190.105 123.069 190.027 122.999 190.036 122.353C190.045 121.707 190.118 121.134 190.102 120.525C189.885 111.981 190.066 103.433 189.997 94.886C189.997 93.5975 189.997 92.3059 189.997 91.0174C189.997 90.7585 189.966 90.4995 189.951 90.2528C189.688 90.2102 189.667 90.3929 189.621 90.5087C188.732 92.7669 187.846 95.0281 186.962 97.2924C186.333 98.8967 185.702 100.5 185.069 102.102C185.008 102.255 184.975 102.459 184.766 102.462C184.558 102.465 184.491 102.279 184.418 102.13C183.608 100.445 182.833 98.7424 181.998 97.0761C181.294 95.6932 180.661 94.2737 179.969 92.8847C179.926 92.7977 179.876 92.7141 179.82 92.6349C179.763 92.5587 179.681 92.4795 179.581 92.5374C179.528 92.5807 179.488 92.639 179.467 92.705C179.457 92.7532 179.457 92.8029 179.467 92.8512C179.467 94.7672 179.448 96.6862 179.467 98.6053C179.603 106.446 179.527 114.29 179.557 122.131C179.557 123.105 179.527 123.133 178.529 123.102C177.878 123.081 177.225 123.102 176.572 123.072C175.918 123.041 175.921 123.047 175.915 122.423C175.827 115.435 175.815 108.444 175.809 101.453C175.809 93.4421 175.797 85.4298 175.773 77.4164C175.773 76.3564 175.628 76.3076 176.895 76.3198C178.492 76.335 180.09 76.3503 181.687 76.3198C181.9 76.2982 182.114 76.3508 182.294 76.4688C182.473 76.5869 182.607 76.7633 182.673 76.9686C183.804 79.3599 184.96 81.7389 186.118 84.1149C186.406 84.7363 186.596 85.4003 187.12 86.0217Z" fill="white"/>
<path d="M103.147 76.3319H105.833C106.571 76.3319 106.58 76.3319 106.583 77.1118C106.583 77.9403 106.607 78.7688 106.562 79.5944C106.552 79.8105 106.596 80.0256 106.692 80.2196C106.787 80.4136 106.93 80.5799 107.106 80.7031C108.84 82.1471 110.31 83.8852 111.45 85.8389C112.519 87.6574 113.362 89.6012 113.961 91.6266C114.538 93.5849 114.889 95.6035 115.008 97.6427C115.062 98.6875 115.119 99.7293 115.098 100.774C115.026 102.889 114.684 104.985 114.082 107.013C113.412 109.375 112.415 111.631 111.12 113.714C110.071 115.438 108.805 117.017 107.354 118.414C107.112 118.61 106.922 118.863 106.801 119.15C106.681 119.438 106.632 119.751 106.662 120.062C106.728 120.86 106.692 121.671 106.68 122.472C106.68 122.999 106.598 123.081 106.09 123.081C104.13 123.081 102.157 123.081 100.215 123.081C99.8402 123.081 99.698 122.941 99.7041 122.566C99.7041 121.652 99.689 120.766 99.7041 119.864C99.7186 119.672 99.6874 119.479 99.6133 119.301C99.5391 119.123 99.4241 118.965 99.2776 118.841C97.1114 116.788 95.3188 114.37 93.9808 111.694C93.0694 109.895 92.3592 107.998 91.8633 106.041C91.0859 103.11 91.0375 100.128 91.1796 97.137C91.2712 96.1935 91.4258 95.2572 91.6425 94.3346C92.1298 91.7044 93.0619 89.178 94.3982 86.8655C95.4177 85.0743 96.5157 83.3167 98.004 81.8698C98.4427 81.4525 98.8329 80.9864 99.2534 80.5508C99.355 80.4486 99.4344 80.3263 99.4864 80.1915C99.5385 80.0567 99.5622 79.9125 99.5559 79.768C99.5407 78.8937 99.5559 78.0165 99.5559 77.1392C99.5559 76.3776 99.5861 76.3167 100.364 76.3167H103.147V76.3319ZM99.6043 89.6192C99.6527 88.617 99.5589 87.5691 99.6557 86.5243C99.6708 86.372 99.6708 86.2014 99.5317 86.1313C99.3925 86.0613 99.2776 86.2166 99.1929 86.3263C97.9454 87.9648 96.9444 89.7795 96.2223 91.7119C94.4684 96.3391 94.297 101.423 95.7353 106.16C96.4404 108.46 97.4726 110.645 98.7996 112.648C98.9608 112.891 99.1441 113.118 99.3471 113.327C99.4712 113.458 99.6496 113.425 99.6708 113.236C99.6996 112.995 99.7087 112.753 99.698 112.511C99.6678 106.617 99.7706 100.722 99.6133 94.8433C99.6133 94.3589 99.7011 93.8685 99.6648 93.3903C99.574 92.1444 99.6224 90.9016 99.5952 89.6192H99.6043ZM106.625 113.339L106.813 113.373C106.955 113.211 107.115 113.068 107.236 112.886C107.963 111.885 108.593 110.817 109.118 109.696C110.432 107.034 111.18 104.125 111.314 101.155C111.487 98.4064 111.156 95.6494 110.337 93.0217C109.628 90.7742 108.59 88.6459 107.258 86.7071C107.189 86.5638 107.092 86.436 106.973 86.3313C106.854 86.2266 106.715 86.1472 106.565 86.0978C106.586 95.2271 106.535 104.286 106.625 113.339Z" fill="white"/>
<path d="M81.9318 108.993C81.7483 109.363 81.695 109.785 81.7806 110.19C81.8804 110.937 81.8804 111.694 81.7806 112.441C81.7291 112.901 81.7291 113.366 81.7806 113.827C81.9742 115.916 81.8229 118.009 81.8653 120.099C81.8804 120.854 81.8804 121.622 81.8653 122.365C81.8653 123.017 81.7897 123.075 81.1696 123.078L75.4432 123.099C74.8806 123.099 74.7898 123.017 74.7838 122.414C74.7717 121.147 74.7656 119.88 74.7656 118.615C74.7656 113.258 74.7656 107.902 74.7656 102.547C74.7656 95.3885 74.7545 88.2301 74.7324 81.0717C74.7324 80.0056 74.7324 78.9394 74.7324 77.8763C74.7358 77.5619 74.7104 77.2479 74.6567 76.9381C74.5902 76.5482 74.7808 76.3289 75.1801 76.3289C77.2129 76.3147 79.2446 76.3076 81.2754 76.3076C81.7201 76.3076 81.7473 76.3502 81.7473 76.9168C81.7473 78.9638 81.7473 81.0078 81.7473 83.0548C81.7473 83.8315 81.7473 84.6113 81.7473 85.3911C81.7473 85.5252 81.6868 85.7171 81.8653 85.7689C82.0952 85.8359 82.1255 85.6105 82.1981 85.4643C83.1902 83.4619 84.1824 81.4596 85.1746 79.4573C85.6163 78.5648 86.0489 77.6692 86.4814 76.7736C86.5277 76.6344 86.6163 76.5133 86.7346 76.4275C86.853 76.3417 86.9951 76.2955 87.1409 76.2954C88.1573 76.2954 89.1737 76.2954 90.1871 76.3198C90.5954 76.3198 90.6953 76.4904 90.5077 76.8803C90.2052 77.4895 89.8634 78.0774 89.5609 78.6866C88.2208 81.3794 86.8928 84.0813 85.5558 86.7771C84.8419 88.2119 84.1643 89.6649 83.3748 91.057C83.1566 91.4002 83.0291 91.7938 83.0042 92.2005C82.9793 92.6072 83.0579 93.0136 83.2326 93.3812C83.8164 94.7885 84.2913 96.2445 84.8056 97.6853C85.4106 99.3973 86.0156 101.115 86.6206 102.827C87.3042 104.746 88.003 106.662 88.6836 108.581C89.7868 111.69 90.8879 114.801 91.9869 117.912C92.1775 118.451 92.1866 118.445 92.7644 118.433C93.1032 118.433 93.445 118.408 93.7808 118.433C94.2678 118.466 94.4674 118.652 94.4342 119.112C94.292 121.055 94.4342 122.999 94.3888 124.939C94.3888 125.323 94.2375 125.469 93.8745 125.457C93.2695 125.457 92.6645 125.426 92.0595 125.426C90.8737 125.426 89.6879 125.445 88.5052 125.426C87.6461 125.426 87.6461 125.426 87.6461 124.583V123.879C87.6461 123.513 87.6975 123.148 87.1742 123.044C86.8989 122.99 86.8323 122.67 86.7416 122.414C86.2667 121.061 85.7827 119.712 85.3047 118.359C84.736 116.761 84.1693 115.16 83.6047 113.556C83.1267 112.205 82.6528 110.855 82.1829 109.504C82.1315 109.325 82.1133 109.124 81.9318 108.993Z" fill="white"/>
<path d="M71.0086 108.201V122.137C71.0086 123.05 70.9874 123.105 70.1011 123.105C68.2619 123.105 66.4257 123.081 64.5896 123.063C64.1237 123.063 64.0511 122.99 64.033 122.508C64.0148 122.027 64.033 121.534 64.0178 121.046C64.0178 118.466 64.0844 115.883 63.9815 113.306C63.8575 110.165 63.9483 107.028 63.8999 103.887C63.8999 103.741 63.8999 103.583 63.8999 103.449C63.8999 103.202 63.7819 103.104 63.5429 103.104C62.6354 103.104 61.7279 103.104 60.8053 103.104C60.6716 103.094 60.539 103.136 60.4342 103.22C60.3293 103.304 60.2598 103.425 60.2396 103.558C60.0853 104.143 59.922 104.728 59.7617 105.316C58.9308 108.382 58.0969 111.45 57.26 114.518C56.6005 116.928 55.9229 119.331 55.2574 121.741C55.1788 122.021 55.1183 122.307 55.0669 122.594C55.0608 122.673 55.0385 122.749 55.0013 122.819C54.9641 122.889 54.9128 122.95 54.8507 122.999C54.7886 123.048 54.7172 123.083 54.6408 123.102C54.5645 123.122 54.485 123.125 54.4074 123.111C53.757 123.09 53.1036 123.111 52.4502 123.084C52.0207 123.069 51.936 122.959 52.0237 122.539C52.0993 122.182 52.2052 121.832 52.3111 121.485C53.1127 118.786 53.757 116.044 54.5466 113.342C55.4541 110.193 56.2769 107.016 57.1329 103.851C57.2842 103.29 57.2297 103.217 56.652 103.199C56.2406 103.184 55.8292 103.199 55.4178 103.199C55.1001 103.199 54.9065 103.089 54.9035 102.742C54.9035 101.868 54.9035 100.99 54.8854 100.113C54.8854 99.7324 55.1274 99.6897 55.4178 99.6867C56.1438 99.6867 56.8698 99.6867 57.5958 99.6867C58.3218 99.6867 58.3006 99.6593 58.476 99.0013C59.0992 96.6314 59.5832 94.228 60.3122 91.8794C61.135 89.2415 61.7461 86.5365 62.4539 83.862C63.0347 81.681 63.6195 79.5 64.2084 77.3189C64.2538 77.1544 64.3294 77.0143 64.3778 76.8377C64.4102 76.67 64.505 76.5212 64.6428 76.4215C64.7805 76.3219 64.9508 76.279 65.1189 76.3015C66.8583 76.3259 68.6007 76.3168 70.3401 76.3289C70.8513 76.3289 70.8664 76.3503 70.8694 76.8712C70.8694 77.919 70.8694 78.9638 70.8694 80.0117C70.8694 83.8559 70.7999 87.7032 70.8937 91.5444C71.0147 96.869 70.8725 102.2 71.0086 108.201ZM63.8424 90.2619C63.3644 91.5169 63.1557 92.7872 62.8048 94.0178C62.3148 95.745 61.8519 97.4782 61.3831 99.2115C61.2621 99.6593 61.2953 99.7049 61.7733 99.7171C62.3027 99.7324 62.8351 99.7171 63.3675 99.7171C63.9725 99.7171 63.9906 99.6867 63.9906 99.1079C63.9906 96.3359 63.9906 93.5639 63.9906 90.792C63.9846 90.6305 64.0541 90.4508 63.8424 90.2619Z" fill="white"/>
<path d="M163.894 92.5648V107.756C163.894 108.728 163.894 108.728 164.835 108.74C165.246 108.74 165.657 108.74 166.069 108.74C168.283 108.721 170.019 109.693 171.372 111.393C172.054 112.222 172.533 113.201 172.77 114.251C173.007 115.301 172.995 116.392 172.736 117.436C172.161 119.94 170.649 121.741 168.213 122.615C167.419 122.91 166.58 123.062 165.733 123.063C163.05 123.063 160.367 123.063 157.68 123.084C157.536 123.092 157.392 123.092 157.248 123.084C157.199 123.087 157.15 123.079 157.105 123.06C157.06 123.042 157.02 123.013 156.988 122.976C156.955 122.939 156.932 122.896 156.919 122.848C156.905 122.801 156.903 122.751 156.912 122.703C156.912 122.606 156.912 122.508 156.912 122.399C156.912 112.392 156.939 102.385 156.861 92.379C156.821 87.4138 156.806 82.4486 156.785 77.4834C156.785 76.3472 156.803 76.3228 157.901 76.3228H163.044C163.845 76.3228 163.851 76.3228 163.851 77.1361V92.5495L163.894 92.5648ZM163.921 115.84C163.921 116.836 163.921 117.832 163.921 118.829C163.921 119.328 164.024 119.438 164.526 119.438C165.007 119.464 165.49 119.451 165.969 119.401C166.523 119.358 167.062 119.202 167.554 118.941C168.176 118.561 168.671 118.001 168.973 117.333C169.275 116.666 169.371 115.923 169.248 115.201C169.045 113.854 167.881 112.7 166.474 112.374C165.881 112.267 165.278 112.232 164.677 112.27C163.933 112.27 163.93 112.288 163.927 113.068L163.921 115.84Z" fill="white"/>
<path d="M142.471 56.7331C141.932 56.6839 141.402 56.5662 140.892 56.3828C138.593 55.729 136.331 54.949 134.116 54.0464C131.309 52.9224 128.568 51.6552 125.879 50.2692C124.017 49.2902 122.209 48.2114 120.461 47.0373C118.562 45.7853 116.732 44.4328 114.883 43.1078C114.433 42.7818 113.958 42.4986 113.492 42.1939C112.651 41.6487 111.731 41.7705 110.818 41.8893C110.267 41.9563 109.72 42.0477 109.172 42.1269C107.687 42.3462 106.359 41.9015 105.079 41.1979C103.891 40.546 102.732 39.8454 101.525 39.2301C100.664 38.7857 99.7359 38.4882 98.7783 38.3497C97.8556 38.2187 97.0933 38.697 96.3583 39.1905C94.6159 40.3693 92.9914 41.7066 91.3549 43.0286C89.7184 44.3506 88.0607 45.7305 86.409 47.0769C84.5335 48.5999 82.6671 50.1474 80.7765 51.6461C78.0147 53.8515 75.2589 56.066 72.3761 58.113C70.918 59.1487 69.4388 60.157 67.769 60.8545C66.9957 61.1412 66.1712 61.2605 65.349 61.2048C62.4904 61.1287 59.7013 60.5255 56.9002 60.029C53.4795 59.4136 50.0945 58.6113 46.7604 57.6256C44.3404 56.9098 41.9022 56.1665 39.6274 55.009C39.213 54.7555 38.7521 54.5887 38.2723 54.5186C38.0804 54.4966 37.8862 54.515 37.7018 54.5727C37.5175 54.6304 37.347 54.7261 37.2014 54.8537C33.8739 57.7383 30.129 60.0108 26.3114 62.1644C23.4522 63.7878 20.5042 65.2472 17.4814 66.5356C15.3942 67.4281 13.2737 68.2323 11.1078 68.9146C10.0944 69.2344 9.10522 69.6182 8.09789 69.9564C6.47876 70.5153 4.81204 70.9232 3.11875 71.1748C2.35343 71.2814 1.90875 70.7545 2.16587 69.996C2.38873 69.2433 2.8113 68.5661 3.38805 68.0374C3.96481 67.5087 4.6739 67.1485 5.43892 66.9955C6.56422 66.7366 7.71977 66.6087 8.84205 66.3467C9.96432 66.0847 11.0321 65.7649 12.1151 65.4329C13.9543 64.8571 15.7905 64.2692 17.6176 63.6509C20.6774 62.6004 23.6603 61.3352 26.5443 59.8645C29.8828 58.2053 33.052 56.2209 36.0065 53.9398C36.923 53.2274 37.8828 52.5732 38.8803 51.9812C39.2041 51.7665 39.5839 51.6534 39.9716 51.6561C40.3592 51.6588 40.7374 51.7772 41.0583 51.9964C42.0551 52.5866 43.0853 53.1175 44.1438 53.5865C45.8955 54.344 47.6893 54.999 49.5162 55.5482C50.8714 55.9777 52.2387 56.4102 53.6029 56.7666C55.2606 57.1961 56.9002 57.6805 58.5579 58.0978C60.4273 58.5669 62.3089 58.9964 64.2025 59.3467C64.7017 59.4411 65.1826 59.5843 65.6908 59.6513C66.8827 59.8036 67.8779 59.3893 68.7824 58.6857C70.1587 57.6195 71.5321 56.5534 72.8843 55.4477C76.1109 52.8199 79.2781 50.1169 82.3858 47.3388C85.1295 44.8867 87.8913 42.465 90.6985 40.0799C92.2866 38.7335 93.8354 37.3384 95.605 36.2266C97.4715 35.0599 99.359 34.8589 101.31 36.1413C102.765 37.0947 104.142 38.173 105.681 38.9925C106.277 39.3075 106.893 39.5842 107.524 39.821C108.516 40.1926 109.417 39.9794 110.328 39.5925C110.933 39.3397 111.538 39.0838 112.143 38.8341C112.575 38.6397 113.05 38.5622 113.521 38.6092C113.992 38.6562 114.443 38.8261 114.829 39.1021C115.921 39.821 116.946 40.6465 117.981 41.4354C121.519 44.1337 125.224 46.6029 129.074 48.8284C131.963 50.4875 134.924 52.0106 137.955 53.3976L142.169 55.3349C142.469 55.436 142.728 55.6328 142.907 55.8954C143.013 56.0782 143.209 56.2457 143.088 56.4894C143.036 56.602 142.943 56.6901 142.828 56.7354C142.713 56.7808 142.586 56.7799 142.471 56.7331Z" fill="white"/>
<path d="M45.7168 94.8067C45.9982 95.1059 46.3082 95.3763 46.6425 95.614C48.5199 97.1238 49.9994 99.076 50.9501 101.298C51.986 103.67 52.4275 106.262 52.2357 108.846C52.1222 110.079 51.8778 111.297 51.5067 112.477C50.5689 115.542 48.7388 117.96 46.2886 119.928C44.8088 121.15 43.0782 122.026 41.2217 122.493C40.5169 122.661 39.8151 122.834 39.1042 122.993C38.8921 123.038 38.6766 123.066 38.4599 123.075C38.3995 123.088 38.3368 123.087 38.2772 123.07C38.2177 123.053 38.1632 123.022 38.1186 122.979C38.074 122.936 38.0406 122.882 38.0215 122.823C38.0025 122.764 37.9982 122.7 38.0091 122.639C38.0606 121.792 37.9486 120.946 37.9789 120.096C38.0358 119.173 38.0247 118.248 37.9456 117.327C37.8881 116.785 38.0394 116.227 37.9456 115.664C37.8972 115.344 38.2088 115.255 38.478 115.182C39.3658 114.949 40.2184 114.596 41.013 114.134C42.8703 113.029 43.9321 111.35 44.3979 109.261C44.6865 108.099 44.6781 106.882 44.3737 105.724C43.9381 104.201 43.2394 102.778 41.9719 101.731C41.2107 101.052 40.3277 100.525 39.3704 100.18C39.2548 100.146 39.1528 100.076 39.079 99.9807C39.0051 99.8849 38.9631 99.7682 38.959 99.647C38.9374 99.5029 38.9293 99.3571 38.9348 99.2114C39.0074 97.6061 38.9015 96.0039 38.9197 94.3986C38.9197 93.701 38.9529 93.6888 39.5973 93.5365C42.3561 92.8846 44.289 91.2976 45.0423 88.4738C45.2863 87.5341 45.3394 86.5545 45.1983 85.5936C45.0572 84.6328 44.7248 83.7105 44.2211 82.8822C43.7175 82.0538 43.0528 81.3364 42.2671 80.7731C41.4814 80.2097 40.5908 79.8118 39.6487 79.6035C39.0268 79.5127 38.3976 79.4842 37.7702 79.5182C37.1652 79.4969 37.147 79.4969 37.141 78.909C37.1349 78.3211 37.141 77.7393 37.141 77.1544C37.141 76.8011 37.2771 76.6183 37.6461 76.5939C39.2827 76.4751 40.9101 76.3289 42.5285 76.8163C44.4636 77.4247 46.176 78.5975 47.4489 80.1862C48.7219 81.7749 49.4982 83.7083 49.6796 85.7414C49.8119 87.3705 49.5687 89.0082 48.9687 90.5269C48.2963 92.2275 47.171 93.7084 45.7168 94.8067Z" fill="white"/>
</svg>
