<svg width="372" height="71" viewBox="0 0 372 71" fill="none" xmlns="http://www.w3.org/2000/svg">
<path d="M371.891 30.7112C371.887 38.6501 368.765 46.2629 363.209 51.8766C357.654 57.4903 350.121 60.6457 342.265 60.6494H32.1891C31.3791 60.7276 30.5656 60.7631 29.752 60.7559C20.9514 60.7559 11.2167 61.416 4.98674 67.7258L2.1773 70.5649C2.01234 70.7317 1.80215 70.8454 1.57328 70.8914C1.3413 70.9419 1.09963 70.9201 0.880183 70.8288C0.660734 70.7376 0.473829 70.5812 0.344153 70.3804C0.219085 70.1805 0.151012 69.9497 0.147472 69.7132V33.6993C0.0561647 32.7199 3.33332e-06 31.7191 3.33332e-06 30.7112C-0.00184293 26.7782 0.763286 22.8834 2.25181 19.2494C3.74033 15.6154 5.92299 12.3136 8.67499 9.5325C11.427 6.75145 14.6944 4.54576 18.2904 3.04153C21.8865 1.5373 25.7406 0.764007 29.6325 0.765873H342.265C346.156 0.766804 350.008 1.54211 353.602 3.04751C357.196 4.5529 360.461 6.75893 363.212 9.53961C365.962 12.3203 368.143 15.6212 369.631 19.2538C371.119 22.8864 371.885 26.7796 371.884 30.7112H371.891Z" fill="#DD3618"/>
<path d="M40.2047 33.2415C40.2047 34.9252 39.9917 36.4567 39.5657 37.836C39.16 39.1951 38.5312 40.3717 37.6792 41.3656C36.8475 42.3596 35.7724 43.1203 34.4539 43.6477C33.1557 44.1751 31.6242 44.4388 29.8594 44.4388C28.0946 44.4388 26.5529 44.1751 25.2344 43.6477C23.9362 43.1 22.8611 42.3393 22.0091 41.3656C21.1774 40.3717 20.5486 39.185 20.1226 37.8056C19.7169 36.4262 19.5141 34.8947 19.5141 33.2111C19.5141 30.9594 19.8792 29.002 20.6094 27.3386C21.36 25.6752 22.4959 24.3871 24.0173 23.4743C25.559 22.5412 27.5165 22.0746 29.8898 22.0746C32.2429 22.0746 34.1801 22.5412 35.7014 23.4743C37.2228 24.3871 38.3486 25.6854 39.0789 27.369C39.8294 29.0324 40.2047 30.9899 40.2047 33.2415ZM24.352 33.2415C24.352 34.7629 24.5447 36.0713 24.9301 37.1666C25.3156 38.262 25.914 39.1039 26.7254 39.6921C27.5368 40.2804 28.5814 40.5745 29.8594 40.5745C31.1779 40.5745 32.2327 40.2804 33.0238 39.6921C33.8352 39.1039 34.4235 38.262 34.7886 37.1666C35.174 36.0713 35.3667 34.7629 35.3667 33.2415C35.3667 30.9493 34.9408 29.1541 34.0888 27.8559C33.2368 26.5576 31.8372 25.9085 29.8898 25.9085C28.5916 25.9085 27.5368 26.2026 26.7254 26.7909C25.914 27.3792 25.3156 28.221 24.9301 29.3164C24.5447 30.4118 24.352 31.7201 24.352 33.2415ZM44.7049 44.1345V22.4093H58.4276V26.2128H49.2994V30.7465H51.1251C53.1738 30.7465 54.8473 31.0304 56.1456 31.5984C57.4641 32.1664 58.4378 32.9474 59.0666 33.9413C59.6954 34.9353 60.0099 36.0713 60.0099 37.3492C60.0099 38.7692 59.6954 39.9862 59.0666 41.0005C58.4378 42.0147 57.4641 42.7957 56.1456 43.3434C54.8271 43.8708 53.1231 44.1345 51.0338 44.1345H44.7049ZM50.8512 40.3615C52.2509 40.3615 53.3463 40.1384 54.1374 39.6921C54.9488 39.2458 55.3545 38.4649 55.3545 37.3492C55.3545 36.5784 55.1516 35.9901 54.7459 35.5844C54.3605 35.1787 53.8027 34.9049 53.0724 34.7629C52.3624 34.6006 51.5003 34.5195 50.4861 34.5195H49.2994V40.3615H50.8512ZM66.8163 44.1345V26.2432H61.3698V22.4093H71.4109V30.7465H73.2365C75.2853 30.7465 76.9588 31.0304 78.257 31.5984C79.5756 32.1664 80.5492 32.9474 81.1781 33.9413C81.8069 34.9353 82.1213 36.0713 82.1213 37.3492C82.1213 38.7692 81.8069 39.9862 81.1781 41.0005C80.5492 42.0147 79.5756 42.7957 78.257 43.3434C76.9385 43.8708 75.2346 44.1345 73.1452 44.1345H66.8163ZM72.9627 40.3615C74.3623 40.3615 75.4577 40.1384 76.2488 39.6921C77.0602 39.2458 77.4659 38.4649 77.4659 37.3492C77.4659 36.5784 77.2631 35.9901 76.8574 35.5844C76.472 35.1787 75.9141 34.9049 75.1839 34.7629C74.4739 34.6006 73.6118 34.5195 72.5975 34.5195H71.4109V40.3615H72.9627ZM98.7214 44.1345H86.2157V22.4093H98.7214V26.1823H90.8103V30.9594H98.1737V34.7324H90.8103V40.3311H98.7214V44.1345ZM120.251 22.4093V40.3007H123.142V50.4634H118.699V44.1345H105.098V50.4634H100.656V40.3007H102.329C102.897 39.1647 103.445 37.9679 103.972 36.7102C104.5 35.4526 104.987 34.1036 105.433 32.6634C105.899 31.2232 106.315 29.6612 106.68 27.9776C107.045 26.2736 107.35 24.4176 107.593 22.4093H120.251ZM111.244 26.2432C111.102 27.298 110.9 28.4238 110.636 29.6206C110.372 30.7972 110.058 32.0041 109.693 33.2415C109.348 34.4789 108.962 35.696 108.536 36.8928C108.11 38.0896 107.654 39.2256 107.167 40.3007H115.656V26.2432H111.244ZM126.479 22.4093H130.617V32.9068C130.617 33.4139 130.607 33.9819 130.586 34.6107C130.566 35.2396 130.546 35.8583 130.525 36.4668C130.505 37.0551 130.485 37.5723 130.465 38.0186C130.444 38.4446 130.424 38.7387 130.404 38.901H130.495L140.536 22.4093H146.043V44.1345H141.936V33.6979C141.936 33.1502 141.946 32.5518 141.966 31.9027C141.986 31.2333 142.007 30.5943 142.027 29.9858C142.068 29.3772 142.098 28.8498 142.118 28.4035C142.159 27.937 142.189 27.6327 142.21 27.4907H142.088L132.016 44.1345H126.479V22.4093ZM169.328 44.1345H164.733V34.7629H156.122V44.1345H151.528V22.4093H156.122V30.929H164.733V22.4093H169.328V44.1345ZM187.3 44.1345H174.794V22.4093H187.3V26.1823H179.389V30.9594H186.752V34.7324H179.389V40.3311H187.3V44.1345ZM209.62 44.1345H205.026V34.7629H196.415V44.1345H191.82V22.4093H196.415V30.929H205.026V22.4093H209.62V44.1345ZM215.087 22.4093H219.225V32.9068C219.225 33.4139 219.215 33.9819 219.194 34.6107C219.174 35.2396 219.154 35.8583 219.133 36.4668C219.113 37.0551 219.093 37.5723 219.073 38.0186C219.052 38.4446 219.032 38.7387 219.012 38.901H219.103L229.144 22.4093H234.651V44.1345H230.544V33.6979C230.544 33.1502 230.554 32.5518 230.574 31.9027C230.594 31.2333 230.615 30.5943 230.635 29.9858C230.676 29.3772 230.706 28.8498 230.726 28.4035C230.767 27.937 230.797 27.6327 230.818 27.4907H230.696L220.624 44.1345H215.087V22.4093ZM252.641 44.1345H240.136V22.4093H252.641V26.1823H244.73V30.9594H252.094V34.7324H244.73V40.3311H252.641V44.1345Z" fill="white"/>
</svg>
