<svg width="384" height="71" viewBox="0 0 384 71" fill="none" xmlns="http://www.w3.org/2000/svg">
<path d="M383.724 29.9453C383.72 37.8843 380.597 45.497 375.042 51.1107C369.487 56.7244 361.954 59.8798 354.098 59.8836H32.1891C31.3791 59.9617 30.5656 59.9972 29.752 59.99C20.9514 59.99 11.2167 60.6501 4.98674 66.96L2.1773 69.7991C2.01234 69.9659 1.80215 70.0795 1.57328 70.1256C1.3413 70.176 1.09963 70.1542 0.880183 70.0629C0.660734 69.9717 0.473829 69.8154 0.344153 69.6145C0.219085 69.4147 0.151012 69.1838 0.147472 68.9473V32.9335C0.0561647 31.954 3.33332e-06 30.9532 3.33332e-06 29.9453C-0.00184293 26.0123 0.763286 22.1175 2.25181 18.4836C3.74033 14.8496 5.92299 11.5477 8.67499 8.76663C11.427 5.98558 14.6944 3.77989 18.2904 2.27566C21.8865 0.771428 25.7406 -0.00186238 29.6325 3.36813e-06H354.098C357.988 0.000935344 361.841 0.776241 365.435 2.28164C369.029 3.78704 372.294 5.99306 375.044 8.77374C377.795 11.5544 379.976 14.8553 381.464 18.4879C382.952 22.1206 383.717 26.0138 383.717 29.9453H383.724Z" fill="#DD3618"/>
<path d="M38.2878 43.3687H33.6932V33.997H25.0823V43.3687H20.4877V21.6435H25.0823V30.1632H33.6932V21.6435H38.2878V43.3687ZM63.471 32.4756C63.471 34.1593 63.258 35.6908 62.832 37.0702C62.4263 38.4293 61.7975 39.6058 60.9455 40.5998C60.1138 41.5937 59.0387 42.3544 57.7202 42.8818C56.422 43.4092 54.8905 43.6729 53.1257 43.6729C51.3609 43.6729 49.8192 43.4092 48.5007 42.8818C47.2025 42.3341 46.1274 41.5734 45.2754 40.5998C44.4437 39.6058 43.8149 38.4191 43.3889 37.0397C42.9832 35.6604 42.7803 34.1289 42.7803 32.4452C42.7803 30.1936 43.1455 28.2361 43.8757 26.5727C44.6263 24.9094 45.7622 23.6213 47.2836 22.7084C48.8253 21.7753 50.7827 21.3088 53.1561 21.3088C55.5091 21.3088 57.4464 21.7753 58.9677 22.7084C60.4891 23.6213 61.6149 24.9195 62.3452 26.6031C63.0957 28.2665 63.471 30.224 63.471 32.4756ZM47.6183 32.4756C47.6183 33.997 47.811 35.3054 48.1964 36.4008C48.5818 37.4962 49.1802 38.338 49.9916 38.9262C50.803 39.5145 51.8477 39.8086 53.1257 39.8086C54.4442 39.8086 55.499 39.5145 56.2901 38.9262C57.1015 38.338 57.6898 37.4962 58.0549 36.4008C58.4403 35.3054 58.633 33.997 58.633 32.4756C58.633 30.1834 58.207 28.3882 57.3551 27.09C56.5031 25.7917 55.1034 25.1426 53.1561 25.1426C51.8579 25.1426 50.803 25.4368 49.9916 26.025C49.1802 26.6133 48.5818 27.4551 48.1964 28.5505C47.811 29.6459 47.6183 30.9543 47.6183 32.4756ZM74.726 21.6435C76.6531 21.6435 78.2658 21.826 79.564 22.1912C80.8825 22.536 81.8663 23.1141 82.5155 23.9255C83.1849 24.7166 83.5196 25.7917 83.5196 27.1508C83.5196 27.9622 83.3877 28.7026 83.124 29.372C82.8603 30.0414 82.4749 30.5891 81.9678 31.0151C81.4809 31.4411 80.8825 31.715 80.1725 31.8367V31.9888C80.9028 32.1308 81.5621 32.3844 82.1503 32.7495C82.7386 33.1146 83.2051 33.642 83.55 34.3317C83.8948 35.0214 84.0673 35.9342 84.0673 37.0702C84.0673 38.3887 83.7427 39.5247 83.0936 40.478C82.4647 41.4112 81.5519 42.1313 80.3551 42.6384C79.1583 43.1252 77.7384 43.3687 76.0953 43.3687H67.9711V21.6435H74.726ZM75.2433 30.2544C76.5821 30.2544 77.5051 30.0414 78.0122 29.6155C78.5396 29.1895 78.8033 28.5708 78.8033 27.7594C78.8033 26.9277 78.499 26.3293 77.8905 25.9642C77.2819 25.599 76.3184 25.4165 74.9999 25.4165H72.5657V30.2544H75.2433ZM72.5657 33.9057V39.5652H75.578C76.9574 39.5652 77.9209 39.3015 78.4686 38.7741C79.0163 38.2264 79.2901 37.5063 79.2901 36.6138C79.2901 36.0661 79.1684 35.5894 78.925 35.1837C78.7019 34.778 78.3063 34.4636 77.7384 34.2404C77.1704 34.0173 76.3995 33.9057 75.4259 33.9057H72.5657ZM88.4146 43.3687V21.6435H93.0091V29.9806H94.5001C96.5083 29.9806 98.1615 30.2646 99.4597 30.8326C100.758 31.4005 101.711 32.1815 102.32 33.1755C102.949 34.1694 103.263 35.3054 103.263 36.5833C103.263 38.0033 102.949 39.2204 102.32 40.2346C101.691 41.2489 100.717 42.0298 99.3989 42.5775C98.1006 43.1049 96.417 43.3687 94.3479 43.3687H88.4146ZM94.2262 39.5957C95.5853 39.5957 96.6503 39.3725 97.4211 38.9262C98.2122 38.48 98.6078 37.699 98.6078 36.5833C98.6078 35.8125 98.4252 35.2242 98.0601 34.8185C97.7152 34.4128 97.198 34.139 96.5083 33.997C95.8186 33.8347 94.9869 33.7536 94.0132 33.7536H93.0091V39.5957H94.2262ZM105.91 43.3687V21.6435H110.505V43.3687H105.91ZM133.485 14.493C133.384 15.5478 133.09 16.481 132.603 17.2924C132.116 18.0835 131.355 18.7022 130.321 19.1484C129.286 19.5947 127.897 19.8178 126.152 19.8178C124.367 19.8178 122.967 19.6048 121.953 19.1789C120.959 18.7326 120.249 18.1139 119.823 17.3228C119.397 16.5317 119.144 15.5884 119.063 14.493H123.109C123.211 15.6087 123.495 16.3491 123.961 16.7142C124.428 17.0794 125.189 17.2619 126.243 17.2619C127.116 17.2619 127.826 17.0692 128.373 16.6838C128.941 16.2781 129.276 15.5478 129.377 14.493H133.485ZM115.989 21.6435H120.128V32.1409C120.128 32.6481 120.117 33.216 120.097 33.8449C120.077 34.4737 120.057 35.0924 120.036 35.7009C120.016 36.2892 119.996 36.8065 119.975 37.2527C119.955 37.6787 119.935 37.9729 119.915 38.1351H120.006L130.047 21.6435H135.554V43.3687H131.447V32.932C131.447 32.3844 131.457 31.7859 131.477 31.1368C131.497 30.4674 131.518 29.8284 131.538 29.2199C131.578 28.6114 131.609 28.0839 131.629 27.6377C131.67 27.1711 131.7 26.8668 131.72 26.7249H131.599L121.527 43.3687H115.989V21.6435ZM167.464 21.6435C169.391 21.6435 171.004 21.826 172.302 22.1912C173.621 22.536 174.605 23.1141 175.254 23.9255C175.923 24.7166 176.258 25.7917 176.258 27.1508C176.258 27.9622 176.126 28.7026 175.862 29.372C175.599 30.0414 175.213 30.5891 174.706 31.0151C174.219 31.4411 173.621 31.715 172.911 31.8367V31.9888C173.641 32.1308 174.3 32.3844 174.889 32.7495C175.477 33.1146 175.943 33.642 176.288 34.3317C176.633 35.0214 176.806 35.9342 176.806 37.0702C176.806 38.3887 176.481 39.5247 175.832 40.478C175.203 41.4112 174.29 42.1313 173.093 42.6384C171.897 43.1252 170.477 43.3687 168.834 43.3687H160.709V21.6435H167.464ZM167.982 30.2544C169.32 30.2544 170.243 30.0414 170.75 29.6155C171.278 29.1895 171.542 28.5708 171.542 27.7594C171.542 26.9277 171.237 26.3293 170.629 25.9642C170.02 25.599 169.057 25.4165 167.738 25.4165H165.304V30.2544H167.982ZM165.304 33.9057V39.5652H168.316C169.696 39.5652 170.659 39.3015 171.207 38.7741C171.755 38.2264 172.028 37.5063 172.028 36.6138C172.028 36.0661 171.907 35.5894 171.663 35.1837C171.44 34.778 171.045 34.4636 170.477 34.2404C169.909 34.0173 169.138 33.9057 168.164 33.9057H165.304ZM196.154 26.7249C196.154 28.1854 195.636 29.3619 194.602 30.2544C193.567 31.147 192.249 31.7048 190.646 31.9279V32.0192C192.634 32.2221 194.155 32.7799 195.21 33.6927C196.285 34.5853 196.823 35.7517 196.823 37.1919C196.823 38.4496 196.478 39.5754 195.788 40.5693C195.099 41.543 194.074 42.3037 192.715 42.8514C191.356 43.3991 189.673 43.6729 187.664 43.6729C186.021 43.6729 184.561 43.5715 183.283 43.3687C182.025 43.1658 180.93 42.8717 179.997 42.4863V38.622C180.625 38.9262 181.335 39.19 182.127 39.4131C182.918 39.6159 183.719 39.7782 184.53 39.8999C185.342 40.0014 186.092 40.0521 186.782 40.0521C188.709 40.0521 190.098 39.7782 190.95 39.2305C191.823 38.6625 192.259 37.8714 192.259 36.8572C192.259 35.8227 191.63 35.0721 190.372 34.6056C189.115 34.1187 187.421 33.8753 185.291 33.8753H183.252V30.2849H185.078C186.802 30.2849 188.141 30.1733 189.094 29.9502C190.048 29.727 190.717 29.4025 191.103 28.9765C191.488 28.5505 191.681 28.0434 191.681 27.4551C191.681 26.7046 191.346 26.1163 190.677 25.6903C190.028 25.2441 189.044 25.0209 187.725 25.0209C186.609 25.0209 185.555 25.1832 184.561 25.5078C183.587 25.8323 182.674 26.2583 181.822 26.7857L179.814 23.7125C180.565 23.2257 181.356 22.8099 182.187 22.465C183.039 22.0999 183.972 21.826 184.987 21.6435C186.001 21.4406 187.127 21.3392 188.364 21.3392C190.007 21.3392 191.407 21.5725 192.563 22.039C193.719 22.5056 194.602 23.1446 195.21 23.956C195.839 24.7471 196.154 25.67 196.154 26.7249ZM214.606 21.6435V25.4469H205.478V43.3687H200.883V21.6435H214.606ZM233.615 43.3687H229.021V25.4773H223.696C223.574 26.4104 223.442 27.4247 223.3 28.5201C223.179 29.6155 223.037 30.7311 222.874 31.8671C222.732 32.9828 222.58 34.0477 222.418 35.062C222.256 36.0559 222.093 36.9383 221.931 37.7092C221.667 38.9668 221.312 40.0419 220.866 40.9345C220.44 41.827 219.842 42.5065 219.071 42.9731C218.32 43.4396 217.337 43.6729 216.119 43.6729C215.714 43.6729 215.328 43.6425 214.963 43.5816C214.598 43.5208 214.253 43.4396 213.929 43.3382V39.5652C214.192 39.6464 214.446 39.7174 214.689 39.7782C214.953 39.8391 215.237 39.8695 215.541 39.8695C215.947 39.8695 216.282 39.7376 216.545 39.4739C216.809 39.2102 217.042 38.764 217.245 38.1351C217.448 37.486 217.651 36.5935 217.854 35.4575C217.955 34.9707 218.077 34.281 218.219 33.3885C218.361 32.4756 218.523 31.4107 218.706 30.1936C218.909 28.9562 219.111 27.6174 219.314 26.1772C219.517 24.7166 219.71 23.2054 219.892 21.6435H233.615V43.3687ZM246.398 35.0315L241.317 43.3687H236.205L242.382 33.8144C241.794 33.571 241.205 33.216 240.617 32.7495C240.029 32.2626 239.542 31.6237 239.157 30.8326C238.771 30.0212 238.578 29.0272 238.578 27.8507C238.578 25.8425 239.299 24.3109 240.739 23.2561C242.179 22.181 244.197 21.6435 246.794 21.6435H253.853V43.3687H249.258V35.0315H246.398ZM246.976 25.4165C246.185 25.4165 245.506 25.5078 244.938 25.6903C244.39 25.8729 243.964 26.167 243.66 26.5727C243.376 26.9784 243.234 27.516 243.234 28.1854C243.234 29.1388 243.548 29.8994 244.177 30.4674C244.826 31.0151 245.8 31.289 247.098 31.289H249.258V25.4165H246.976ZM276.34 21.6435V39.5348H279.231V49.6976H274.788V43.3687H261.187V49.6976H256.745V39.5348H258.418C258.986 38.3988 259.534 37.202 260.061 35.9444C260.589 34.6867 261.076 33.3377 261.522 31.8975C261.988 30.4573 262.404 28.8953 262.769 27.2117C263.135 25.5078 263.439 23.6517 263.682 21.6435H276.34ZM267.334 25.4773C267.192 26.5321 266.989 27.658 266.725 28.8548C266.461 30.0313 266.147 31.2383 265.782 32.4756C265.437 33.713 265.051 34.9301 264.625 36.1269C264.199 37.3237 263.743 38.4597 263.256 39.5348H271.745V25.4773H267.334Z" fill="white"/>
</svg>
