<svg width="484" height="71" viewBox="0 0 484 71" fill="none" xmlns="http://www.w3.org/2000/svg">
<path d="M472.47 29.9453C472.466 37.8843 469.344 45.497 463.789 51.1107C458.234 56.7244 450.701 59.8798 442.845 59.8836H32.1891C31.3791 59.9617 30.5656 59.9972 29.752 59.99C20.9514 59.99 11.2167 60.6501 4.98674 66.96L2.1773 69.7991C2.01234 69.9659 1.80215 70.0795 1.57328 70.1256C1.3413 70.176 1.09963 70.1542 0.880183 70.0629C0.660734 69.9717 0.473829 69.8154 0.344153 69.6145C0.219085 69.4147 0.151012 69.1838 0.147472 68.9473V32.9335C0.0561647 31.954 3.33332e-06 30.9532 3.33332e-06 29.9453C-0.00184293 26.0123 0.763286 22.1175 2.25181 18.4836C3.74033 14.8496 5.92299 11.5477 8.67499 8.76663C11.427 5.98558 14.6944 3.77989 18.2904 2.27566C21.8865 0.771428 25.7406 -0.00186238 29.6325 3.36813e-06H442.845C446.735 0.000935344 450.587 0.776241 454.181 2.28164C457.775 3.78704 461.041 5.99306 463.791 8.77374C466.541 11.5544 468.723 14.8553 470.211 18.4879C471.699 22.1206 472.464 26.0138 472.463 29.9453H472.47Z" fill="#DD3618"/>
<path d="M20.4877 21.6435H24.6259V32.1409C24.6259 32.6481 24.6157 33.216 24.5954 33.8449C24.5752 34.4737 24.5549 35.0924 24.5346 35.7009C24.5143 36.2892 24.494 36.8065 24.4737 37.2527C24.4534 37.6787 24.4332 37.9729 24.4129 38.1351H24.5042L34.5452 21.6435H40.0526V43.3687H35.9449V32.932C35.9449 32.3844 35.955 31.7859 35.9753 31.1368C35.9956 30.4674 36.0159 29.8284 36.0361 29.2199C36.0767 28.6114 36.1071 28.0839 36.1274 27.6377C36.168 27.1711 36.1984 26.8668 36.2187 26.7249H36.097L26.0255 43.3687H20.4877V21.6435ZM63.3369 43.3687H58.7424V33.997H50.1314V43.3687H45.5369V21.6435H50.1314V30.1632H58.7424V21.6435H63.3369V43.3687ZM77.1707 43.3687H72.5762V25.4773H66.6732V21.6435H83.0736V25.4773H77.1707V43.3687ZM98.9294 43.3687H86.4237V21.6435H98.9294V25.4165H91.0183V30.1936H98.3817V33.9666H91.0183V39.5652H98.9294V43.3687ZM110.387 21.6435C113.187 21.6435 115.225 22.252 116.503 23.4691C117.802 24.6659 118.451 26.3192 118.451 28.4288C118.451 29.3822 118.309 30.295 118.025 31.1673C117.741 32.0192 117.264 32.7901 116.595 33.4797C115.946 34.1491 115.083 34.6766 114.008 35.062C112.933 35.4474 111.605 35.6401 110.022 35.6401H108.045V43.3687H103.45V21.6435H110.387ZM110.144 25.4165H108.045V31.8671H109.566C110.438 31.8671 111.189 31.7555 111.818 31.5324C112.446 31.3093 112.933 30.9543 113.278 30.4674C113.623 29.9806 113.795 29.3518 113.795 28.5809C113.795 27.5058 113.501 26.7147 112.913 26.2076C112.325 25.6802 111.402 25.4165 110.144 25.4165ZM134.338 43.3687L132.755 38.196H124.844L123.262 43.3687H118.302L125.97 21.5522H131.599L139.297 43.3687H134.338ZM130.078 29.2808C129.976 28.9359 129.845 28.4998 129.682 27.9724C129.52 27.445 129.358 26.9074 129.195 26.3597C129.033 25.812 128.901 25.3353 128.8 24.9296C128.698 25.3353 128.556 25.8425 128.374 26.451C128.212 27.0393 128.049 27.6072 127.887 28.1549C127.745 28.6824 127.633 29.0576 127.552 29.2808L126.001 34.3317H131.66L130.078 29.2808ZM159.758 43.3687H154.524L146.643 32.3539V43.3687H142.049V21.6435H146.643V32.1714L154.433 21.6435H159.332L151.42 32.0801L159.758 43.3687ZM170.86 43.3687H166.265V25.4773H160.362V21.6435H176.763V25.4773H170.86V43.3687ZM180.113 21.6435H184.251V32.1409C184.251 32.6481 184.241 33.216 184.221 33.8449C184.2 34.4737 184.18 35.0924 184.16 35.7009C184.139 36.2892 184.119 36.8065 184.099 37.2527C184.079 37.6787 184.058 37.9729 184.038 38.1351H184.129L194.17 21.6435H199.678V43.3687H195.57V32.932C195.57 32.3844 195.58 31.7859 195.6 31.1368C195.621 30.4674 195.641 29.8284 195.661 29.2199C195.702 28.6114 195.732 28.0839 195.753 27.6377C195.793 27.1711 195.824 26.8668 195.844 26.7249H195.722L185.651 43.3687H180.113V21.6435ZM211.917 21.6435C213.844 21.6435 215.457 21.826 216.755 22.1912C218.073 22.536 219.057 23.1141 219.706 23.9255C220.376 24.7166 220.71 25.7917 220.71 27.1508C220.71 27.9622 220.579 28.7026 220.315 29.372C220.051 30.0414 219.666 30.5891 219.159 31.0151C218.672 31.4411 218.073 31.715 217.363 31.8367V31.9888C218.094 32.1308 218.753 32.3844 219.341 32.7495C219.929 33.1146 220.396 33.642 220.741 34.3317C221.086 35.0214 221.258 35.9342 221.258 37.0702C221.258 38.3887 220.934 39.5247 220.284 40.478C219.656 41.4112 218.743 42.1313 217.546 42.6384C216.349 43.1252 214.929 43.3687 213.286 43.3687H205.162V21.6435H211.917ZM212.434 30.2544C213.773 30.2544 214.696 30.0414 215.203 29.6155C215.73 29.1895 215.994 28.5708 215.994 27.7594C215.994 26.9277 215.69 26.3293 215.081 25.9642C214.473 25.599 213.509 25.4165 212.191 25.4165H209.757V30.2544H212.434ZM209.757 33.9057V39.5652H212.769C214.148 39.5652 215.112 39.3015 215.659 38.7741C216.207 38.2264 216.481 37.5063 216.481 36.6138C216.481 36.0661 216.359 35.5894 216.116 35.1837C215.893 34.778 215.497 34.4636 214.929 34.2404C214.361 34.0173 213.59 33.9057 212.617 33.9057H209.757ZM243.405 43.3687H238.811V33.997H230.2V43.3687H225.605V21.6435H230.2V30.1632H238.811V21.6435H243.405V43.3687ZM268.589 32.4756C268.589 34.1593 268.376 35.6908 267.95 37.0702C267.544 38.4293 266.915 39.6058 266.063 40.5998C265.231 41.5937 264.156 42.3544 262.838 42.8818C261.54 43.4092 260.008 43.6729 258.243 43.6729C256.479 43.6729 254.937 43.4092 253.618 42.8818C252.32 42.3341 251.245 41.5734 250.393 40.5998C249.561 39.6058 248.933 38.4191 248.507 37.0397C248.101 35.6604 247.898 34.1289 247.898 32.4452C247.898 30.1936 248.263 28.2361 248.993 26.5727C249.744 24.9094 250.88 23.6213 252.401 22.7084C253.943 21.7753 255.9 21.3088 258.274 21.3088C260.627 21.3088 262.564 21.7753 264.085 22.7084C265.607 23.6213 266.733 24.9195 267.463 26.6031C268.213 28.2665 268.589 30.224 268.589 32.4756ZM252.736 32.4756C252.736 33.997 252.929 35.3054 253.314 36.4008C253.699 37.4962 254.298 38.338 255.109 38.9262C255.921 39.5145 256.965 39.8086 258.243 39.8086C259.562 39.8086 260.617 39.5145 261.408 38.9262C262.219 38.338 262.807 37.4962 263.173 36.4008C263.558 35.3054 263.751 33.997 263.751 32.4756C263.751 30.1834 263.325 28.3882 262.473 27.09C261.621 25.7917 260.221 25.1426 258.274 25.1426C256.975 25.1426 255.921 25.4368 255.109 26.025C254.298 26.6133 253.699 27.4551 253.314 28.5505C252.929 29.6459 252.736 30.9543 252.736 32.4756ZM282.308 25.1731C281.436 25.1731 280.655 25.3455 279.965 25.6903C279.296 26.0352 278.728 26.5321 278.261 27.1813C277.795 27.8101 277.44 28.5809 277.197 29.4937C276.973 30.4066 276.862 31.431 276.862 32.5669C276.862 34.1086 277.044 35.4271 277.41 36.5225C277.795 37.5976 278.393 38.4191 279.205 38.9871C280.016 39.5551 281.051 39.8391 282.308 39.8391C283.201 39.8391 284.083 39.7376 284.956 39.5348C285.848 39.3319 286.812 39.048 287.846 38.6828V42.5471C286.893 42.9325 285.949 43.2165 285.016 43.3991C284.083 43.5816 283.039 43.6729 281.882 43.6729C279.651 43.6729 277.805 43.2165 276.345 42.3037C274.904 41.3706 273.839 40.0723 273.15 38.409C272.46 36.7253 272.115 34.7678 272.115 32.5365C272.115 30.8934 272.338 29.3923 272.785 28.0332C273.231 26.6539 273.88 25.4672 274.732 24.4732C275.604 23.4793 276.669 22.7084 277.927 22.1607C279.205 21.613 280.665 21.3392 282.308 21.3392C283.383 21.3392 284.459 21.4812 285.534 21.7652C286.629 22.0289 287.674 22.394 288.668 22.8606L287.177 26.6031C286.365 26.2177 285.544 25.883 284.712 25.599C283.901 25.315 283.099 25.1731 282.308 25.1731ZM300.83 43.3687H296.236V25.4773H290.333V21.6435H306.733V25.4773H300.83V43.3687ZM310.083 43.3687V21.6435H314.678V29.9806H316.503C318.552 29.9806 320.226 30.2646 321.524 30.8326C322.842 31.4005 323.816 32.1815 324.445 33.1755C325.074 34.1694 325.388 35.3054 325.388 36.5833C325.388 38.0033 325.074 39.2204 324.445 40.2346C323.816 41.2489 322.842 42.0298 321.524 42.5775C320.205 43.1049 318.501 43.3687 316.412 43.3687H310.083ZM316.229 39.5957C317.629 39.5957 318.724 39.3725 319.516 38.9262C320.327 38.48 320.733 37.699 320.733 36.5833C320.733 35.8125 320.53 35.2242 320.124 34.8185C319.739 34.4128 319.181 34.139 318.451 33.997C317.741 33.8347 316.879 33.7536 315.864 33.7536H314.678V39.5957H316.229Z" fill="white"/>
</svg>
