<svg width="300" height="71" viewBox="0 0 300 71" fill="none" xmlns="http://www.w3.org/2000/svg">
<path d="M299.203 30.7112C299.199 38.6501 296.077 46.2629 290.522 51.8766C284.967 57.4903 277.433 60.6457 269.577 60.6494H32.1891C31.3791 60.7276 30.5656 60.7631 29.752 60.7559C20.9514 60.7559 11.2167 61.416 4.98674 67.7258L2.1773 70.5649C2.01234 70.7317 1.80215 70.8454 1.57328 70.8914C1.3413 70.9419 1.09963 70.9201 0.880183 70.8288C0.660734 70.7376 0.473829 70.5812 0.344153 70.3804C0.219085 70.1805 0.151012 69.9497 0.147472 69.7132V33.6993C0.0561647 32.7199 3.33333e-06 31.7191 3.33333e-06 30.7112C-0.00184293 26.7782 0.763286 22.8834 2.25181 19.2494C3.74033 15.6154 5.92299 12.3136 8.67499 9.5325C11.427 6.75145 14.6944 4.54576 18.2904 3.04153C21.8865 1.5373 25.7406 0.764007 29.6325 0.765873H269.577C273.468 0.766804 277.32 1.54211 280.914 3.04751C284.508 4.5529 287.773 6.75893 290.524 9.53961C293.274 12.3203 295.455 15.6212 296.943 19.2538C298.431 22.8864 299.197 26.7796 299.196 30.7112H299.203Z" fill="#DD3618"/>
<path d="M29.7072 25.0937C28.835 25.0937 28.054 25.2661 27.3643 25.611C26.6949 25.9558 26.127 26.4528 25.6604 27.1019C25.1938 27.7308 24.8389 28.5016 24.5954 29.4144C24.3723 30.3272 24.2607 31.3516 24.2607 32.4876C24.2607 34.0292 24.4433 35.3477 24.8084 36.4431C25.1938 37.5182 25.7922 38.3398 26.6036 38.9078C27.415 39.4757 28.4496 39.7597 29.7072 39.7597C30.5998 39.7597 31.4822 39.6583 32.3544 39.4555C33.247 39.2526 34.2105 38.9686 35.245 38.6035V42.4678C34.2916 42.8532 33.3484 43.1372 32.4153 43.3197C31.4822 43.5023 30.4375 43.5936 29.2813 43.5936C27.0499 43.5936 25.204 43.1372 23.7435 42.2243C22.3032 41.2912 21.2383 39.993 20.5486 38.3296C19.8589 36.646 19.5141 34.6885 19.5141 32.4571C19.5141 30.8141 19.7372 29.313 20.1835 27.9539C20.6297 26.5745 21.2788 25.3878 22.1308 24.3939C23.0031 23.3999 24.068 22.6291 25.3257 22.0814C26.6036 21.5337 28.0642 21.2599 29.7072 21.2599C30.7823 21.2599 31.8574 21.4018 32.9326 21.6858C34.0279 21.9495 35.0726 22.3147 36.0666 22.7812L34.5756 26.5238C33.7642 26.1384 32.9427 25.8037 32.111 25.5197C31.2996 25.2357 30.4984 25.0937 29.7072 25.0937ZM49.0505 43.2893L43.817 26.25H43.6953C43.7156 26.6557 43.746 27.2642 43.7866 28.0756C43.8272 28.887 43.8677 29.7592 43.9083 30.6924C43.9489 31.6052 43.9691 32.4369 43.9691 33.1874V43.2893H39.8614V21.5641H46.1295L51.2717 38.1775H51.363L56.8095 21.5641H63.0776V43.2893H58.7873V33.0048C58.7873 32.3152 58.7974 31.524 58.8177 30.6315C58.8583 29.739 58.8887 28.8971 58.909 28.106C58.9496 27.2946 58.98 26.6861 59.0003 26.2804H58.8786L53.2799 43.2893H49.0505ZM81.0711 43.2893H68.5654V21.5641H81.0711V25.3371H73.16V30.1142H80.5234V33.8872H73.16V39.4859H81.0711V43.2893ZM112.916 43.2893H85.5917V21.5641H90.1863V39.4555H96.9411V21.5641H101.566V39.4555H108.321V21.5641H112.916V43.2893ZM130.902 43.2893H118.396V21.5641H130.902V25.3371H122.991V30.1142H130.354V33.8872H122.991V39.4859H130.902V43.2893ZM153.223 43.2893H148.628V33.9177H140.017V43.2893H135.423V21.5641H140.017V30.0838H148.628V21.5641H153.223V43.2893ZM158.689 21.5641H162.827V32.0616C162.827 32.5687 162.817 33.1367 162.797 33.7655C162.776 34.3944 162.756 35.013 162.736 35.6216C162.715 36.2099 162.695 36.7271 162.675 37.1734C162.655 37.5994 162.634 37.8935 162.614 38.0558H162.705L172.746 21.5641H178.254V43.2893H174.146V32.8527C174.146 32.305 174.156 31.7066 174.176 31.0575C174.197 30.3881 174.217 29.7491 174.237 29.1406C174.278 28.532 174.308 28.0046 174.329 27.5583C174.369 27.0918 174.4 26.7875 174.42 26.6455H174.298L164.227 43.2893H158.689V21.5641ZM196.244 43.2893H183.738V21.5641H196.244V25.3371H188.333V30.1142H195.696V33.8872H188.333V39.4859H196.244V43.2893Z" fill="white"/>
</svg>
