<svg width="349" height="112" viewBox="0 0 349 112" fill="none" xmlns="http://www.w3.org/2000/svg">
<path fill-rule="evenodd" clip-rule="evenodd" d="M55.8861 22.3737C61.1775 22.3742 66.3942 23.6224 71.1124 26.0169C75.8305 28.4113 79.917 31.8845 83.04 36.1542C86.1629 40.4239 88.2342 45.3698 89.0855 50.59C89.9368 55.8102 89.5442 61.1576 87.9395 66.1976C86.3348 71.2376 83.5633 75.8283 79.8502 79.5965C76.1371 83.3647 71.587 86.2043 66.5697 87.8845C61.5524 89.5648 56.2093 90.0383 50.9744 89.2666C45.7396 88.4949 40.7607 86.4998 36.4423 83.4433L38.3932 81.4932C42.7928 77.0956 49.6674 76.6443 55.8894 76.6443C59.7912 76.6418 63.6146 75.5491 66.9279 73.4894C70.2412 71.4297 72.9125 68.4852 74.64 64.9882C76.3676 61.4912 77.0827 57.5811 76.7045 53.6994C76.3264 49.8177 74.8701 46.1189 72.5 43.0208C70.13 39.9226 66.9406 37.5485 63.292 36.1664C59.6434 34.7843 55.6809 34.4494 51.8519 35.1994C48.023 35.9494 44.48 37.7545 41.6231 40.4108C38.7662 43.0671 36.7092 46.4689 35.6843 50.232C35.2021 52.9262 34.9606 55.6579 34.9626 58.3949V82.3168C29.4953 77.9767 25.5145 72.0437 23.5722 65.3406C21.63 58.6375 21.8225 51.4963 24.1231 44.9075C26.4237 38.3186 30.7183 32.6085 36.4115 28.5691C42.1047 24.5296 48.9143 22.361 55.896 22.3638L55.8861 22.3737Z" fill="white"/>
<path d="M117.853 60.9609V70.9025C117.853 75.7646 118.334 76.2489 122.987 76.407V77.7971H106.087V76.4235C110.474 76.2654 110.902 75.7646 110.902 70.919V44.7637C110.902 39.9016 110.474 39.4206 106.288 39.2065V37.8164H122.397C133.305 37.8164 138.064 41.183 138.064 48.9341C138.064 54.3858 135.82 57.8611 131.219 59.5708C128.866 60.4272 124.958 60.9609 120.473 60.9609H117.853ZM117.853 59.4094H120.634C123.949 59.4094 126.461 58.6616 128.013 57.2188C129.723 55.5717 130.633 52.7289 130.633 49.2536C130.633 42.6818 127.479 39.3712 121.273 39.3712H117.853V59.4094Z" fill="white"/>
<path d="M168.733 76.3544V77.6391C165.579 78.0113 162.745 78.2781 161.354 78.2781C159.644 78.2781 159.106 77.4777 158.84 74.2132C156.058 77.2108 153.171 78.545 149.698 78.545C144.616 78.545 141.459 75.5012 141.459 70.6885C141.459 66.0767 144.293 63.2603 150.027 62.1238C152.924 61.5868 155.854 61.2467 158.797 61.1059V57.6471C158.797 51.9812 157.834 50.3242 154.625 50.3242C152.914 50.3242 151.79 50.8579 151.042 52.1426C150.508 53.0485 150.347 53.905 150.189 55.9374C150.08 57.8612 149.17 58.5562 146.926 58.5562C144.464 58.5562 143.182 57.6998 143.182 56.0955C143.182 54.2245 144.412 52.4094 146.498 51.1247C148.742 49.7346 151.632 49.0955 155.267 49.0955C158.958 49.0955 161.578 49.7906 163.177 51.2861C164.623 52.6762 165.263 54.6 165.263 57.9139L165.141 67.2C165.088 68.6988 165.088 69.7134 165.088 70.0857C165.088 75.9788 165.302 76.3017 168.733 76.3544ZM158.787 66.472V62.3511C151.032 62.9374 148.307 64.9139 148.307 69.888C148.307 73.6828 150.017 76.1929 152.637 76.1929C154.776 76.1929 156.809 74.8753 157.825 72.665C158.517 71.2748 158.777 69.5059 158.777 66.4654L158.787 66.472Z" fill="white"/>
<path d="M171.887 49.896L181.941 49.2009C182.047 51.2334 182.103 52.4621 182.103 53.5294V55.1337C184.242 51.1807 186.967 49.0955 190.012 49.0955C192.632 49.0955 194.557 50.8579 194.557 53.1572C194.557 55.081 192.955 56.4184 190.708 56.4184C189.264 56.4184 188.569 55.9374 188.193 54.7054C187.768 53.2099 187.498 52.8344 186.644 52.8344H186.529C185.514 52.8904 184.446 53.7962 183.536 55.3478C182.68 56.952 182.251 58.7704 182.251 61.2772V71.1595C182.251 75.969 182.581 76.3445 186.535 76.5026V77.7873H171.672V76.5026C175.36 76.4532 175.736 75.9195 175.736 71.1595V56.3624C175.736 51.8198 175.255 51.1774 171.883 51.1774L171.887 49.896Z" fill="white"/>
<path d="M206.276 51.6057V69.4598C206.276 71.8118 206.437 73.2019 206.81 74.2692C206.997 74.8269 207.349 75.3146 207.82 75.6676C208.291 76.0205 208.858 76.2222 209.446 76.2457C210.57 76.2457 211.855 75.656 213.19 74.5986L213.938 75.9393C211.905 77.6958 209.299 78.6463 206.612 78.6108C203.725 78.6108 201.586 77.5403 200.571 75.6692C199.929 74.3516 199.77 73.0339 199.77 68.2937V51.6057H196.722V50.0014C199.075 49.896 200.571 49.0956 201.8 47.1718C202.763 45.673 203.297 44.1247 203.778 41.4499L206.454 41.1831C206.345 43.3737 206.292 45.0306 206.292 49.896H212.761V51.6057H206.276Z" fill="white"/>
<path d="M226.283 49.2009L226.336 54.4913C228.643 50.7525 231.576 49.0955 235.853 49.0955C239.33 49.0955 241.739 50.2715 243.13 52.7191C244.092 54.3233 244.448 56.0857 244.448 59.3073V71.1661C244.448 75.9261 244.824 76.4598 248.512 76.5092V77.7939H233.985V76.5092C237.567 76.4598 237.996 75.8701 237.996 71.1661V59.6235C237.996 53.8522 236.602 51.4475 233.286 51.4475C231.042 51.4475 229.117 52.6763 227.783 54.9755C226.879 56.6732 226.384 58.5578 226.336 60.48V71.1694C226.336 75.9788 226.712 76.4631 230.35 76.5125V77.7972H215.75V76.5125C219.438 76.4631 219.814 75.9294 219.814 71.1694V56.3624C219.814 51.8198 219.385 51.2334 215.859 51.1774V49.896L226.283 49.2009Z" fill="white"/>
<path d="M277.516 62.7233H258.958C259.014 66.6762 259.387 68.9821 260.349 71.2221C261.901 74.7534 264.363 76.5125 267.622 76.5125C271.313 76.5125 274.471 74.3252 276.445 70.4217L277.786 71.2748C275.11 76.3543 271.524 78.6009 266.017 78.6009C257.518 78.6009 252.064 72.8791 252.064 63.952C252.064 55.0249 257.357 49.0824 265.484 49.0824C270.941 49.0824 274.79 51.5398 276.553 56.1351C277.156 57.7525 277.407 59.3567 277.516 62.7233ZM259.031 61.1751H270.849C270.743 57.8052 270.519 56.1482 269.939 54.4913C268.921 51.6584 267.425 50.3242 265.342 50.3242C263.035 50.3242 261.278 51.9285 260.151 55.0282C259.548 56.6852 259.229 58.3948 259.031 61.1751Z" fill="white"/>
<path d="M281.289 49.896L291.341 49.2009C291.45 51.2334 291.502 52.4621 291.502 53.5294V55.1337C293.641 51.1807 296.37 49.0955 299.412 49.0955C302.048 49.0955 303.956 50.8579 303.956 53.1572C303.956 55.081 302.355 56.4184 300.107 56.4184C298.664 56.4184 297.968 55.9374 297.593 54.7054C297.164 53.2099 296.9 52.8344 296.044 52.8344H295.941C294.923 52.8904 293.852 53.7962 292.943 55.3478C292.086 56.952 291.661 58.7704 291.661 61.2772V71.1595C291.661 75.969 291.99 76.3445 295.945 76.5026V77.7873H281.075V76.5026C284.766 76.4532 285.139 75.9195 285.139 71.1595V56.3624C285.139 51.8198 284.661 51.1774 281.289 51.1774V49.896Z" fill="white"/>
<path d="M306.691 78.1727L307.12 68.3892H309.044C309.374 71.1694 309.793 72.6155 310.653 73.9892C312.149 76.2951 314.021 77.3591 316.641 77.3591C319.9 77.3591 321.881 75.6494 321.881 72.7078C321.881 70.0725 320.49 68.913 314.301 66.0273C311.147 64.6372 309.806 63.784 308.524 62.4038C307.905 61.769 307.42 61.0159 307.099 60.1895C306.778 59.3631 306.627 58.4804 306.655 57.5944C306.655 52.4094 310.504 49.0955 316.542 49.0955C317.815 49.1418 319.083 49.2838 320.335 49.5205C321.831 49.7906 322.102 49.8499 322.688 49.8499C323.436 49.8499 324.026 49.7412 325.255 49.3162L324.774 58.6682H322.797C322.424 53.2165 320.18 50.3308 316.331 50.3308C313.444 50.3308 311.569 52.0932 311.569 54.768C311.569 56.1548 312.053 57.12 313.217 58.0259C314.38 58.9318 314.393 58.9351 319.205 61.1257C324.659 63.6391 326.422 65.7374 326.422 69.7332C326.422 75.2937 322.84 78.657 316.796 78.657C315.247 78.657 314.489 78.5515 311.341 78.0179C310.706 77.9112 310.062 77.8583 309.417 77.8598C308.616 77.8532 308.464 77.8532 306.691 78.1727Z" fill="white"/>
</svg>
