<svg width="1220" height="594" viewBox="0 0 1220 594" fill="none" xmlns="http://www.w3.org/2000/svg">
<path d="M-13.5 573C59.1667 551.167 253.5 475.1 371.5 379.5C442.7 332.7 515.833 285.667 543.5 268L621 219C641.667 203.667 686.8 166.7 700 153.5C713.2 140.3 751.333 104.167 769.5 87.5C786.333 74.1667 838.1 49.1 906.5 45.5C974.9 41.9 1065.67 33 1102.5 29L1228.5 16" stroke="#DC3517" stroke-width="42"/>
<path d="M403.059 343.862L406.651 341.52L426.613 356.2L422.887 358.63L418.545 355.31L410.664 360.448L411.977 365.743L408.492 368.015L403.059 343.862ZM409.803 356.96L415.674 353.133L407.29 346.719L409.803 356.96ZM437.593 349.041L429.833 337.14L425.598 339.901L427.411 343.15C429.171 346.281 430.089 348.84 430.163 350.829C430.238 352.818 429.453 354.349 427.809 355.421L427.219 355.805L425.576 353.285L425.898 353.076C427.363 352.12 426.759 349.318 424.084 344.669L420.979 339.321L431.38 332.54L440.783 346.962L437.593 349.041ZM444.56 330.862C446.508 329.592 448.179 329.05 449.573 329.235C450.986 329.41 452.21 330.292 453.247 331.882C454.401 333.652 454.758 335.214 454.318 336.571C453.884 337.898 452.729 339.173 450.853 340.396L444.634 344.451L435.231 330.029L438.421 327.95L441.584 332.802L444.56 330.862ZM448.781 338.156C449.746 337.527 450.344 336.882 450.576 336.222C450.796 335.544 450.626 334.776 450.067 333.918C449.554 333.132 448.961 332.729 448.286 332.71C447.612 332.692 446.783 333.003 445.8 333.644L443.227 335.321L446.181 339.852L448.781 338.156ZM455.294 329.25L453.423 326.381L462.162 320.684L464.032 323.552L455.294 329.25ZM470.102 301.64C472.87 300.065 475.508 299.542 478.018 300.07C480.527 300.599 482.591 302.105 484.211 304.589C485.726 306.913 486.216 309.344 485.681 311.883C485.134 314.404 483.6 316.601 481.078 318.474L482.581 320.78L479.176 322.999L477.673 320.694C474.935 322.275 472.317 322.811 469.82 322.3C467.31 321.771 465.275 320.31 463.714 317.915C462.129 315.485 461.595 313.006 462.112 310.479C462.629 307.951 464.158 305.745 466.698 303.86L465.317 301.742L468.722 299.523L470.102 301.64ZM468.481 306.594C467.049 307.757 466.203 309.136 465.944 310.731C465.674 312.308 466.098 313.954 467.216 315.67C468.276 317.296 469.583 318.304 471.135 318.692C472.693 319.051 474.279 318.807 475.891 317.96L468.481 306.594ZM479.295 315.74C480.721 314.607 481.575 313.261 481.857 311.701C482.146 310.113 481.76 308.505 480.699 306.879C479.581 305.163 478.246 304.111 476.693 303.723C475.141 303.334 473.538 303.551 471.885 304.375L479.295 315.74ZM489.641 309.453C489.186 308.756 488.954 308.029 488.944 307.272C488.952 306.503 489.122 305.768 489.455 305.067C489.776 304.348 490.293 303.578 491.005 302.757C491.736 301.925 492.489 301.166 493.265 300.482C494.03 299.779 494.961 298.981 496.059 298.087L495.884 297.819C495.138 296.675 494.325 296.034 493.445 295.895C492.565 295.756 491.678 295.977 490.785 296.56C489.945 297.108 489.402 297.779 489.158 298.576C488.931 299.36 489.073 300.184 489.585 301.048L486.449 303.092C485.589 301.539 485.425 299.94 485.956 298.294C486.488 296.649 487.62 295.261 489.354 294.131C491.23 292.908 493.043 292.426 494.792 292.687C496.529 292.929 498.09 294.152 499.476 296.356C499.604 296.553 499.956 297.112 500.533 298.035C501.097 298.941 501.537 299.634 501.852 300.117C503.157 302.118 504.372 303.669 505.496 304.77L502.575 306.675C501.819 305.868 501.305 305.274 501.031 304.893C501.139 307.012 500.059 308.812 497.789 310.291C496.216 311.317 494.673 311.762 493.16 311.628C491.664 311.483 490.491 310.758 489.641 309.453ZM497.59 300.26C495.389 302 493.94 303.391 493.243 304.431C492.534 305.453 492.442 306.367 492.966 307.171C493.374 307.796 493.935 308.131 494.651 308.173C495.366 308.216 496.126 307.975 496.931 307.451C498.128 306.671 498.85 305.767 499.097 304.74C499.351 303.683 499.087 302.556 498.306 301.359L497.59 300.26ZM502.134 286.41L503.392 288.34C503.325 286.245 504.265 284.562 506.213 283.292C508 282.127 509.923 281.854 511.982 282.472C514.059 283.079 515.837 284.518 517.316 286.787C518.796 289.057 519.401 291.273 519.13 293.436C518.866 295.569 517.84 297.218 516.053 298.384C514.105 299.654 512.186 299.835 510.296 298.928L514.595 305.522L511.405 307.602L498.944 288.49L502.134 286.41ZM513.661 296.238C514.769 295.515 515.35 294.513 515.404 293.229C515.465 291.916 514.995 290.491 513.993 288.954C513.002 287.435 511.9 286.448 510.686 285.991C509.478 285.506 508.32 285.624 507.212 286.346C506.122 287.057 505.508 288.069 505.37 289.381C505.221 290.675 505.664 292.118 506.701 293.708C507.738 295.299 508.885 296.295 510.141 296.699C511.397 297.102 512.57 296.949 513.661 296.238ZM521.054 288.973C520.6 288.276 520.367 287.548 520.357 286.791C520.365 286.022 520.536 285.287 520.868 284.586C521.189 283.868 521.706 283.098 522.418 282.277C523.149 281.444 523.902 280.685 524.678 280.001C525.443 279.299 526.374 278.501 527.472 277.606L527.297 277.338C526.552 276.195 525.739 275.553 524.858 275.414C523.978 275.275 523.091 275.497 522.198 276.079C521.358 276.627 520.816 277.299 520.571 278.095C520.344 278.88 520.486 279.704 520.998 280.567L517.862 282.612C517.002 281.058 516.838 279.459 517.369 277.814C517.901 276.168 519.034 274.78 520.767 273.65C522.643 272.427 524.456 271.945 526.205 272.206C527.942 272.449 529.503 273.672 530.889 275.875C531.017 276.072 531.37 276.632 531.946 277.555C532.511 278.46 532.95 279.154 533.265 279.636C534.57 281.638 535.785 283.189 536.91 284.289L533.988 286.194C533.233 285.387 532.718 284.793 532.444 284.412C532.552 286.531 531.472 288.331 529.202 289.81C527.63 290.836 526.087 291.282 524.573 291.148C523.078 291.002 521.905 290.277 521.054 288.973ZM529.003 279.779C526.802 281.52 525.353 282.91 524.656 283.95C523.947 284.973 523.855 285.886 524.379 286.69C524.787 287.316 525.349 287.65 526.064 287.693C526.78 287.735 527.539 287.495 528.344 286.97C529.541 286.19 530.263 285.286 530.51 284.259C530.764 283.202 530.5 282.075 529.72 280.878L529.003 279.779ZM548.589 267.086C550.033 269.302 550.493 271.472 549.969 273.597C549.462 275.71 548.252 277.39 546.34 278.637C544.321 279.953 542.19 280.337 539.947 279.787C537.71 279.208 535.724 277.587 533.988 274.925L533.149 273.638C531.437 270.934 530.659 268.296 530.816 265.724C530.972 263.151 532.17 260.868 534.409 258.873L538.942 254.81L540.76 257.598L536.405 261.583C535.109 262.759 534.277 264.04 533.907 265.427C533.538 266.814 533.779 268.414 534.63 270.227C534.56 269.025 534.817 267.915 535.401 266.898C536.003 265.868 536.823 265.016 537.859 264.34C539.629 263.187 541.502 262.818 543.48 263.235C545.476 263.64 547.179 264.924 548.589 267.086ZM545.291 269.236C544.394 267.86 543.37 267.012 542.22 266.692C541.069 266.373 539.976 266.551 538.939 267.227C537.867 267.926 537.209 268.89 536.966 270.118C536.729 271.317 537.065 272.613 537.973 274.007C538.871 275.383 539.936 276.255 541.168 276.622C542.39 276.972 543.554 276.786 544.662 276.063C545.735 275.364 546.336 274.412 546.467 273.206C546.615 271.989 546.224 270.665 545.291 269.236ZM568.869 263.452L565.679 265.532L559.16 255.533L558.817 270.006L555.627 272.086L546.224 257.664L549.414 255.584L555.968 265.636L556.276 251.11L559.466 249.03L568.869 263.452Z" fill="white"/>
</svg>
