<svg width="348" height="269" viewBox="0 0 348 269" fill="none" xmlns="http://www.w3.org/2000/svg">
<path d="M357 261L6.5 8.5" stroke="#DC3517" stroke-width="19"/>
<path d="M178.63 122.433C179.216 122.853 179.709 123.24 180.112 123.594C180.514 123.948 180.888 124.364 181.234 124.842C181.592 125.328 181.823 125.806 181.929 126.276C182.035 126.746 182.013 127.28 181.863 127.878C181.732 128.473 181.437 129.09 180.979 129.729C180.466 130.444 179.906 130.961 179.299 131.281C178.7 131.59 178.069 131.703 177.406 131.622C176.751 131.529 176.102 131.335 175.461 131.039C174.839 130.74 174.154 130.323 173.406 129.786L171.553 128.458L168.36 132.911L166.295 131.43L174.746 119.648L178.63 122.433ZM175.621 122.786L172.766 126.767L174.683 128.143C175.593 128.796 176.371 129.164 177.015 129.249C177.668 129.323 178.27 128.976 178.822 128.207C179.148 127.752 179.34 127.323 179.398 126.922C179.456 126.521 179.38 126.146 179.17 125.799C178.96 125.451 178.726 125.16 178.468 124.925C178.217 124.68 177.875 124.402 177.442 124.091L175.621 122.786ZM188.799 135.83C189.087 137.235 188.703 138.674 187.646 140.147C186.589 141.621 185.349 142.446 183.926 142.623C182.522 142.797 181.234 142.464 180.064 141.625C178.894 140.786 178.161 139.669 177.864 138.275C177.586 136.878 177.976 135.443 179.033 133.969C180.089 132.496 181.324 131.667 182.736 131.482C184.16 131.305 185.456 131.636 186.627 132.475C187.797 133.315 188.521 134.433 188.799 135.83ZM180.113 138.091C180.184 138.93 180.545 139.583 181.195 140.049C181.845 140.515 182.578 140.647 183.396 140.446C184.213 140.244 184.963 139.667 185.647 138.714C186.339 137.749 186.649 136.848 186.578 136.009C186.507 135.17 186.146 134.518 185.496 134.052C184.846 133.585 184.112 133.453 183.295 133.655C182.478 133.856 181.723 134.439 181.032 135.403C180.348 136.357 180.042 137.253 180.113 138.091ZM194.974 148.11C194.314 149.031 193.459 149.468 192.41 149.421C191.361 149.374 190.256 148.935 189.097 148.104C188.057 147.358 187.354 146.484 186.989 145.484C186.631 144.473 186.753 143.387 187.355 142.227L189.208 143.556C188.93 144.128 188.87 144.692 189.028 145.249C189.194 145.794 189.581 146.285 190.188 146.72C190.784 147.148 191.326 147.364 191.814 147.37C192.313 147.383 192.699 147.2 192.971 146.821C193.569 145.987 193.294 145.158 192.145 144.334L190.715 143.308L191.799 141.797L193.132 142.752C194.172 143.498 194.952 143.509 195.473 142.783C196.048 141.981 195.815 141.207 194.775 140.461C194.212 140.057 193.634 139.856 193.042 139.858C192.469 139.857 191.957 140.089 191.509 140.555L189.656 139.226C190.515 138.349 191.499 137.914 192.609 137.923C193.737 137.928 194.816 138.3 195.845 139.038C196.853 139.76 197.525 140.562 197.861 141.443C198.208 142.332 198.082 143.194 197.484 144.028C196.87 144.884 196.009 145.193 194.899 144.955C195.711 145.997 195.736 147.049 194.974 148.11ZM194.795 151.871L201.066 143.127L203 144.514L200.891 147.456L202.24 148.423C203.421 149.27 204.12 150.125 204.339 150.987C204.557 151.849 204.321 152.762 203.629 153.727C202.867 154.789 202.042 155.345 201.152 155.396C200.262 155.447 199.254 155.068 198.127 154.26L194.795 151.871ZM202.759 157.582L209.03 148.838L210.964 150.226L204.693 158.969L202.759 157.582ZM197.825 151.73L198.946 152.534C199.542 152.962 200.053 153.164 200.48 153.142C200.917 153.127 201.326 152.854 201.707 152.323C202.048 151.847 202.149 151.41 202.007 151.013C201.876 150.623 201.507 150.211 200.9 149.776L199.795 148.983L197.825 151.73ZM217.889 162.256C216.925 163.599 215.765 164.359 214.409 164.535C213.063 164.718 211.81 164.394 210.651 163.562C209.427 162.684 208.721 161.53 208.533 160.099C208.363 158.665 208.858 157.141 210.016 155.526L210.575 154.746C211.762 153.136 213.123 152.086 214.657 151.594C216.191 151.103 217.792 151.283 219.461 152.136L222.855 153.856L221.643 155.546L218.335 153.912C217.356 153.424 216.421 153.229 215.53 153.328C214.639 153.427 213.761 153.93 212.898 154.837C213.582 154.523 214.286 154.422 215.012 154.531C215.748 154.649 216.43 154.933 217.058 155.384C218.131 156.153 218.77 157.161 218.975 158.408C219.191 159.662 218.829 160.945 217.889 162.256ZM215.89 160.822C216.488 159.988 216.75 159.199 216.676 158.457C216.601 157.714 216.25 157.118 215.621 156.667C214.971 156.201 214.261 156.036 213.49 156.172C212.738 156.306 212.059 156.795 211.453 157.64C210.855 158.474 210.588 159.292 210.653 160.094C210.726 160.884 211.098 161.52 211.77 162.002C212.42 162.468 213.111 162.603 213.843 162.406C214.586 162.217 215.268 161.689 215.89 160.822ZM217.615 164.595C217.918 164.172 218.289 163.872 218.728 163.695C219.178 163.525 219.645 163.458 220.128 163.493C220.62 163.517 221.185 163.644 221.825 163.873C222.475 164.11 223.088 164.377 223.662 164.674C224.244 164.96 224.92 165.322 225.69 165.759L225.806 165.596C226.304 164.903 226.493 164.284 226.375 163.74C226.257 163.195 225.927 162.729 225.385 162.34C224.876 161.975 224.361 161.811 223.842 161.849C223.334 161.895 222.886 162.164 222.499 162.658L220.597 161.294C221.307 160.442 222.202 159.984 223.281 159.921C224.36 159.858 225.425 160.203 226.476 160.957C227.613 161.773 228.304 162.72 228.549 163.797C228.801 164.864 228.442 166.051 227.472 167.357C227.387 167.476 227.141 167.808 226.733 168.353C226.334 168.887 226.029 169.3 225.82 169.593C224.949 170.806 224.321 171.865 223.935 172.77L222.163 171.499C222.462 170.877 222.692 170.442 222.852 170.196C221.642 170.739 220.349 170.518 218.973 169.531C218.019 168.847 217.41 168.049 217.145 167.137C216.891 166.233 217.048 165.386 217.615 164.595ZM224.771 167.143C223.259 166.255 222.12 165.725 221.356 165.555C220.6 165.374 220.048 165.527 219.698 166.015C219.426 166.394 219.359 166.797 219.496 167.223C219.633 167.65 219.945 168.038 220.433 168.387C221.159 168.908 221.849 169.124 222.503 169.035C223.176 168.944 223.773 168.535 224.293 167.809L224.771 167.143ZM231.344 172.3L230.434 171.647L227.695 175.466L225.744 174.067L232.015 165.324L233.966 166.723L231.529 170.119L232.586 170.877L237.541 169.287L239.751 170.872L233.41 172.748L233.708 179.779L231.481 178.182L231.344 172.3ZM243.105 186.519L241.171 185.132L245.519 179.07L237.011 182.148L235.077 180.761L241.348 172.017L243.282 173.404L238.911 179.499L247.442 176.388L249.376 177.775L243.105 186.519ZM249.321 185.193C248.835 186.009 248.667 186.791 248.819 187.54C248.982 188.297 249.361 188.889 249.957 189.317C251.041 190.094 252.047 190.2 252.977 189.636L254.878 191C254.091 191.617 253.158 191.957 252.079 192.02C251.001 192.083 249.936 191.738 248.885 190.984C247.53 190.012 246.771 188.795 246.606 187.332C246.46 185.865 246.857 184.476 247.798 183.165C248.738 181.854 249.912 181.064 251.32 180.794C252.739 180.531 254.071 180.847 255.317 181.741C256.65 182.696 257.355 183.932 257.433 185.448C257.521 186.972 256.99 188.445 255.838 189.867L249.321 185.193ZM250.335 183.779L254.886 187.043C255.338 186.366 255.492 185.672 255.346 184.961C255.2 184.249 254.829 183.679 254.233 183.252C253.691 182.863 253.059 182.681 252.337 182.704C251.622 182.717 250.955 183.075 250.335 183.779ZM265.172 189.104C266.19 189.834 266.871 190.577 267.216 191.333C267.56 192.088 267.433 192.883 266.834 193.717C266.197 194.606 265.37 194.947 264.352 194.742C265.142 195.768 265.164 196.802 264.418 197.842C263.781 198.73 262.998 199.17 262.069 199.16C261.149 199.14 260.163 198.753 259.112 197.999L254.789 194.898L261.06 186.155L265.172 189.104ZM262.461 192.574C263.469 193.297 264.225 193.306 264.73 192.602C265.212 191.93 264.944 191.229 263.925 190.499L261.91 189.053L260.429 191.117L262.461 192.574ZM257.807 194.774L259.968 196.324C261.117 197.148 261.971 197.17 262.53 196.39C262.81 196 262.867 195.622 262.702 195.258C262.545 194.882 262.168 194.481 261.572 194.054L259.427 192.515L257.807 194.774ZM265.419 198.88C265.723 198.458 266.094 198.158 266.533 197.98C266.982 197.811 267.449 197.743 267.933 197.778C268.424 197.803 268.989 197.929 269.629 198.158C270.28 198.395 270.892 198.662 271.467 198.959C272.049 199.246 272.725 199.607 273.494 200.044L273.611 199.882C274.108 199.188 274.298 198.569 274.179 198.025C274.061 197.481 273.731 197.015 273.189 196.626C272.68 196.261 272.166 196.097 271.646 196.135C271.138 196.18 270.69 196.45 270.303 196.944L268.402 195.58C269.112 194.727 270.006 194.269 271.085 194.206C272.164 194.143 273.229 194.489 274.28 195.242C275.418 196.058 276.109 197.005 276.353 198.083C276.605 199.15 276.246 200.336 275.277 201.643C275.191 201.762 274.945 202.094 274.538 202.639C274.138 203.173 273.834 203.586 273.624 203.878C272.754 205.092 272.125 206.151 271.739 207.055L269.968 205.785C270.266 205.162 270.496 204.728 270.656 204.482C269.446 205.025 268.153 204.803 266.777 203.816C265.824 203.132 265.214 202.335 264.95 201.423C264.696 200.519 264.852 199.671 265.419 198.88ZM272.575 201.428C271.063 200.54 269.925 200.011 269.161 199.841C268.405 199.659 267.852 199.813 267.502 200.3C267.23 200.679 267.163 201.082 267.3 201.509C267.437 201.935 267.749 202.323 268.237 202.673C268.963 203.194 269.653 203.41 270.307 203.321C270.98 203.229 271.577 202.82 272.097 202.095L272.575 201.428Z" fill="white"/>
</svg>
