<svg width="204" height="411" viewBox="0 0 204 411" fill="none" xmlns="http://www.w3.org/2000/svg">
<path d="M195.5 419.5L115 296.5L36.5 170.5C13.5 137.5 -20.3 95.6 66.5 8" stroke="#DC3517" stroke-width="20"/>
<path d="M80.4326 242.172L79.7105 240.972L71.9444 240.559L70.4383 238.057L79.6141 238.486L82.9844 230.784L84.4596 233.234L81.4649 239.776L82.2489 241.078L87.3377 238.014L88.6375 240.173L83.5487 243.237L84.3121 244.505L91.495 244.919L92.9599 247.353L84.5899 246.789L80.6923 255.089L79.1965 252.604L82.4752 245.564L81.7324 244.331L76.2152 247.652L74.9154 245.493L80.4326 242.172ZM83.5468 254.091C83.9923 253.823 84.4517 253.694 84.925 253.705C85.4053 253.727 85.8605 253.85 86.2907 254.073C86.7324 254.29 87.2017 254.63 87.6986 255.093C88.2024 255.568 88.6593 256.055 89.0693 256.556C89.4908 257.049 89.9685 257.648 90.5024 258.354L90.6737 258.251C91.4048 257.811 91.8236 257.317 91.9303 256.771C92.0369 256.224 91.9183 255.665 91.5744 255.094C91.2512 254.557 90.8436 254.203 90.3518 254.033C89.8667 253.873 89.3489 253.944 88.7983 254.244L87.5913 252.239C88.5807 251.737 89.5833 251.671 90.5991 252.039C91.615 252.408 92.4564 253.147 93.1235 254.255C93.8456 255.454 94.1058 256.597 93.9039 257.684C93.7135 258.763 92.9146 259.711 91.5072 260.527C91.3816 260.603 91.024 260.81 90.4346 261.15C89.8566 261.482 89.4133 261.741 89.1049 261.927C87.8256 262.697 86.8297 263.421 86.1173 264.099L84.9929 262.232C85.5135 261.778 85.8961 261.47 86.1405 261.307C84.8143 261.327 83.7144 260.612 82.841 259.162C82.2358 258.156 81.992 257.183 82.1094 256.24C82.2338 255.309 82.7129 254.593 83.5468 254.091ZM89.1112 259.262C88.0732 257.848 87.2371 256.912 86.603 256.453C85.9804 255.987 85.412 255.909 84.898 256.219C84.4982 256.46 84.2769 256.803 84.2341 257.249C84.1914 257.695 84.3247 258.175 84.6342 258.689C85.095 259.454 85.6433 259.926 86.2793 260.103C86.9336 260.285 87.6433 260.146 88.4087 259.685L89.1112 259.262ZM97.6601 262.41L96.4264 263.153C97.7366 263.158 98.7666 263.783 99.5162 265.028C100.204 266.17 100.332 267.377 99.899 268.649C99.4733 269.933 98.5352 271.011 97.0845 271.885C95.6338 272.758 94.236 273.086 92.8911 272.869C91.5645 272.656 90.5574 271.978 89.8696 270.836C89.12 269.591 89.0496 268.388 89.6584 267.228L85.4433 269.765L84.2157 267.726L96.4325 260.371L97.6601 262.41ZM91.2634 269.39C91.6898 270.098 92.3032 270.483 93.1037 270.546C93.9224 270.613 94.8229 270.351 95.8053 269.76C96.7762 269.175 97.4178 268.509 97.7299 267.761C98.0603 267.017 98.0124 266.291 97.586 265.583C97.1665 264.886 96.5484 264.48 95.7319 264.365C94.9269 264.242 94.016 264.487 92.9994 265.099C91.9827 265.712 91.3344 266.405 91.0543 267.181C90.7742 267.957 90.8439 268.693 91.2634 269.39ZM105.995 278.619C105.704 280.024 104.782 281.194 103.229 282.129C101.675 283.064 100.21 283.332 98.8328 282.931C97.4739 282.536 96.4231 281.721 95.6804 280.487C94.9376 279.253 94.7058 277.938 94.985 276.54C95.2824 275.147 96.2079 273.983 97.7614 273.048C99.3149 272.112 100.777 271.839 102.147 272.228C103.524 272.629 104.584 273.446 105.327 274.679C106.07 275.913 106.292 277.226 105.995 278.619ZM97.1229 277.261C96.8566 278.059 96.9298 278.801 97.3424 279.486C97.755 280.172 98.3765 280.584 99.2068 280.722C100.037 280.86 100.955 280.627 101.96 280.021C102.977 279.409 103.618 278.704 103.884 277.906C104.151 277.107 104.078 276.365 103.665 275.68C103.252 274.995 102.631 274.583 101.801 274.444C100.97 274.306 100.047 274.543 99.0303 275.155C98.025 275.76 97.3893 276.462 97.1229 277.261ZM105.539 287.246L104.962 286.287L100.935 288.711L99.6973 286.655L108.916 281.105L110.153 283.161L106.572 285.317L107.243 286.431L112.423 286.931L113.826 289.261L107.26 288.475L104.752 295.051L103.339 292.703L105.539 287.246ZM117.711 298.079C117.421 299.484 116.499 300.654 114.945 301.589C113.392 302.524 111.926 302.792 110.549 302.391C109.19 301.996 108.139 301.181 107.397 299.947C106.654 298.714 106.422 297.398 106.701 296C106.999 294.607 107.924 293.443 109.478 292.508C111.031 291.573 112.493 291.299 113.863 291.688C115.24 292.089 116.3 292.906 117.043 294.139C117.786 295.373 118.009 296.686 117.711 298.079ZM108.839 296.721C108.573 297.519 108.646 298.261 109.059 298.947C109.471 299.632 110.093 300.044 110.923 300.182C111.753 300.32 112.671 300.087 113.676 299.481C114.693 298.869 115.334 298.164 115.601 297.366C115.867 296.567 115.794 295.825 115.381 295.14C114.969 294.455 114.347 294.043 113.517 293.905C112.687 293.766 111.763 294.003 110.746 294.615C109.741 295.221 109.105 295.922 108.839 296.721ZM123.242 304.9C123.888 305.974 124.22 306.926 124.237 307.756C124.255 308.586 123.823 309.265 122.944 309.795C122.007 310.359 121.112 310.345 120.258 309.754C120.578 311.009 120.189 311.967 119.093 312.627C118.156 313.191 117.263 313.285 116.414 312.909C115.577 312.526 114.825 311.781 114.158 310.673L111.414 306.115L120.632 300.565L123.242 304.9ZM119.379 307.015C120.019 308.078 120.71 308.385 121.452 307.938C122.161 307.512 122.191 306.762 121.545 305.688L120.266 303.563L118.09 304.873L119.379 307.015ZM114.235 307.195L115.607 309.473C116.336 310.684 117.111 311.042 117.934 310.547C118.345 310.299 118.547 309.975 118.539 309.575C118.543 309.168 118.356 308.651 117.978 308.022L116.616 305.761L114.235 307.195ZM119.602 313.977C120.048 313.709 120.507 313.58 120.98 313.591C121.461 313.613 121.916 313.736 122.346 313.959C122.788 314.176 123.257 314.516 123.754 314.979C124.258 315.454 124.715 315.942 125.125 316.442C125.546 316.935 126.024 317.535 126.558 318.24L126.729 318.137C127.46 317.697 127.879 317.204 127.986 316.657C128.092 316.11 127.974 315.551 127.63 314.98C127.307 314.443 126.899 314.09 126.407 313.919C125.922 313.759 125.404 313.83 124.854 314.13L123.647 312.126C124.636 311.623 125.639 311.557 126.654 311.926C127.67 312.294 128.512 313.033 129.179 314.141C129.901 315.34 130.161 316.483 129.959 317.57C129.769 318.649 128.97 319.597 127.563 320.413C127.437 320.489 127.079 320.697 126.49 321.036C125.912 321.368 125.469 321.627 125.16 321.813C123.881 322.583 122.885 323.307 122.173 323.985L121.048 322.118C121.569 321.664 121.951 321.356 122.196 321.193C120.87 321.214 119.77 320.498 118.896 319.048C118.291 318.042 118.047 317.069 118.165 316.126C118.289 315.196 118.768 314.479 119.602 313.977ZM125.166 319.148C124.128 317.734 123.292 316.798 122.658 316.339C122.036 315.874 121.467 315.796 120.953 316.105C120.554 316.346 120.332 316.689 120.289 317.135C120.247 317.581 120.38 318.061 120.69 318.575C121.15 319.34 121.699 319.812 122.335 319.989C122.989 320.171 123.699 320.032 124.464 319.571L125.166 319.148Z" fill="white"/>
</svg>
