<svg width="224" height="121" viewBox="0 0 224 121" fill="none" xmlns="http://www.w3.org/2000/svg">
<g filter="url(#filter0_d_20_38)">
<path d="M52.9885 49V4.36H62.8285L65.8885 26.92L68.9485 4.36H78.1285V49H70.9285V22.6L66.9685 49H63.9685L59.9485 22.6V49H52.9885ZM80.4104 4.36H97.0904V12.22H88.3904V21.94H95.2304V29.98H88.3904V40.96H97.5104V49H80.4104V4.36ZM110.93 39.16V29.32H118.85V39.4C118.85 42.4 118.11 44.88 116.63 46.84C115.19 48.76 112.85 49.72 109.61 49.72H107.99C104.47 49.72 102.01 48.76 100.61 46.84C99.2502 44.92 98.5702 42.36 98.5702 39.16V13.96C98.5702 10.96 99.3102 8.52 100.79 6.64C102.31 4.76 104.71 3.82 107.99 3.82H109.61C111.45 3.82 112.99 4.08 114.23 4.6C115.51 5.12 116.47 5.88 117.11 6.88C117.75 7.84 118.19 8.86 118.43 9.94C118.71 11.02 118.85 12.26 118.85 13.66V21.16H110.93V13.96C110.93 12.24 110.25 11.38 108.89 11.38C107.57 11.38 106.91 12.24 106.91 13.96V39.16C106.91 40.96 107.59 41.86 108.95 41.86C110.27 41.86 110.93 40.96 110.93 39.16ZM119.943 4.36H139.323V12.22H133.623V49H125.643V12.22H119.943V4.36ZM161.288 15.16V38.8C161.288 42.12 160.448 44.76 158.768 46.72C157.088 48.68 154.768 49.66 151.808 49.66H150.008C146.848 49.66 144.448 48.74 142.808 46.9C141.168 45.02 140.348 42.32 140.348 38.8V15.22C140.348 7.62 143.548 3.82 149.948 3.82H151.748C158.108 3.82 161.288 7.6 161.288 15.16ZM152.948 39.04V14.56C152.948 12.6 152.248 11.62 150.848 11.62C149.408 11.62 148.688 12.6 148.688 14.56V39.04C148.688 40.8 149.428 41.68 150.908 41.68C152.268 41.68 152.948 40.8 152.948 39.04ZM2.44859 109V64.36H22.0086V109H14.0286V72.22H10.4286V109H2.44859ZM36.1841 91.12H32.4041V109H24.4241V64.36H35.7641C38.9641 64.36 41.1241 65.08 42.2441 66.52C43.4041 67.96 43.9841 70.18 43.9841 73.18V82.12C43.9841 88.12 41.3841 91.12 36.1841 91.12ZM32.4041 71.26V83.86H33.9041C34.7441 83.86 35.2841 83.66 35.5241 83.26C35.8041 82.82 35.9441 82.18 35.9441 81.34V73.9C35.9441 72.98 35.8041 72.32 35.5241 71.92C35.2841 71.48 34.7441 71.26 33.9041 71.26H32.4041ZM66.6294 75.16V98.8C66.6294 102.12 65.7894 104.76 64.1094 106.72C62.4294 108.68 60.1094 109.66 57.1494 109.66H55.3494C52.1894 109.66 49.7894 108.74 48.1494 106.9C46.5094 105.02 45.6894 102.32 45.6894 98.8V75.22C45.6894 67.62 48.8894 63.82 55.2894 63.82H57.0894C63.4494 63.82 66.6294 67.6 66.6294 75.16ZM58.2894 99.04V74.56C58.2894 72.6 57.5894 71.62 56.1894 71.62C54.7494 71.62 54.0294 72.6 54.0294 74.56V99.04C54.0294 100.8 54.7694 101.68 56.2494 101.68C57.6094 101.68 58.2894 100.8 58.2894 99.04ZM68.7209 109V64.36H80.7809C83.5009 64.36 85.4609 64.96 86.6609 66.16C87.9009 67.36 88.5209 69.42 88.5209 72.34V78.28C88.5209 79.96 88.1209 81.36 87.3209 82.48C86.5609 83.56 85.7009 84.24 84.7409 84.52C87.7009 85.36 89.1809 87.7 89.1809 91.54V98.98C89.1809 102.46 88.5809 105 87.3809 106.6C86.1809 108.2 84.3409 109 81.8609 109H68.7209ZM78.6209 89.02H76.7009V101.92H78.9209C79.6809 101.92 80.2009 101.74 80.4809 101.38C80.8009 100.98 80.9609 100.18 80.9609 98.98V91.72C80.9609 90.76 80.7809 90.08 80.4209 89.68C80.1009 89.24 79.5009 89.02 78.6209 89.02ZM78.6209 71.2H76.7009V81.82H78.5009C79.2209 81.82 79.7609 81.64 80.1209 81.28C80.4809 80.88 80.6609 80.18 80.6609 79.18V73.6C80.6609 72 79.9809 71.2 78.6209 71.2ZM91.0452 64.36H107.725V72.22H99.0252V81.94H105.865V89.98H99.0252V100.96H108.145V109H91.0452V64.36ZM124.731 115.3V109H116.391V115.3H109.011V100.96H110.511C110.671 100.2 110.751 99.78 110.751 99.7C110.951 98.78 111.071 97.34 111.111 95.38C111.311 89.3 111.411 78.96 111.411 64.36H130.011V100.96H132.111V115.3H124.731ZM118.431 94.84C118.151 97.76 118.011 99.26 118.011 99.34L117.771 100.96H122.211V72.22H118.731C118.731 82.98 118.631 90.52 118.431 94.84ZM133.643 64.36H150.323V72.22H141.623V81.94H148.463V89.98H141.623V100.96H150.743V109H133.643V64.36ZM160.256 90.16V109H152.276V64.36H160.256V81.4H164.456V64.36H172.436V109H164.456V90.16H160.256ZM187.557 109V85.3L182.397 109H174.597V64.36H182.397V88.24L187.557 64.36H195.357V109H187.557ZM209.564 92.32H208.904L204.584 109H196.184L201.164 90.22C199.044 89.18 197.984 86.88 197.984 83.32V73.12C197.984 70.16 198.564 67.96 199.724 66.52C200.884 65.08 203.064 64.36 206.264 64.36H217.544V109H209.564V92.32ZM209.564 85.06V71.26H208.064C207.224 71.26 206.664 71.48 206.384 71.92C206.144 72.32 206.024 72.96 206.024 73.84V82.54C206.024 83.38 206.144 84.02 206.384 84.46C206.664 84.86 207.224 85.06 208.064 85.06H209.564Z" fill="white"/>
</g>
<defs>
<filter id="filter0_d_20_38" x="0.449219" y="0.819824" width="223.096" height="119.48" filterUnits="userSpaceOnUse" color-interpolation-filters="sRGB">
<feFlood flood-opacity="0" result="BackgroundImageFix"/>
<feColorMatrix in="SourceAlpha" type="matrix" values="0 0 0 0 0 0 0 0 0 0 0 0 0 0 0 0 0 0 127 0" result="hardAlpha"/>
<feOffset dx="2" dy="1"/>
<feGaussianBlur stdDeviation="2"/>
<feComposite in2="hardAlpha" operator="out"/>
<feColorMatrix type="matrix" values="0 0 0 0 0 0 0 0 0 0 0 0 0 0 0 0 0 0 0.25 0"/>
<feBlend mode="normal" in2="BackgroundImageFix" result="effect1_dropShadow_20_38"/>
<feBlend mode="normal" in="SourceGraphic" in2="effect1_dropShadow_20_38" result="shape"/>
</filter>
</defs>
</svg>
