<svg width="211" height="32" viewBox="0 0 211 32" fill="none" xmlns="http://www.w3.org/2000/svg">
<path d="M211 13.3732C210.998 16.9187 209.604 20.3185 207.123 22.8255C204.642 25.3325 201.278 26.7417 197.77 26.7433H14.3753C14.0136 26.7782 13.6503 26.7941 13.2869 26.7909C9.35666 26.7909 5.00925 27.0857 2.22702 29.9036L0.972359 31.1715C0.898688 31.246 0.804818 31.2967 0.702611 31.3173C0.59901 31.3398 0.491083 31.3301 0.39308 31.2893C0.295077 31.2486 0.211607 31.1788 0.153695 31.0891C0.0978409 30.9998 0.0674403 30.8967 0.0658592 30.7911V14.7077C0.0250825 14.2703 1.48863e-06 13.8234 1.48863e-06 13.3732C-0.000823033 11.6168 0.340875 9.87744 1.00563 8.25455C1.67039 6.63166 2.64514 5.15707 3.87416 3.91508C5.10317 2.67309 6.56236 1.68806 8.16831 1.01628C9.77425 0.344511 11.4955 -0.000831719 13.2336 1.50417e-06H197.77C199.507 0.000417715 201.227 0.346661 202.832 1.01895C204.437 1.69125 205.896 2.67643 207.124 3.91825C208.352 5.16007 209.326 6.63421 209.991 8.25651C210.655 9.8788 210.997 11.6175 210.997 13.3732H211Z" fill="#DD3618"/>
<path d="M50.8 20H48.384V15.072H43.856V20H41.44V8.576H43.856V13.056H48.384V8.576H50.8V20ZM64.0424 14.272C64.0424 15.1573 63.9304 15.9627 63.7064 16.688C63.493 17.4027 63.1624 18.0213 62.7144 18.544C62.277 19.0667 61.7117 19.4667 61.0184 19.744C60.3357 20.0213 59.5304 20.16 58.6024 20.16C57.6744 20.16 56.8637 20.0213 56.1704 19.744C55.4877 19.456 54.9224 19.056 54.4744 18.544C54.037 18.0213 53.7064 17.3973 53.4824 16.672C53.269 15.9467 53.1624 15.1413 53.1624 14.256C53.1624 13.072 53.3544 12.0427 53.7384 11.168C54.133 10.2933 54.7304 9.616 55.5304 9.136C56.341 8.64533 57.3704 8.4 58.6184 8.4C59.8557 8.4 60.8744 8.64533 61.6744 9.136C62.4744 9.616 63.0664 10.2987 63.4504 11.184C63.845 12.0587 64.0424 13.088 64.0424 14.272ZM55.7064 14.272C55.7064 15.072 55.8077 15.76 56.0104 16.336C56.213 16.912 56.5277 17.3547 56.9544 17.664C57.381 17.9733 57.9304 18.128 58.6024 18.128C59.2957 18.128 59.8504 17.9733 60.2664 17.664C60.693 17.3547 61.0024 16.912 61.1944 16.336C61.397 15.76 61.4984 15.072 61.4984 14.272C61.4984 13.0667 61.2744 12.1227 60.8264 11.44C60.3784 10.7573 59.6424 10.416 58.6184 10.416C57.9357 10.416 57.381 10.5707 56.9544 10.88C56.5277 11.1893 56.213 11.632 56.0104 12.208C55.8077 12.784 55.7064 13.472 55.7064 14.272ZM69.9608 8.576C70.9741 8.576 71.8221 8.672 72.5048 8.864C73.1981 9.04533 73.7154 9.34933 74.0568 9.776C74.4088 10.192 74.5848 10.7573 74.5848 11.472C74.5848 11.8987 74.5154 12.288 74.3767 12.64C74.2381 12.992 74.0354 13.28 73.7688 13.504C73.5128 13.728 73.1981 13.872 72.8248 13.936V14.016C73.2088 14.0907 73.5554 14.224 73.8648 14.416C74.1741 14.608 74.4194 14.8853 74.6008 15.248C74.7821 15.6107 74.8728 16.0907 74.8728 16.688C74.8728 17.3813 74.7021 17.9787 74.3608 18.48C74.0301 18.9707 73.5501 19.3493 72.9208 19.616C72.2914 19.872 71.5448 20 70.6808 20H66.4088V8.576H69.9608ZM70.2328 13.104C70.9368 13.104 71.4221 12.992 71.6888 12.768C71.9661 12.544 72.1048 12.2187 72.1048 11.792C72.1048 11.3547 71.9448 11.04 71.6248 10.848C71.3048 10.656 70.7981 10.56 70.1048 10.56H68.8248V13.104H70.2328ZM68.8248 15.024V18H70.4088C71.1341 18 71.6408 17.8613 71.9288 17.584C72.2168 17.296 72.3608 16.9173 72.3608 16.448C72.3608 16.16 72.2968 15.9093 72.1688 15.696C72.0514 15.4827 71.8434 15.3173 71.5448 15.2C71.2461 15.0827 70.8408 15.024 70.3288 15.024H68.8248ZM77.1588 20V8.576H79.5748V12.96H80.3588C81.4148 12.96 82.2841 13.1093 82.9668 13.408C83.6494 13.7067 84.1508 14.1173 84.4708 14.64C84.8014 15.1627 84.9668 15.76 84.9668 16.432C84.9668 17.1787 84.8014 17.8187 84.4708 18.352C84.1401 18.8853 83.6281 19.296 82.9348 19.584C82.2521 19.8613 81.3668 20 80.2788 20H77.1588ZM80.2148 18.016C80.9294 18.016 81.4894 17.8987 81.8948 17.664C82.3108 17.4293 82.5188 17.0187 82.5188 16.432C82.5188 16.0267 82.4228 15.7173 82.2308 15.504C82.0494 15.2907 81.7774 15.1467 81.4148 15.072C81.0521 14.9867 80.6148 14.944 80.1028 14.944H79.5748V18.016H80.2148ZM86.3588 20V8.576H88.7748V20H86.3588ZM100.859 4.816C100.805 5.37067 100.651 5.86133 100.395 6.288C100.139 6.704 99.7388 7.02933 99.1948 7.264C98.6508 7.49867 97.9201 7.616 97.0028 7.616C96.0641 7.616 95.3281 7.504 94.7948 7.28C94.2721 7.04533 93.8988 6.72 93.6748 6.304C93.4508 5.888 93.3174 5.392 93.2748 4.816H95.4028C95.4561 5.40267 95.6054 5.792 95.8508 5.984C96.0961 6.176 96.4961 6.272 97.0508 6.272C97.5094 6.272 97.8828 6.17067 98.1708 5.968C98.4694 5.75467 98.6454 5.37067 98.6988 4.816H100.859ZM91.6588 8.576H93.8348V14.096C93.8348 14.3627 93.8294 14.6613 93.8188 14.992C93.8081 15.3227 93.7974 15.648 93.7868 15.968C93.7761 16.2773 93.7654 16.5493 93.7548 16.784C93.7441 17.008 93.7334 17.1627 93.7228 17.248H93.7708L99.0508 8.576H101.947V20H99.7868V14.512C99.7868 14.224 99.7921 13.9093 99.8028 13.568C99.8134 13.216 99.8241 12.88 99.8348 12.56C99.8561 12.24 99.8721 11.9627 99.8828 11.728C99.9041 11.4827 99.9201 11.3227 99.9308 11.248H99.8668L94.5708 20H91.6588V8.576ZM111.258 8.576C112.271 8.576 113.119 8.672 113.802 8.864C114.495 9.04533 115.012 9.34933 115.354 9.776C115.706 10.192 115.882 10.7573 115.882 11.472C115.882 11.8987 115.812 12.288 115.674 12.64C115.535 12.992 115.332 13.28 115.066 13.504C114.81 13.728 114.495 13.872 114.122 13.936V14.016C114.506 14.0907 114.852 14.224 115.162 14.416C115.471 14.608 115.716 14.8853 115.898 15.248C116.079 15.6107 116.17 16.0907 116.17 16.688C116.17 17.3813 115.999 17.9787 115.658 18.48C115.327 18.9707 114.847 19.3493 114.218 19.616C113.588 19.872 112.842 20 111.978 20H107.706V8.576H111.258ZM111.53 13.104C112.234 13.104 112.719 12.992 112.986 12.768C113.263 12.544 113.402 12.2187 113.402 11.792C113.402 11.3547 113.242 11.04 112.922 10.848C112.602 10.656 112.095 10.56 111.402 10.56H110.122V13.104H111.53ZM110.122 15.024V18H111.706C112.431 18 112.938 17.8613 113.226 17.584C113.514 17.296 113.658 16.9173 113.658 16.448C113.658 16.16 113.594 15.9093 113.466 15.696C113.348 15.4827 113.14 15.3173 112.842 15.2C112.543 15.0827 112.138 15.024 111.626 15.024H110.122ZM126.344 11.248C126.344 12.016 126.072 12.6347 125.528 13.104C124.984 13.5733 124.29 13.8667 123.448 13.984V14.032C124.493 14.1387 125.293 14.432 125.848 14.912C126.413 15.3813 126.696 15.9947 126.696 16.752C126.696 17.4133 126.514 18.0053 126.152 18.528C125.789 19.04 125.25 19.44 124.536 19.728C123.821 20.016 122.936 20.16 121.88 20.16C121.016 20.16 120.248 20.1067 119.576 20C118.914 19.8933 118.338 19.7387 117.848 19.536V17.504C118.178 17.664 118.552 17.8027 118.968 17.92C119.384 18.0267 119.805 18.112 120.232 18.176C120.658 18.2293 121.053 18.256 121.416 18.256C122.429 18.256 123.16 18.112 123.608 17.824C124.066 17.5253 124.296 17.1093 124.296 16.576C124.296 16.032 123.965 15.6373 123.304 15.392C122.642 15.136 121.752 15.008 120.632 15.008H119.56V13.12H120.52C121.426 13.12 122.13 13.0613 122.632 12.944C123.133 12.8267 123.485 12.656 123.688 12.432C123.89 12.208 123.992 11.9413 123.992 11.632C123.992 11.2373 123.816 10.928 123.464 10.704C123.122 10.4693 122.605 10.352 121.912 10.352C121.325 10.352 120.77 10.4373 120.248 10.608C119.736 10.7787 119.256 11.0027 118.808 11.28L117.752 9.664C118.146 9.408 118.562 9.18933 119 9.008C119.448 8.816 119.938 8.672 120.472 8.576C121.005 8.46933 121.597 8.416 122.248 8.416C123.112 8.416 123.848 8.53867 124.456 8.784C125.064 9.02933 125.528 9.36533 125.848 9.792C126.178 10.208 126.344 10.6933 126.344 11.248ZM136.047 8.576V10.576H131.247V20H128.831V8.576H136.047ZM146.043 20H143.627V10.592H140.827C140.763 11.0827 140.693 11.616 140.619 12.192C140.555 12.768 140.48 13.3547 140.395 13.952C140.32 14.5387 140.24 15.0987 140.155 15.632C140.069 16.1547 139.984 16.6187 139.899 17.024C139.76 17.6853 139.573 18.2507 139.339 18.72C139.115 19.1893 138.8 19.5467 138.395 19.792C138 20.0373 137.483 20.16 136.843 20.16C136.629 20.16 136.427 20.144 136.235 20.112C136.043 20.08 135.861 20.0373 135.691 19.984V18C135.829 18.0427 135.963 18.08 136.09 18.112C136.229 18.144 136.379 18.16 136.539 18.16C136.752 18.16 136.928 18.0907 137.067 17.952C137.205 17.8133 137.328 17.5787 137.435 17.248C137.541 16.9067 137.648 16.4373 137.755 15.84C137.808 15.584 137.872 15.2213 137.947 14.752C138.021 14.272 138.107 13.712 138.203 13.072C138.309 12.4213 138.416 11.7173 138.523 10.96C138.629 10.192 138.731 9.39733 138.827 8.576H146.043V20ZM152.764 15.616L150.092 20H147.404L150.652 14.976C150.343 14.848 150.034 14.6613 149.724 14.416C149.415 14.16 149.159 13.824 148.956 13.408C148.754 12.9813 148.652 12.4587 148.652 11.84C148.652 10.784 149.031 9.97867 149.788 9.424C150.546 8.85867 151.607 8.576 152.972 8.576H156.684V20H154.268V15.616H152.764ZM153.068 10.56C152.652 10.56 152.295 10.608 151.996 10.704C151.708 10.8 151.484 10.9547 151.324 11.168C151.175 11.3813 151.1 11.664 151.1 12.016C151.1 12.5173 151.266 12.9173 151.596 13.216C151.938 13.504 152.45 13.648 153.132 13.648H154.268V10.56H153.068ZM168.509 8.576V17.984H170.029V23.328H167.693V20H160.541V23.328H158.205V17.984H159.085C159.384 17.3867 159.672 16.7573 159.949 16.096C160.226 15.4347 160.482 14.7253 160.717 13.968C160.962 13.2107 161.181 12.3893 161.373 11.504C161.565 10.608 161.725 9.632 161.853 8.576H168.509ZM163.773 10.592C163.698 11.1467 163.592 11.7387 163.453 12.368C163.314 12.9867 163.149 13.6213 162.957 14.272C162.776 14.9227 162.573 15.5627 162.349 16.192C162.125 16.8213 161.885 17.4187 161.629 17.984H166.093V10.592H163.773Z" fill="white"/>
</svg>
