<svg width="211" height="32" viewBox="0 0 211 32" fill="none" xmlns="http://www.w3.org/2000/svg">
<path d="M1.52588e-05 13.3732C0.00166321 16.9187 1.39612 20.3185 3.87694 22.8255C6.35777 25.3325 9.72205 26.7417 13.2305 26.7433H196.625C196.986 26.7782 197.35 26.7941 197.713 26.7909C201.643 26.7909 205.991 27.0857 208.773 29.9036L210.028 31.1715C210.101 31.246 210.195 31.2967 210.297 31.3173C210.401 31.3398 210.509 31.3301 210.607 31.2893C210.705 31.2486 210.788 31.1788 210.846 31.0891C210.902 30.9998 210.933 30.8967 210.934 30.7911V14.7077C210.975 14.2703 211 13.8234 211 13.3732C211.001 11.6168 210.659 9.87744 209.994 8.25455C209.33 6.63166 208.355 5.15707 207.126 3.91508C205.897 2.67309 204.438 1.68806 202.832 1.01628C201.226 0.344511 199.505 -0.000831719 197.766 1.50417e-06H13.2305C11.493 0.000417715 9.77266 0.346661 8.16762 1.01895C6.56259 1.69125 5.10429 2.67643 3.87602 3.91825C2.64775 5.16007 1.6736 6.63421 1.00908 8.25651C0.344574 9.8788 0.00273132 11.6175 0.00314331 13.3732H1.52588e-05Z" fill="#DD3618"/>
<path d="M54.808 14.272C54.808 15.1573 54.696 15.9627 54.472 16.688C54.2587 17.4027 53.928 18.0213 53.48 18.544C53.0427 19.0667 52.4773 19.4667 51.784 19.744C51.1013 20.0213 50.296 20.16 49.368 20.16C48.44 20.16 47.6293 20.0213 46.936 19.744C46.2533 19.456 45.688 19.056 45.24 18.544C44.8027 18.0213 44.472 17.3973 44.248 16.672C44.0347 15.9467 43.928 15.1413 43.928 14.256C43.928 13.072 44.12 12.0427 44.504 11.168C44.8987 10.2933 45.496 9.616 46.296 9.136C47.1067 8.64533 48.136 8.4 49.384 8.4C50.6213 8.4 51.64 8.64533 52.44 9.136C53.24 9.616 53.832 10.2987 54.216 11.184C54.6107 12.0587 54.808 13.088 54.808 14.272ZM46.472 14.272C46.472 15.072 46.5733 15.76 46.776 16.336C46.9787 16.912 47.2933 17.3547 47.72 17.664C48.1467 17.9733 48.696 18.128 49.368 18.128C50.0613 18.128 50.616 17.9733 51.032 17.664C51.4587 17.3547 51.768 16.912 51.96 16.336C52.1627 15.76 52.264 15.072 52.264 14.272C52.264 13.0667 52.04 12.1227 51.592 11.44C51.144 10.7573 50.408 10.416 49.384 10.416C48.7013 10.416 48.1467 10.5707 47.72 10.88C47.2933 11.1893 46.9787 11.632 46.776 12.208C46.5733 12.784 46.472 13.472 46.472 14.272ZM57.1744 20V8.576H64.3904V10.576H59.5904V12.96H60.5504C61.6277 12.96 62.5077 13.1093 63.1904 13.408C63.8837 13.7067 64.3957 14.1173 64.7264 14.64C65.057 15.1627 65.2224 15.76 65.2224 16.432C65.2224 17.1787 65.057 17.8187 64.7264 18.352C64.3957 18.8853 63.8837 19.296 63.1904 19.584C62.497 19.8613 61.601 20 60.5024 20H57.1744ZM60.4064 18.016C61.1424 18.016 61.7184 17.8987 62.1344 17.664C62.561 17.4293 62.7744 17.0187 62.7744 16.432C62.7744 16.0267 62.6677 15.7173 62.4544 15.504C62.2517 15.2907 61.9584 15.1467 61.5744 15.072C61.201 14.9867 60.7477 14.944 60.2144 14.944H59.5904V18.016H60.4064ZM68.8015 20V10.592H65.9375V8.576H71.2175V12.96H72.1775C73.2548 12.96 74.1348 13.1093 74.8175 13.408C75.5108 13.7067 76.0228 14.1173 76.3535 14.64C76.6842 15.1627 76.8495 15.76 76.8495 16.432C76.8495 17.1787 76.6842 17.8187 76.3535 18.352C76.0228 18.8853 75.5108 19.296 74.8175 19.584C74.1242 19.8613 73.2282 20 72.1295 20H68.8015ZM72.0335 18.016C72.7695 18.016 73.3455 17.8987 73.7615 17.664C74.1882 17.4293 74.4015 17.0187 74.4015 16.432C74.4015 16.0267 74.2948 15.7173 74.0815 15.504C73.8788 15.2907 73.5855 15.1467 73.2015 15.072C72.8282 14.9867 72.3748 14.944 71.8415 14.944H71.2175V18.016H72.0335ZM85.5785 20H79.0025V8.576H85.5785V10.56H81.4185V13.072H85.2905V15.056H81.4185V18H85.5785V20ZM96.8996 8.576V17.984H98.4196V23.328H96.0836V20H88.9316V23.328H86.5956V17.984H87.4756C87.7743 17.3867 88.0623 16.7573 88.3396 16.096C88.617 15.4347 88.873 14.7253 89.1076 13.968C89.353 13.2107 89.5716 12.3893 89.7636 11.504C89.9556 10.608 90.1156 9.632 90.2436 8.576H96.8996ZM92.1636 10.592C92.089 11.1467 91.9823 11.7387 91.8436 12.368C91.705 12.9867 91.5396 13.6213 91.3476 14.272C91.1663 14.9227 90.9636 15.5627 90.7396 16.192C90.5156 16.8213 90.2756 17.4187 90.0196 17.984H94.4836V10.592H92.1636ZM100.174 8.576H102.35V14.096C102.35 14.3627 102.345 14.6613 102.334 14.992C102.324 15.3227 102.313 15.648 102.302 15.968C102.292 16.2773 102.281 16.5493 102.27 16.784C102.26 17.008 102.249 17.1627 102.238 17.248H102.286L107.566 8.576H110.462V20H108.302V14.512C108.302 14.224 108.308 13.9093 108.318 13.568C108.329 13.216 108.34 12.88 108.35 12.56C108.372 12.24 108.388 11.9627 108.398 11.728C108.42 11.4827 108.436 11.3227 108.446 11.248H108.382L103.086 20H100.174V8.576ZM122.706 20H120.29V15.072H115.762V20H113.346V8.576H115.762V13.056H120.29V8.576H122.706V20ZM132.157 20H125.581V8.576H132.157V10.56H127.997V13.072H131.869V15.056H127.997V18H132.157V20ZM143.894 20H141.478V15.072H136.95V20H134.534V8.576H136.95V13.056H141.478V8.576H143.894V20ZM146.768 8.576H148.944V14.096C148.944 14.3627 148.939 14.6613 148.928 14.992C148.917 15.3227 148.907 15.648 148.896 15.968C148.885 16.2773 148.875 16.5493 148.864 16.784C148.853 17.008 148.843 17.1627 148.832 17.248H148.88L154.16 8.576H157.056V20H154.896V14.512C154.896 14.224 154.901 13.9093 154.912 13.568C154.923 13.216 154.933 12.88 154.944 12.56C154.965 12.24 154.981 11.9627 154.992 11.728C155.013 11.4827 155.029 11.3227 155.04 11.248H154.976L149.68 20H146.768V8.576ZM166.516 20H159.94V8.576H166.516V10.56H162.356V13.072H166.228V15.056H162.356V18H166.516V20Z" fill="white"/>
</svg>
