<svg width="211" height="32" viewBox="0 0 211 32" fill="none" xmlns="http://www.w3.org/2000/svg">
<path d="M1.52588e-05 13.3732C0.00166321 16.9187 1.39612 20.3185 3.87694 22.8255C6.35777 25.3325 9.72205 26.7417 13.2305 26.7433H196.625C196.986 26.7782 197.35 26.7941 197.713 26.7909C201.643 26.7909 205.991 27.0857 208.773 29.9036L210.028 31.1715C210.101 31.246 210.195 31.2967 210.297 31.3173C210.401 31.3398 210.509 31.3301 210.607 31.2893C210.705 31.2486 210.788 31.1788 210.846 31.0891C210.902 30.9998 210.933 30.8967 210.934 30.7911V14.7077C210.975 14.2703 211 13.8234 211 13.3732C211.001 11.6168 210.659 9.87744 209.994 8.25455C209.33 6.63166 208.355 5.15707 207.126 3.91508C205.897 2.67309 204.438 1.68806 202.832 1.01628C201.226 0.344511 199.505 -0.000831719 197.766 1.50417e-06H13.2305C11.493 0.000417715 9.77266 0.346661 8.16762 1.01895C6.56259 1.69125 5.10429 2.67643 3.87602 3.91825C2.64775 5.16007 1.6736 6.63421 1.00908 8.25651C0.344574 9.8788 0.00273132 11.6175 0.00314331 13.3732H1.52588e-05Z" fill="#DD3618"/>
<path d="M64.288 10.432C63.8293 10.432 63.4187 10.5227 63.056 10.704C62.704 10.8853 62.4053 11.1467 62.16 11.488C61.9147 11.8187 61.728 12.224 61.6 12.704C61.4827 13.184 61.424 13.7227 61.424 14.32C61.424 15.1307 61.52 15.824 61.712 16.4C61.9147 16.9653 62.2293 17.3973 62.656 17.696C63.0827 17.9947 63.6267 18.144 64.288 18.144C64.7573 18.144 65.2213 18.0907 65.68 17.984C66.1493 17.8773 66.656 17.728 67.2 17.536V19.568C66.6987 19.7707 66.2027 19.92 65.712 20.016C65.2213 20.112 64.672 20.16 64.064 20.16C62.8907 20.16 61.92 19.92 61.152 19.44C60.3947 18.9493 59.8347 18.2667 59.472 17.392C59.1093 16.5067 58.928 15.4773 58.928 14.304C58.928 13.44 59.0453 12.6507 59.28 11.936C59.5147 11.2107 59.856 10.5867 60.304 10.064C60.7627 9.54133 61.3227 9.136 61.984 8.848C62.656 8.56 63.424 8.416 64.288 8.416C64.8533 8.416 65.4187 8.49067 65.984 8.64C66.56 8.77867 67.1093 8.97067 67.632 9.216L66.848 11.184C66.4213 10.9813 65.9893 10.8053 65.552 10.656C65.1253 10.5067 64.704 10.432 64.288 10.432ZM74.4595 20L71.7075 11.04H71.6435C71.6542 11.2533 71.6702 11.5733 71.6915 12C71.7128 12.4267 71.7342 12.8853 71.7555 13.376C71.7768 13.856 71.7875 14.2933 71.7875 14.688V20H69.6275V8.576H72.9235L75.6275 17.312H75.6755L78.5395 8.576H81.8355V20H79.5795V14.592C79.5795 14.2293 79.5848 13.8133 79.5955 13.344C79.6168 12.8747 79.6328 12.432 79.6435 12.016C79.6648 11.5893 79.6808 11.2693 79.6915 11.056H79.6275L76.6835 20H74.4595ZM91.2973 20H84.7213V8.576H91.2973V10.56H87.1373V13.072H91.0093V15.056H87.1373V18H91.2973V20ZM108.042 20H93.6744V8.576H96.0904V17.984H99.6424V8.576H102.074V17.984H105.626V8.576H108.042V20ZM117.5 20H110.924V8.576H117.5V10.56H113.34V13.072H117.212V15.056H113.34V18H117.5V20ZM129.238 20H126.822V15.072H122.294V20H119.878V8.576H122.294V13.056H126.822V8.576H129.238V20ZM132.112 8.576H134.288V14.096C134.288 14.3627 134.283 14.6613 134.272 14.992C134.261 15.3227 134.251 15.648 134.24 15.968C134.229 16.2773 134.219 16.5493 134.208 16.784C134.197 17.008 134.187 17.1627 134.176 17.248H134.224L139.504 8.576H142.4V20H140.24V14.512C140.24 14.224 140.245 13.9093 140.256 13.568C140.267 13.216 140.277 12.88 140.288 12.56C140.309 12.24 140.325 11.9627 140.336 11.728C140.357 11.4827 140.373 11.3227 140.384 11.248H140.32L135.024 20H132.112V8.576ZM151.86 20H145.284V8.576H151.86V10.56H147.7V13.072H151.572V15.056H147.7V18H151.86V20Z" fill="white"/>
</svg>
