<svg width="217" height="59" viewBox="0 0 217 59" fill="none" xmlns="http://www.w3.org/2000/svg">
<path d="M217 54.8793H211.703V49.8192H217V54.8793ZM217 44.6486H211.703V39.5886H217V44.6486ZM203.418 38.365H200.627C198.121 38.365 196.698 39.0439 196.698 41.0963C196.698 43.1488 198.152 43.9382 200.627 43.9382H203.418V38.365ZM208.288 34.2759V54.8793H203.418V48.0273H199.86L195.536 54.8793H190.073L195.425 46.4643C193.148 45.4381 191.551 43.7961 191.551 40.9227C191.551 36.0599 195.567 34.2759 200.912 34.2759H208.28H208.288ZM168.893 54.8793V34.2759H173.589V47.6326L182.357 34.2759H187.053V54.8793H182.357V41.5226L173.589 54.8793H168.893ZM159.919 34.2759H164.79V54.8793H159.919V46.4406H151.437V54.8793H146.567V34.2759H151.437V42.1462H159.919V34.2759ZM127.529 54.8793V34.2759H143.357V38.5386H132.399V42.1462H142.756V46.4406H132.399V50.5928H143.357V54.8872H127.529V54.8793ZM109.259 50.5849H117.054V38.5624H111.504L111.307 42.7935C111.109 46.3459 110.539 48.9035 109.259 50.577V50.5849ZM107.069 59H102.484V50.5849H103.653C106.073 50.5849 106.357 47.1194 106.586 41.491L106.871 34.2759H121.924V50.5849H124.628V59H120.043V54.8793H107.061V59H107.069ZM84.782 54.8793V34.2759H100.61V38.5386H89.6521V42.1462H100.009V46.4406H89.6521V50.5928H100.61V54.8872H84.782V54.8793ZM68.9703 38.365V42.5173H73.2714C74.979 42.5173 75.9195 41.6963 75.9195 40.4174C75.9195 39.1386 74.979 38.3729 73.2714 38.3729H68.9703V38.365ZM68.9703 46.1248V50.7823H73.5246C75.6039 50.7823 76.6553 49.8982 76.6553 48.4535C76.6553 47.0089 75.6039 46.1248 73.5246 46.1248H68.9703ZM64.1009 54.8793V34.2759H73.0977C77.6198 34.2759 80.9796 35.3021 80.9796 39.6201C80.9796 41.5226 80.1261 42.9198 78.5291 43.9145C80.466 44.5934 81.8018 46.0459 81.8018 48.5483C81.8018 53.1821 78.4736 54.8872 73.4613 54.8872H64.1009V54.8793ZM61.428 44.5934C61.428 51.0191 57.0489 55.2503 50.7242 55.2503C44.3995 55.2503 40.0196 51.0191 40.0196 44.5934C40.0196 38.1677 44.3758 33.9365 50.7242 33.9365C57.0726 33.9365 61.428 38.1677 61.428 44.5934ZM45.1739 44.5934C45.1739 48.9667 47.6804 51.2402 50.7242 51.2402C53.768 51.2402 56.2738 48.9667 56.2738 44.5934C56.2738 40.2201 53.768 37.9466 50.7242 37.9466C47.6804 37.9466 45.1739 40.2201 45.1739 44.5934ZM29.8207 38.3729H26.6028V43.6619H29.8207C32.0976 43.6619 33.8926 43.1488 33.8926 40.9937C33.8926 38.8387 32.0976 38.3808 29.8207 38.3808V38.3729ZM21.7412 34.2838H29.6787C35.031 34.2838 39.0391 35.5942 39.0391 40.9937C39.0391 46.3932 35.023 47.7589 29.6787 47.7589H26.6028V54.8951H21.7327V34.2917L21.7412 34.2838ZM17.6539 54.8872H12.7837V38.5781H4.87014V54.8872H0V34.2838H17.6454V54.8872H17.6539ZM104.927 10.6569C104.927 17.0827 100.547 21.3139 94.2219 21.3139C87.8972 21.3139 83.5174 17.0827 83.5174 10.6569C83.5174 4.2312 87.8735 0 94.2219 0C100.57 0 104.927 4.2312 104.927 10.6569ZM88.6724 10.6569C88.6724 15.0302 91.1782 17.3037 94.2219 17.3037C97.2657 17.3037 99.7715 15.0302 99.7715 10.6569C99.7715 6.28365 97.2657 4.01018 94.2219 4.01018C91.1782 4.01018 88.6724 6.28365 88.6724 10.6569ZM71.9118 20.9429V4.60223H65.3099V0.339486H83.4386V4.60223H76.8051V20.9429H71.9118ZM60.3688 13.2699H65.1524C64.3856 18.0457 60.5426 21.3139 55.3326 21.3139C48.8972 21.3139 45.0002 17.2248 45.0002 10.6254C45.0002 4.02597 49.0163 0 55.4754 0C60.6301 0 64.3297 3.35496 65.0096 8.04402H60.2267C59.6891 5.23374 57.6095 4.01018 55.301 4.01018C52.4232 4.01018 50.1467 6.42576 50.1467 10.6333C50.1467 14.8408 52.3918 17.3116 55.3566 17.3116C57.4911 17.3116 59.7363 16.4038 60.3688 13.2778V13.2699ZM27.3857 20.9429V0.339486H43.2136V4.60223H32.2558V8.20981H42.6122V12.5042H32.2558V16.6564H43.2136V20.9508H27.3857V20.9429ZM13.9534 20.9429H9.36815L4.72731 4.46014V20.9429H0V0.339486H7.68429L11.6372 15.1171L15.6774 0.339486H23.2745V20.9429H18.5471V4.42859L13.938 20.9429H13.9534Z" fill="white"/>
</svg>
